<svg xmlns="http://www.w3.org/2000/svg" xmlns:xlink="http://www.w3.org/1999/xlink" version="1.1" x="0px" y="0px" width="280.823px" height="65.018px" viewBox="0 0 280.823 65.018" enable-background="new 0 0 280.823 65.018" xml:space="preserve"><style>.style0{fill:	#00355F;}.style1{fill:	#FFC60B;}</style><g><polygon points="110.4,50.9 103.2,50.9 103.2,50.8 97,43.3 90.9,50.8 90.8,50.9 85.1,50.9 85,50.8 85,50.7 94.1,39.6 85.1,28.6 85.1,28.5 85.2,28.4 92.3,28.4 92.4,28.5 97.8,35.1 103.3,28.4 103.3,28.4 109.2,28.4 109.3,28.5 109.2,28.6 100.7,38.8 110.5,50.7 110.5,50.8 110.4,50.9" class="style0"/><path d="M149.05 32.363c-3.162 0-5.326 1.917-5.946 5.26h10.767v-0.219C153.87 34.7 151.9 32.4 149.1 32.4 L149.05 32.363z M159.415 41.042l-0.077 0.039h-16.346c0.337 3.8 2.8 6 6.8 5.972c2.463 0 5.079-0.841 8.776-2.806 l0.134 0.091l-0.011 5.022l-0.052 0.078c-3.438 1.453-6.896 2.435-9.604 2.435c-7.04 0-12.146-5.125-12.146-12.189 c0-7.06 5.105-12.191 12.146-12.191c6.421 0 10.5 4.3 10.5 10.271C159.596 38.7 159.4 41 159.4 41 L159.415 41.042z" class="style0"/><path d="M192.628 23.773c-2.006 0-3.637-1.607-3.637-3.581c0-2.03 1.631-3.682 3.637-3.682s3.633 1.7 3.6 3.7 C196.261 22.2 194.6 23.8 192.6 23.773L192.628 23.773z M189.688 50.862l-0.094-0.091V28.498l0.074-0.089h5.907 l0.071 0.089v22.273l-0.087 0.091H189.688L189.688 50.862z" class="style0"/><path d="M121.19 47.509c-1.071 0-2.16-0.15-3.409-0.484l0.009-14.29c1.466-0.469 2.746-0.686 4.008-0.686 c4.09 0 6.8 3 6.8 7.504C128.638 44.4 125.7 47.5 121.2 47.509L121.19 47.509z M122.791 27.5 c-1.666 0-3.344 0.299-5.109 0.907h-5.876l-0.086 0.091v36.52c1.778-0.238 3.942-0.871 6.066-2.376l-0.004-11.108 c1.444 0.2 2.6 0.3 3.8 0.34c8.05 0 13.259-4.821 13.259-12.285C134.835 32.5 129.9 27.5 122.8 27.5L122.791 27.5z" class="style0"/><path d="M178.938 45.662c-1.841 0.963-3.48 1.422-5.027 1.422c-3.646 0-5.829-2.574-5.829-6.887 c0-4.983 2.789-8.211 7.101-8.211c1.19 0 2.4 0.3 3.8 0.924V45.662L178.938 45.662z M178.938 16.619v11.658 c-1.725-0.499-3.242-0.727-4.773-0.727c-7.005 0-12.289 5.281-12.289 12.293c0 7 4.7 12 11.1 12 c2.221 0 4.309-0.555 6.753-1.815l-0.009 2.017c1.615-0.312 3.47-0.959 5.303-2.256V14.233 C183.203 14.5 181.1 15.1 178.9 16.619L178.938 16.619z" class="style0"/><path d="M216.102 45.614c-1.781 1.028-3.309 1.524-4.67 1.524c-3.904 0-6.235-2.57-6.235-6.894 c0-4.912 2.748-8.211 6.846-8.211c1.102 0 2.4 0.4 4.1 1.281V45.614L216.102 45.614z M222.173 28.14l-0.258-0.249l-4.77 0 l-0.258 0.256v0.809h-0.12c-2.203-0.963-4.086-1.414-5.934-1.414c-6.604 0-11.782 5.48-11.782 12.5 c0 7.1 4.6 11.8 11.5 11.834c1.839 0 4.208-0.124 6.418-2.672v2.867c1.565-0.332 3.411-0.996 5.165-2.258L222.173 28.1 L222.173 28.14z" class="style0"/><path d="M68.755 45.215l14.789-0.002c-0.222 1.65-0.782 3.589-2.064 5.559H68.787h-2.522h-0.171 c-1.882 0-3.432-1.458-3.618-3.305l-0.023-0.074V32.239V18.224l0.023-0.07c0.186-1.852 1.735-3.313 3.618-3.313l0.171 0 l17.249-0.004c-0.226 1.652-0.783 3.635-2.065 5.599H68.755v7.938h12.564l0.092 0.086v5.508l-0.092 0.087H68.755v11.149V45.215 L68.755 45.215z" class="style0"/><path d="M229.197 45.208c1.827 0 3.2 1.4 3.2 3.24c0 1.77-1.475 3.19-3.244 3.2 c-1.719 0-3.191-1.468-3.191-3.19C226.006 46.7 227.5 45.2 229.2 45.208L229.197 45.208z" class="style0"/><path d="M238.888 50.862V33.497h-3.539v-4.913h3.539V23.98c0-9.206 5.619-11.938 12.156-11.212v4.231 c-4.143 0.098-6.177 1.178-6.177 5.758v5.827h6.177v4.913h-6.177v17.365H238.888L238.888 50.862z" class="style0"/><path d="M260.912 39.162v11.7h-5.872V28.584h5.473v3.745c2.624-3.136 5.416-4.303 8.402-4.303h0.402v6.277 C261.876 34.4 260.9 34.8 260.9 39.162L260.912 39.162z" class="style0"/><path d="M278.416 30.826l1.188-3.097h1.22v4.37h-0.794v-3.416h-0.021l-1.306 3.416h-0.591l-1.304-3.416h-0.022 v3.416h-0.797v-4.37h1.23L278.416 30.826L278.416 30.826z M275.098 28.419h-1.334v3.68h-0.849v-3.68h-1.337v-0.689h3.52V28.419 L275.098 28.419z" class="style0"/></g><g><g><path d="M50.367 46.038c-1.5 0-2.785 1.129-2.785 2.835c0 1.6 1.2 2.8 2.8 2.8 c1.482 0 2.769-1.123 2.769-2.824C53.136 47.2 51.8 46 50.4 46.038z M50.367 51.419c-1.466 0-2.373-1.146-2.373-2.547 c0-1.502 1.039-2.549 2.373-2.549c1.32 0 2.4 1 2.4 2.549C52.723 50.4 51.7 51.4 50.4 51.419z" class="style0"/><path d="M51.682 48.156c0-0.678-0.416-0.963-1.222-0.963h-1.271v3.35h0.552V49.11h0.515l0.868 1.433h0.622 l-0.938-1.47C51.311 49 51.7 48.8 51.7 48.156z M49.701 48.638v-1.031h0.697c0.353 0 0.8 0.1 0.8 0.5 c0 0.513-0.385 0.553-0.822 0.553H49.701z" class="style0"/></g><g><path d="M31.236 20.511l-1.075-3.045L21.038 5.277l1.638-0.408l15.73 13.597l9.255-2.649 c1.087-0.277 2.32-0.34 3.263-0.333c-2.909-6.274-8.232-11.425-15.26-13.927C21.771-3.395 6.5 3.9 1.6 17.8 c-1.53 4.303-1.89 8.736-1.249 12.955l22.171-7.701L31.236 20.511z" class="style0"/><path d="M51.899 17.884c-0.814 0.525-2.006 1.221-3.193 1.6l-9.276 2.648L33.242 42l-1.607 0.522l1.31-15.173 l-0.731-3.152l-8.69 2.482L0.546 32.087c1.822 8.8 8.1 16.5 17.2 19.791c13.896 5 29.165-2.309 34.109-16.199 C53.989 29.7 53.9 23.4 51.9 17.884z" class="style0"/><path d="M32.213 24.197l0.731 3.152l-1.31 15.173L33.242 42l6.188-19.867l9.276-2.648 c1.187-0.379 2.378-1.074 3.193-1.6c-0.287-0.815-0.612-1.617-0.975-2.401c-0.942-0.007-2.176 0.056-3.263 0.333l-9.255 2.6 L22.676 4.869l-1.638 0.408l9.123 12.189l1.075 3.045l-8.762 2.504L0.303 30.716c0.07 0.5 0.1 0.9 0.2 1.371l22.976-5.408 L32.213 24.197z" class="style1"/></g></g></svg>