<svg xmlns="http://www.w3.org/2000/svg" xmlns:xlink="http://www.w3.org/1999/xlink" version="1.1" x="0px" y="0px" width="293.446px" height="65.223px" viewBox="0 0 293.446 65.223" enable-background="new 0 0 293.446 65.223" xml:space="preserve"><style>.style0{fill:	#00355F;}.style1{fill:	#FFC60B;}</style><g><path d="M110.363 51.071h-7.136c-0.032 0-0.055-0.01-0.072-0.031l-6.15-7.506l-6.159 7.5 c-0.015 0.021-0.042 0.031-0.067 0.031h-5.717c-0.037 0-0.068-0.018-0.084-0.053c-0.018-0.025-0.01-0.064 0.012-0.092l9.062-11.125 l-8.963-11.023c-0.022-0.035-0.022-0.07-0.008-0.1c0.01-0.027 0.047-0.057 0.078-0.057H92.3c0.021 0 0.1 0 0.1 0 l5.394 6.688l5.495-6.691c0.018-0.021 0.04-0.039 0.07-0.039h5.822c0.035 0 0.1 0 0.1 0.1 c0.015 0 0 0.068-0.011 0.1l-8.507 10.209l9.72 11.939c0.021 0 0 0.1 0 0.1 C110.429 51.1 110.4 51.1 110.4 51.071L110.363 51.071z" class="style0"/><path d="M159.38 41.254c-0.014 0.021-0.045 0.039-0.078 0.039h-16.338c0.336 3.8 2.8 6 6.8 6 c2.463 0 5.077-0.842 8.773-2.807c0.061-0.035 0.1 0 0.1 0.092l-0.01 5.021c-0.008 0.043-0.025 0.068-0.053 0.1 c-3.437 1.451-6.895 2.434-9.6 2.434l0 0c-7.037 0-12.143-5.123-12.143-12.186c0-7.057 5.105-12.188 12.143-12.188 c6.418 0 10.5 4.3 10.5 10.268C159.56 38.9 159.4 41.2 159.4 41.254z M149.019 32.575c-3.16 0-5.324 1.918-5.945 5.3 h10.762v-0.219C153.835 34.9 151.9 32.6 149 32.575L149.019 32.575z" class="style0"/><path d="M189.642 51.071c-0.057 0-0.094-0.035-0.094-0.092V28.711c0-0.043 0.031-0.078 0.074-0.086h5.906 c0.043 0 0.1 0 0.1 0.086v22.268c0 0.057-0.035 0.092-0.085 0.092H189.642z M192.581 24 c-2.004 0-3.635-1.609-3.635-3.582c0-2.029 1.631-3.682 3.635-3.682c2.006 0 3.6 1.7 3.6 3.7 C196.213 22.4 194.6 24 192.6 23.991L192.581 23.991z" class="style0"/><path d="M122.766 27.715c-1.666 0-3.343 0.299-5.106 0.906h-5.873c-0.053 0-0.088 0.043-0.088 0.09v36.512 c1.779-0.238 3.941-0.871 6.063-2.377l-0.003-11.104c1.443 0.2 2.6 0.3 3.8 0.34c8.048 0 13.256-4.818 13.256-12.281 C134.808 32.7 129.8 27.7 122.8 27.715z M121.166 47.719c-1.071 0-2.159-0.15-3.407-0.484l0.007-14.287 c1.468-0.469 2.747-0.686 4.009-0.686c4.088 0 6.8 3 6.8 7.504C128.612 44.6 125.7 47.7 121.2 47.719z" class="style0"/><path d="M178.896 16.836v11.654c-1.725-0.498-3.242-0.725-4.771-0.725c-7.004 0-12.287 5.277-12.287 12.3 c0 7 4.7 12 11.1 12.027c2.221 0 4.309-0.555 6.752-1.814l-0.01 2.016c1.615-0.312 3.469-0.957 5.301-2.254V14.452 C183.159 14.7 181 15.3 178.9 16.836z M178.896 45.872c-1.842 0.963-3.48 1.422-5.025 1.4 c-3.645 0-5.828-2.572-5.828-6.885c0-4.982 2.789-8.211 7.098-8.211c1.191 0 2.4 0.3 3.8 0.924V45.872z" class="style0"/><path d="M222.118 28.356c0-0.139-0.121-0.252-0.258-0.252l-4.768 0.01c-0.146 0-0.258 0.117-0.258 0.256v0.811 h-0.119c-2.203-0.963-4.088-1.414-5.934-1.414c-6.602 0-11.779 5.477-11.779 12.486c0 7.1 4.6 11.8 11.5 11.8 c1.838 0 4.205-0.123 6.414-2.67v2.865c1.566-0.332 3.41-0.996 5.164-2.258L222.118 28.356z M216.048 45.8 c-1.779 1.027-3.307 1.523-4.668 1.523c-3.902 0-6.234-2.57-6.234-6.893c0-4.91 2.748-8.209 6.844-8.209 c1.102 0 2.4 0.4 4.1 1.283V45.825z" class="style0"/><path d="M68.747 45.424l14.784-0.002c-0.222 1.65-0.78 3.588-2.062 5.557H68.778h-2.52c-0.057 0-0.112 0-0.174 0 c-1.881 0-3.43-1.457-3.615-3.305c-0.006-0.025-0.018-0.051-0.023-0.072V32.454V18.44c0.006-0.021 0.018-0.047 0.023-0.068 c0.186-1.852 1.734-3.312 3.615-3.312c0.062 0 0.1 0 0.2 0.008l17.242-0.004c-0.227 1.652-0.783 3.633-2.064 5.598H68.747 v7.934h12.561c0.053 0 0.1 0 0.1 0.088v5.506c0 0.043-0.038 0.088-0.091 0.088H68.747v11.146V45.424z" class="style0"/><path d="M228.007 45.418c1.828 0 3.2 1.4 3.2 3.238c0 1.77-1.475 3.189-3.244 3.2 c-1.719 0-3.192-1.467-3.192-3.189C224.814 46.9 226.3 45.4 228 45.418z" class="style0"/><path d="M234.584 50.956V28.682h5.468v3.75c2.427-2.936 5.262-4.357 8.652-4.357c5.009 0 7.7 2.7 7.7 7.9 v14.936h-5.867V37.292c0-2.734-1.367-4.154-4.002-4.154c-3.744 0-6.072 1.773-6.072 5.367v12.451H234.584z" class="style0"/><path d="M272.146 27.676c6.938 0 12 5 12 12.145c0 7.137-5.111 12.145-12.049 12.1 c-6.882 0-12.093-5.008-12.093-12.145C260.054 32.7 265.3 27.7 272.1 27.676z M272.146 47.3 c3.444 0 6.024-2.936 6.024-7.436c0-4.609-2.58-7.494-6.024-7.494c-3.438 0-6.071 2.832-6.071 7.5 C266.075 44.4 268.7 47.3 272.1 47.309z" class="style0"/><g><path d="M287.724 29.348h-1.336v3.68h-0.848v-3.68h-1.336v-0.689h3.52V29.348z M291.04 31.754l1.188-3.096h1.219 v4.369h-0.793v-3.416h-0.021l-1.307 3.416h-0.592l-1.304-3.416h-0.021v3.416h-0.795v-4.369h1.229L291.04 31.754z" class="style0"/></g></g><g><g><path d="M50.367 46.038c-1.5 0-2.785 1.129-2.785 2.834c0 1.6 1.2 2.8 2.8 2.8 c1.482 0 2.769-1.123 2.769-2.825C53.136 47.2 51.8 46 50.4 46.038z M50.367 51.419c-1.466 0-2.373-1.146-2.373-2.547 c0-1.501 1.039-2.548 2.373-2.548c1.32 0 2.4 1 2.4 2.548C52.723 50.4 51.7 51.4 50.4 51.419z" class="style0"/><path d="M51.682 48.156c0-0.678-0.416-0.963-1.222-0.963h-1.271v3.35h0.552V49.11h0.515l0.868 1.433h0.622 l-0.938-1.47C51.311 49 51.7 48.8 51.7 48.156z M49.701 48.638v-1.031h0.697c0.353 0 0.8 0.1 0.8 0.5 c0 0.512-0.385 0.552-0.822 0.552H49.701z" class="style0"/></g><g><path d="M31.236 20.511l-1.075-3.044l-9.123-12.19l1.638-0.408l15.73 13.596l9.255-2.649 c1.087-0.278 2.32-0.34 3.263-0.333c-2.909-6.274-8.232-11.424-15.26-13.927C21.771-3.396 6.5 3.9 1.6 17.8 c-1.53 4.302-1.89 8.735-1.249 12.955l22.171-7.701L31.236 20.511z" class="style0"/><path d="M51.899 17.885c-0.814 0.525-2.006 1.221-3.193 1.599l-9.276 2.649L33.242 42l-1.607 0.522l1.31-15.173 l-0.731-3.152l-8.69 2.482L0.546 32.088c1.822 8.8 8.1 16.5 17.2 19.791c13.896 5 29.165-2.309 34.109-16.199 C53.989 29.7 53.9 23.4 51.9 17.885z" class="style0"/><path d="M32.213 24.197l0.731 3.152l-1.31 15.173L33.242 42l6.188-19.867l9.276-2.649 c1.187-0.378 2.378-1.074 3.193-1.599c-0.287-0.816-0.612-1.618-0.975-2.402c-0.942-0.007-2.176 0.055-3.263 0.333l-9.255 2.6 L22.676 4.869l-1.638 0.408l9.123 12.19l1.075 3.044l-8.762 2.505L0.303 30.716c0.07 0.5 0.1 0.9 0.2 1.372l22.976-5.409 L32.213 24.197z" class="style1"/></g></g></svg>