<svg xmlns="http://www.w3.org/2000/svg" xmlns:xlink="http://www.w3.org/1999/xlink" version="1.1" x="0px" y="0px" width="191.254px" height="36.598px" viewBox="0 0 191.254 36.598" enable-background="new 0 0 191.254 36.598" xml:space="preserve"><style>.style0{fill:	none;}.style1{fill:	#00355F;}.style2{fill:	#FFC60B;}</style><g><rect x="-12.5" y="-12.7" width="215" height="62" class="style0"/><g><g><path d="M56.844 21.82l4.79-5.75c0.014-0.019 0.016-0.039 0.008-0.06c-0.008-0.011-0.027-0.028-0.047-0.028 h-3.279c-0.015 0-0.029 0.007-0.04 0.021l-3.093 3.77l-3.041-3.768c-0.008-0.015-0.026-0.022-0.038-0.022h-4.022 c-0.018 0-0.037 0.017-0.045 0.028c-0.008 0.021-0.008 0 0 0.06l5.047 6.208l-5.104 6.3 c-0.013 0.017-0.015 0.037-0.007 0.051c0.011 0 0 0 0 0.031h3.22c0.017 0 0.031-0.004 0.04-0.018l3.468-4.229 l3.466 4.229c0.01 0 0 0 0 0.018h4.021c0.017 0 0.035-0.01 0.041-0.029c0.01-0.015 0.006-0.035-0.006-0.052 L56.844 21.82z" class="style1"/><path d="M84.051 15.468c-3.963 0-6.838 2.888-6.838 6.864c0 4 2.9 6.9 6.8 6.9 c1.527 0 3.472-0.556 5.41-1.372c0.015-0.005 0.027-0.019 0.029-0.042l0.006-2.83c0-0.039-0.041-0.072-0.076-0.05 c-2.082 1.105-3.554 1.579-4.943 1.579c-2.252 0-3.645-1.221-3.836-3.362h9.205c0.018 0 0.035-0.011 0.045-0.024 c0.004-0.04 0.099-1.301 0.099-1.842C89.99 17.9 87.7 15.5 84.1 15.468z M86.766 21.168h-6.061 c0.348-1.878 1.567-2.958 3.346-2.958c1.607 0 2.7 1.3 2.7 2.837V21.168z" class="style1"/><path d="M108.592 9.283c-1.131 0-2.049 0.928-2.049 2.074c0 1.1 0.9 2 2 2 c1.127 0 2.047-0.905 2.047-2.016C110.639 10.2 109.7 9.3 108.6 9.283z" class="style1"/><path d="M106.924 15.982c-0.021 0.007-0.039 0.026-0.039 0.052v12.54c0 0 0 0.1 0.1 0.052h3.307 c0.027 0 0.049-0.02 0.049-0.052v-12.54c0-0.026-0.017-0.045-0.041-0.052H106.924z" class="style1"/><path d="M69.266 15.469c-0.936 0-1.885 0.171-2.877 0.513h-3.308c-0.029 0-0.047 0.022-0.047 0.053v20.562 c0.998-0.137 2.221-0.49 3.412-1.339l-0.002-6.254c0.816 0.1 1.5 0.2 2.1 0.191c4.529 0 7.463-2.715 7.463-6.918 C76.047 18.3 73.3 15.5 69.3 15.469z M68.363 26.739c-0.6 0-1.213-0.086-1.92-0.273l0.008-8.046 c0.826-0.262 1.545-0.387 2.256-0.387c2.305 0 3.9 1.7 3.9 4.224C72.559 25 70.9 26.7 68.4 26.739z" class="style1"/><path d="M100.883 15.907c-0.971-0.277-1.826-0.406-2.689-0.406c-3.943 0-6.92 2.974-6.92 6.9 c0 3.9 2.6 6.8 6.2 6.776c1.25 0 2.424-0.314 3.801-1.022l-0.004 1.135c0.908-0.175 1.955-0.538 2.984-1.269V8.001 c-1.01 0.135-2.211 0.474-3.412 1.342V15.907z M100.883 25.696c-1.037 0.543-1.961 0.802-2.832 0.8 c-2.053 0-3.281-1.449-3.281-3.879c0-2.808 1.57-4.624 3.998-4.624c0.67 0 1.3 0.2 2.1 0.523V25.696z" class="style1"/><path d="M125.084 15.691l-2.687 0.006c-0.08 0-0.147 0.066-0.147 0.143v0.457h-0.066 c-1.24-0.543-2.301-0.795-3.342-0.795c-3.717 0-6.633 3.084-6.633 7.031c0 4 2.6 6.7 6.5 6.7 c1.036 0 2.368-0.07 3.612-1.504v1.613c0.881-0.188 1.922-0.562 2.908-1.271l0.005-12.204 C125.227 15.8 125.2 15.7 125.1 15.691z M119.182 26.527c-2.197 0-3.514-1.445-3.514-3.88 c0-2.769 1.551-4.625 3.854-4.625c0.619 0 1.4 0.2 2.3 0.722v6.927h0.001C120.809 26.2 120 26.5 119.2 26.527z" class="style1"/><path d="M38.84 25.445v-6.278h7.074c0.032 0 0.053-0.022 0.053-0.05v-3.1c0-0.028-0.022-0.05-0.053-0.05H38.84 v-4.471h7.147c0.723-1.106 1.036-2.223 1.163-3.152l-9.714 0.003c-0.03 0-0.061-0.005-0.095-0.005 c-1.059 0-1.933 0.824-2.037 1.865c-0.004 0.01-0.011 0.027-0.013 0.04v7.894v8.527c0.002 0 0 0 0 0 c0.104 1 1 1.9 2 1.86c0.034 0 0.066-0.001 0.095-0.001l1.422 0.001h7.146c0.723-1.11 1.038-2.2 1.162-3.13 L38.84 25.445L38.84 25.445z" class="style1"/><polygon points="187.1,16.3 187.7,16.3 187.7,17.9 188.1,17.9 188.1,16.3 188.7,16.3 188.7,16 187.1,16" class="style1"/><polygon points="190.7,16 190.2,17.4 189.6,16 189.1,16 189.1,17.9 189.4,17.9 189.4,16.4 189.4,16.4 190,17.9 190.3,17.9 190.9,16.4 190.9,16.4 190.9,17.9 191.3,17.9 191.3,16" class="style1"/><path d="M152.062 15.41c-3.874 0-6.808 2.814-6.81 6.833c0 4 2.9 6.8 6.8 6.8 c3.896 0 6.771-2.82 6.771-6.832C158.833 18.2 156 15.4 152.1 15.41z M152.062 26.457c-1.966 0-3.421-1.627-3.422-4.188 c0-2.617 1.483-4.211 3.422-4.211c1.931 0 3.4 1.6 3.4 4.211C155.452 24.8 154 26.5 152.1 26.457z" class="style1"/><path d="M129.388 25.277c-0.97 0-1.798 0.827-1.798 1.822c0 1 0.8 1.8 1.8 1.8 c0.995 0 1.823-0.8 1.823-1.795C131.211 26.1 130.4 25.3 129.4 25.277z" class="style1"/><path d="M161.431 25.277c-0.97 0-1.798 0.827-1.798 1.822c0 1 0.8 1.8 1.8 1.8 c0.997 0 1.823-0.8 1.823-1.795C163.254 26.1 162.5 25.3 161.4 25.277z" class="style1"/><path d="M144.051 24.955c-1.327 0.863-2.564 1.287-3.924 1.287c-2.649 0-4.407-1.611-4.407-4.064 c0-2.394 1.625-4.1 4.36-4.1c0.969 0 2.4 0.4 3.9 0.991l0.062-2.906c-1.541-0.566-2.891-0.878-4.258-0.878 c-4.359 0-7.494 3.135-7.494 6.866c0 4 2.9 6.9 7.1 6.904c1.597 0 3.345-0.427 4.707-1.303l0.006-2.774 C144.09 25 144.1 24.9 144.1 24.955z" class="style1"/><path d="M168.978 11.618l-3.365 0.602v3.757h-1.991v2.766h1.99v4.538c0 2 0.1 3.4 1.2 4.4 c1.013 0.9 2.4 1.2 3.4 1.389l1.381-2c-1.856-0.716-2.623-1.009-2.623-3.44v-4.897h3.478v-2.766h-3.478V11.618z" class="style1"/><path d="M181.803 15.67c-0.887 0-1.719 0.188-2.494 0.562c-0.775 0.375-1.49 0.936-2.145 1.682l-0.023-0.021 V8.099l-0.025 0.014V8.099c-0.977 0.133-2.115 0.463-3.281 1.27l0.002 19.264h3.306h0.022v-7.049v-0.057 c0-0.961 0.295-1.699 0.883-2.213c0.591-0.515 1.431-0.771 2.523-0.771c0.748 0 1.3 0.2 1.7 0.6 c0.383 0.4 0.6 1 0.6 1.758v7.735h3.336v-8.448c0-1.486-0.369-2.609-1.107-3.371 C184.331 16.1 183.2 15.7 181.8 15.67z" class="style1"/><path d="M28.428 25.984c-0.847 0-1.572 0.637-1.572 1.6c0 0.9 0.7 1.6 1.6 1.6 c0.836 0 1.562-0.635 1.562-1.594C29.99 26.6 29.3 26 28.4 25.984z M28.428 29.02c-0.828 0-1.34-0.646-1.34-1.437 c0-0.848 0.587-1.438 1.34-1.438c0.744 0 1.3 0.6 1.3 1.438S29.172 29 28.4 29.02z" class="style1"/><path d="M29.169 27.177c0-0.381-0.233-0.543-0.689-0.543h-0.718v1.892h0.312v-0.81h0.29l0.49 0.81h0.352 l-0.529-0.828C28.96 27.7 29.2 27.5 29.2 27.177z M28.052 27.451v-0.582h0.393c0.198 0 0.4 0 0.4 0.3 c0 0.286-0.218 0.311-0.464 0.311H28.052z" class="style1"/><path d="M17.63 11.576l-0.607-1.717l-5.148-6.881l0.924-0.229l8.878 7.673L26.9 8.9 c0.613-0.156 1.309-0.191 1.842-0.188c-1.641-3.542-4.647-6.448-8.613-7.86C12.288-1.917 3.7 2.2 0.9 10 c-0.863 2.428-1.067 4.931-0.704 7.311l12.513-4.346L17.63 11.576z" class="style1"/><path d="M27.489 10.997l-5.235 1.494l-3.493 11.213L17.854 24l0.739-8.564l-0.413-1.779l-4.905 1.4L0.308 18.1 c1.029 5 4.6 9.3 9.7 11.171c7.843 2.8 16.461-1.305 19.251-9.146c1.203-3.379 1.126-6.901 0.023-10.043 C28.832 10.4 28.2 10.8 27.5 10.997z" class="style1"/></g><path d="M18.181 13.656l0.413 1.779L17.854 24l0.907-0.295l3.493-11.213l5.235-1.494 c0.671-0.215 1.343-0.606 1.803-0.904c-0.162-0.46-0.347-0.911-0.55-1.354c-0.533-0.005-1.229 0.03-1.842 0.188l-5.224 1.5 L12.798 2.75l-0.924 0.229l5.148 6.881l0.607 1.717l-4.946 1.414L0.171 17.335c0.039 0.3 0.1 0.5 0.1 0.774l12.968-3.054 L18.181 13.656z" class="style2"/></g></g></svg>