<svg xmlns="http://www.w3.org/2000/svg" xmlns:xlink="http://www.w3.org/1999/xlink" version="1.1" x="0px" y="0px" width="117.422px" height="22.243px" viewBox="0 0 117.422 22.243" enable-background="new 0 0 117.422 22.243" xml:space="preserve"><style>.style0{fill:	#00355F;}.style1{fill:	#FFC60B;}</style><g><g><polygon points="117.4,9.8 117.4,9.8 117.4,9.8 117,9.8 116.6,10.9 116.2,9.8 116.2,9.8 116.2,9.8 115.8,9.8 115.8,9.8 115.8,11.3 115.8,11.3 115.8,11.3 115.8,11.3 116,11.3 116,10.2 116,10.2 116.5,11.3 116.5,11.3 116.5,11.3 116.7,11.3 117.1,10.2 117.1,10.2 117.1,11.3 117.1,11.3 117.2,11.3 117.2,11.3 117.4,11.3 117.4,9.8" class="style0"/><polygon points="115.5,9.8 115.5,9.8 115.5,9.8 114.3,9.8 114.3,9.8 114.3,10.1 114.3,10.1 114.3,10.1 114.3,10.1 114.7,10.1 114.7,11.3 114.7,11.3 114.7,11.3 115,11.3 115,10.1 115.5,10.1 115.5,9.8" class="style0"/><path d="M85.505 15.602c-0.113 0.058-0.226 0.098-0.339 0.145c-0.084 0.036-0.169 0.08-0.254 0.1 c-0.395 0.136-0.791 0.205-1.205 0.205c-1.607 0-2.678-0.951-2.678-2.436c0-0.907 0.385-1.652 1.078-2.084 c0.415-0.258 0.941-0.404 1.562-0.404c0.588 0 1.3 0.2 2.2 0.57v-0.002c0.001 0 0 0 0 0l0.165-1.26l0.059-0.447l0 0 V9.996c-0.933-0.345-1.779-0.552-2.607-0.552c-2.644 0-4.545 1.899-4.545 4.163c0 0 0 0 0 0.001l0 0 c0 2.5 1.8 4.1 4.3 4.146c0.969 0 1.85-0.241 2.625-0.707v-0.001c0.001 0 0.001-0.001 0.002-0.001l0.225-1.797 c-0.169 0.111-0.334 0.204-0.499 0.293C85.575 15.6 85.5 15.6 85.5 15.602z" class="style0"/><path d="M34.457 13.288l2.902-3.485c0.007-0.01 0.008-0.022 0.004-0.034l0 0c0 0 0 0 0-0.001 c-0.005-0.008-0.016-0.019-0.028-0.019h-1.987c-0.009 0-0.018 0.006-0.024 0.013l-1.875 2.283l-1.841-2.281 c-0.004-0.009-0.016-0.015-0.023-0.015h-2.438c-0.003 0-0.007 0.005-0.011 0.008c-0.007 0.003-0.015 0.006-0.017 0 c-0.005 0.011-0.005 0 0 0.034l3.059 3.763l-3.094 3.798c-0.007 0.008-0.009 0.021-0.003 0 c0.006 0 0 0 0 0.018h0.002h1.95h0.001c0.008 0 0.017-0.002 0.023-0.011l2.101-2.562l2.1 2.6 c0.006 0 0 0 0 0.011h2.437c0.012 0 0.022-0.006 0.026-0.018c0.006-0.01 0.005-0.023-0.004-0.031L34.457 13.288z" class="style0"/><path d="M50.946 9.438c-0.676 0-1.29 0.151-1.837 0.404c-1.398 0.646-2.309 2.025-2.309 3.8 c0 1.7 0.9 3.1 2.3 3.757c0.547 0.3 1.2 0.4 1.8 0.403c0.924 0 2.105-0.336 3.277-0.832 c0.01-0.002 0.016-0.012 0.018-0.026l0.005-1.714c0-0.023-0.025-0.043-0.046-0.031c-1.263 0.67-2.155 0.957-2.995 1 c-1.368 0-2.21-0.739-2.325-2.035h5.576c0.011 0 0.022-0.008 0.026-0.015c0 0 0 0 0-0.001h0.001 c0.001-0.017 0.028-0.36 0.045-0.686c0.009-0.163 0.016-0.322 0.017-0.432l0 0v-0.001C54.545 10.9 53.1 9.4 50.9 9.438z M50.945 11.1c0.972 0 1.6 0.8 1.6 1.72v0.074h-3.673C49.128 11.8 49.9 11.1 50.9 11.1z" class="style0"/><path d="M65.816 5.689c-0.685 0-1.241 0.564-1.241 1.257c0 0 0 0 0 0.001c0 0 0 0 0 0 c0 0.5 0.3 0.9 0.8 1.125c0.148 0.1 0.3 0.1 0.5 0.096c0.685 0 1.24-0.548 1.24-1.222 C67.056 6.3 66.5 5.7 65.8 5.689z" class="style0"/><path d="M64.805 9.751c-0.014 0.004-0.025 0.015-0.025 0.03v7.6c0 0 0 0 0 0.031h2.004 c0.011 0 0.015-0.012 0.02-0.021c0.003-0.004 0.011-0.003 0.011-0.01V9.78c0-0.014-0.01-0.027-0.025-0.029H64.805z" class="style0"/><path d="M41.985 9.439c-0.568 0-1.141 0.103-1.743 0.31h-2.005c0 0 0 0.001-0.001 0.001l0 0 c-0.017 0-0.029 0.015-0.029 0.031v12.461c0 0 0 0 0 0l0 0c0.026-0.004 0.056-0.012 0.083-0.016 c0.591-0.088 1.293-0.304 1.987-0.795v-0.001l0 0l-0.001-3.79c0.493 0.1 0.9 0.1 1.3 0.1 c2.747 0 4.525-1.645 4.525-4.191c0-0.508-0.09-0.975-0.23-1.41C45.34 10.5 43.9 9.4 42 9.439z M41.439 16.3 c-0.365 0-0.737-0.051-1.164-0.165l0.003-4.876c0.5-0.16 0.937-0.234 1.367-0.234c1.396 0 2.3 1 2.3 2.6 c0 1-0.371 1.78-1.003 2.243C42.565 16.1 42 16.3 41.4 16.268z" class="style0"/><path d="M61.145 5.728v3.977c-0.588-0.171-1.105-0.248-1.629-0.248c-2.391 0-4.194 1.801-4.194 4.194v0.001v0.001 c0 2.4 1.6 4.1 3.8 4.105c0.758 0 1.471-0.189 2.304-0.619l-0.003 0.688h0.001l0 0c0.552-0.105 1.185-0.326 1.81-0.77 v-0.001V4.914V4.912c-0.612 0.081-1.34 0.287-2.068 0.814V5.728z M57.44 13.772c0-1.699 0.952-2.801 2.423-2.801 c0.406 0 0.8 0.1 1.3 0.315v4.352c-0.628 0.327-1.188 0.485-1.715 0.485c-0.311 0-0.591-0.055-0.836-0.16 C57.86 15.6 57.4 14.9 57.4 13.772z" class="style0"/><path d="M75.81 9.573l-1.627 0.003c-0.05 0-0.088 0.04-0.088 0.087v0.001V9.94h-0.041 c-0.752-0.329-1.396-0.482-2.025-0.482c-2.253 0-4.021 1.869-4.021 4.261c0 2.4 1.6 4 3.9 4 c0.627 0 1.436-0.043 2.188-0.91v0.977c0.001 0 0 0 0 0l0 0c0.533-0.113 1.164-0.34 1.763-0.771l0.002-7.395 C75.898 9.6 75.9 9.6 75.8 9.573z M70.148 13.188c0.199-1.339 1.07-2.201 2.293-2.201c0.376 0 0.8 0.1 1.4 0.4 v4.197c-0.152 0.088-0.299 0.164-0.44 0.229c-0.425 0.195-0.806 0.291-1.153 0.291c-1.332 0-2.128-0.877-2.128-2.353 C70.105 13.6 70.1 13.4 70.1 13.188z" class="style0"/><path d="M28.591 15.485h-5.046h-0.001V11.68h4.288c0.018 0 0.031-0.014 0.031-0.029v-0.002V9.772V9.769 c0-0.014-0.013-0.029-0.031-0.029h-4.288V7.034h4.332c0.437-0.671 0.627-1.348 0.704-1.911h0c0-0.001 0-0.002 0-0.003 l-5.885 0.002c-0.019 0-0.038-0.003-0.059-0.003c-0.642 0-1.171 0.499-1.234 1.131c0 0.002-0.001 0.005-0.002 0 c-0.002 0.006-0.005 0.012-0.005 0.017v4.784v5.171c0.001 0 0 0 0 0.024c0.063 0.6 0.6 1.1 1.2 1.1 c0.021 0 0 0 0.1 0h0.001h0.86h4.332C28.325 16.7 28.5 16 28.6 15.485L28.591 15.485L28.591 15.485z" class="style0"/><path d="M77.909 15.483c-0.588 0-1.09 0.501-1.09 1.105c0 0.6 0.5 1.1 1.1 1.1 c0.604 0 1.106-0.483 1.106-1.088C79.015 16 78.5 15.5 77.9 15.483z" class="style0"/><path d="M103.463 14.144c0 1.228-0.778 1.83-2.057 1.83c-0.898 0-1.382-0.481-1.382-1.418V9.808h-2.004v5.183 c0 1.8 0.9 2.7 2.6 2.713c1.157 0 2.109-0.484 2.938-1.471l0.002 0.055c0 0.4 0 1.5 0 1.5 c0.506-0.107 1.097-0.316 1.664-0.703c0.099-0.064 0.187-0.129 0.217-0.151v-7.09h-2.004V14.144z" class="style0"/><path d="M113.995 9.808h-2.437l-2.781 2.9V4.952l-0.015 0.006V4.953V4.952c-0.592 0.079-1.291 0.28-1.997 0.767v0 c0 0-0.001 0-0.001 0l0.009 11.689h2.003v-3.523l3.316 3.523h0.002h2.558h0.001l-4.219-4.283L113.995 9.808z" class="style0"/><path d="M91.065 9.462c-0.294 0-0.578 0.027-0.852 0.078c-1.915 0.361-3.277 1.936-3.277 4.1 c0 2.4 1.8 4.1 4.1 4.146c2.366 0 4.111-1.709 4.111-4.146C95.176 11.2 93.4 9.5 91.1 9.462z M91.065 16.2 c-1.191 0-2.072-0.986-2.072-2.541c0-1.588 0.897-2.556 2.072-2.556c1.174 0 2.1 1 2.1 2.6 C93.122 15.2 92.2 16.2 91.1 16.167z" class="style0"/><path d="M96.288 15.422c-0.59 0-1.09 0.5-1.09 1.104c0 0.6 0.5 1.1 1.1 1.09c0.604 0 1.104-0.484 1.104-1.09 C97.392 15.9 96.9 15.4 96.3 15.422z" class="style0"/><path d="M17.192 15.715c-0.512 0-0.95 0.386-0.95 0.968c0 0.6 0.4 1 0.9 1 c0.506 0 0.945-0.383 0.945-0.964C18.138 16.1 17.7 15.7 17.2 15.715z M17.192 17.551c-0.5 0-0.81-0.391-0.81-0.869 c0-0.514 0.355-0.87 0.81-0.87c0.451 0 0.8 0.4 0.8 0.87C17.997 17.2 17.6 17.6 17.2 17.551z" class="style0"/><path d="M17.641 16.438c0-0.23-0.142-0.329-0.417-0.329H16.79v1.144h0.188v-0.488h0.176l0.296 0.488h0.212 l-0.32-0.502C17.515 16.7 17.6 16.6 17.6 16.438z M16.965 16.602V16.25h0.238c0.12 0 0.3 0 0.3 0.2 c0 0.174-0.131 0.188-0.281 0.188H16.965z" class="style0"/><path d="M10.662 7.001l-0.367-1.039l-3.114-4.16L7.74 1.663l5.37 4.641L16.269 5.4 c0.371-0.095 0.792-0.116 1.114-0.114c-0.993-2.142-2.81-3.899-5.209-4.754C7.431-1.159 2.2 1.3 0.5 6.1 c-0.522 1.469-0.645 2.982-0.426 4.422l7.568-2.629L10.662 7.001z" class="style0"/><path d="M16.625 6.651l-3.166 0.904l-2.113 6.781l-0.548 0.179l0.447-5.18l-0.25-1.076L8.029 9.107l-7.843 1.8 c0.622 3 2.8 5.6 5.9 6.755c4.744 1.7 9.956-0.789 11.643-5.53c0.728-2.044 0.681-4.175 0.014-6.074 C17.437 6.3 17 6.5 16.6 6.651z" class="style0"/></g><path d="M10.996 8.26l0.25 1.076l-0.447 5.18l0.548-0.178l2.113-6.782l3.166-0.904 c0.405-0.129 0.812-0.367 1.09-0.546c-0.098-0.278-0.209-0.552-0.333-0.82C17.061 5.3 16.6 5.3 16.3 5.4L13.11 6.3 l-5.37-4.64L7.181 1.802l3.114 4.161l0.367 1.039L7.671 7.856l-7.568 2.629c0.024 0.2 0.1 0.3 0.1 0.468l7.843-1.847 L10.996 8.26z" class="style1"/></g></svg>