<svg xmlns="http://www.w3.org/2000/svg" xmlns:xlink="http://www.w3.org/1999/xlink" version="1.1" x="0px" y="0px" width="291.611px" height="65.223px" viewBox="0 0 291.611 65.223" enable-background="new 0 0 291.611 65.223" xml:space="preserve"><style>.style0{fill:	#00355F;}.style1{fill:	#FFC60B;}</style><g><path d="M110.431 51.071h-7.137c-0.031 0-0.057-0.01-0.074-0.031l-6.148-7.506l-6.156 7.5 c-0.018 0.021-0.043 0.031-0.072 0.031h-5.717c-0.035 0-0.064-0.018-0.082-0.053c-0.018-0.025-0.012-0.064 0.01-0.09l9.064-11.127 l-8.961-11.023c-0.025-0.035-0.025-0.07-0.012-0.1c0.012-0.027 0.047-0.057 0.08-0.057h7.139c0.025 0 0.1 0 0.1 0 l5.398 6.688l5.492-6.691c0.016-0.021 0.039-0.039 0.07-0.039h5.82c0.034 0 0.1 0 0.1 0.1 c0.014 0 0 0.068-0.012 0.1l-8.506 10.209l9.719 11.941c0.025 0 0 0.1 0 0.1 C110.493 51.1 110.5 51.1 110.4 51.071L110.431 51.071z" class="style0"/><path d="M159.45 41.254c-0.018 0.021-0.045 0.039-0.08 0.039h-16.342c0.338 3.8 2.8 6 6.8 6 c2.463 0 5.078-0.842 8.777-2.807c0.059-0.033 0.1 0 0.1 0.092l-0.012 5.021c-0.006 0.043-0.023 0.068-0.053 0.1 c-3.436 1.451-6.893 2.434-9.604 2.434l0 0c-7.035 0-12.143-5.123-12.143-12.186c0-7.057 5.107-12.186 12.143-12.186 c6.419 0 10.5 4.3 10.5 10.268C159.628 38.9 159.5 41.2 159.4 41.254z M149.083 32.575c-3.158 0-5.322 1.918-5.941 5.3 h10.762v-0.219C153.903 34.9 151.9 32.6 149.1 32.575L149.083 32.575z" class="style0"/><path d="M189.708 51.071c-0.053 0-0.09-0.035-0.09-0.092V28.711c0-0.043 0.032-0.078 0.074-0.086h5.905 c0.042 0 0.1 0 0.1 0.086v22.268c0 0.057-0.035 0.092-0.086 0.092H189.708z M192.65 24 c-2.007 0-3.636-1.609-3.636-3.582c0-2.029 1.629-3.682 3.636-3.682s3.634 1.7 3.6 3.7 C196.284 22.4 194.7 24 192.7 23.991L192.65 23.991z" class="style0"/><path d="M122.831 27.715c-1.664 0-3.342 0.299-5.107 0.906h-5.874c-0.049 0-0.085 0.043-0.085 0.09v36.512 c1.777-0.238 3.941-0.871 6.062-2.377l-0.004-11.104c1.442 0.2 2.6 0.3 3.8 0.34c8.047 0 13.254-4.818 13.254-12.281 C134.872 32.7 129.9 27.7 122.8 27.715z M121.231 47.719c-1.07 0-2.16-0.15-3.408-0.484l0.009-14.287 c1.466-0.467 2.745-0.684 4.007-0.684c4.088 0 6.8 3 6.8 7.502C128.677 44.6 125.8 47.7 121.2 47.719z" class="style0"/><path d="M178.965 16.836v11.654c-1.724-0.498-3.241-0.725-4.771-0.725c-7.002 0-12.287 5.277-12.287 12.3 c0 7 4.7 12 11.1 12.027c2.22 0 4.303-0.555 6.749-1.814l-0.006 2.016c1.613-0.311 3.469-0.957 5.301-2.254V14.452 C183.229 14.7 181.1 15.3 179 16.836z M178.965 45.872c-1.841 0.963-3.482 1.422-5.026 1.4 c-3.645 0-5.826-2.572-5.826-6.885c0-4.982 2.789-8.211 7.1-8.211c1.187 0 2.4 0.3 3.8 0.924V45.872z" class="style0"/><path d="M222.187 28.356c0-0.139-0.121-0.25-0.258-0.25l-4.768 0.008c-0.145 0-0.258 0.117-0.258 0.256v0.811 h-0.119c-2.201-0.963-4.086-1.414-5.932-1.414c-6.604 0-11.784 5.477-11.784 12.486c0 7.1 4.6 11.8 11.5 11.8 c1.837 0 4.204-0.123 6.413-2.67v2.865c1.564-0.332 3.412-0.994 5.162-2.256L222.187 28.356z M216.116 45.8 c-1.777 1.027-3.303 1.523-4.666 1.523c-3.901 0-6.236-2.568-6.236-6.893c0-4.91 2.751-8.209 6.844-8.209 c1.1 0 2.4 0.4 4.1 1.283V45.825z" class="style0"/><path d="M68.813 45.424l14.784-0.002c-0.224 1.65-0.783 3.588-2.063 5.557H68.845h-2.521c-0.055 0-0.111 0-0.173 0 c-1.88 0-3.429-1.457-3.615-3.303c-0.005-0.027-0.019-0.053-0.022-0.074V32.454V18.44c0.004-0.021 0.018-0.047 0.022-0.068 c0.187-1.852 1.735-3.312 3.615-3.312c0.062 0 0.1 0 0.2 0.008l17.242-0.004c-0.227 1.652-0.781 3.633-2.065 5.598H68.813 v7.934h12.561c0.053 0 0.1 0 0.1 0.088v5.506c0 0.043-0.038 0.088-0.091 0.088H68.813v11.146V45.424z" class="style0"/><path d="M228.077 45.418c1.826 0 3.2 1.4 3.2 3.238c0 1.77-1.47 3.189-3.241 3.2 c-1.721 0-3.192-1.467-3.192-3.189C224.885 46.9 226.4 45.4 228.1 45.418z" class="style0"/><g><path d="M249.146 16.961v11.619c-1.721-0.494-3.232-0.723-4.75-0.723c-6.979 0-12.245 5.262-12.245 12.2 c0 6.9 4.6 12 11 11.992c2.212 0 4.287-0.564 6.727-1.812l-0.008 2.006c1.609-0.303 3.451-0.957 5.279-2.24V14.586 C253.397 14.8 251.3 15.4 249.1 16.961z M249.146 45.893c-1.831 0.959-3.469 1.428-5.004 1.4 c-3.635 0-5.81-2.572-5.81-6.871c0-4.967 2.774-8.178 7.069-8.178c1.189 0 2.3 0.3 3.7 0.928V45.893z" class="style0"/><g><path d="M270.66 38.518l10.43-9.719h-7.137l-8.148 8.5V14.573l-0.042 0.021v-0.021 c-1.739 0.234-3.788 0.824-5.854 2.254l0.026 34.244h5.869V40.747l9.719 10.324h7.492L270.66 38.518z" class="style0"/><g><path d="M285.889 29.575h-1.336v3.682h-0.844v-3.682h-1.338v-0.689h3.518V29.575z M289.207 31.981l1.186-3.096 h1.219v4.371h-0.793V29.84h-0.021l-1.305 3.416h-0.591l-1.308-3.416h-0.019v3.416h-0.793v-4.371h1.227L289.207 31.981z" class="style0"/></g></g></g></g><g><g><path d="M50.428 46.038c-1.5 0-2.785 1.129-2.785 2.834c0 1.6 1.2 2.8 2.8 2.8 c1.482 0 2.769-1.123 2.769-2.825C53.197 47.2 51.9 46 50.4 46.038z M50.428 51.419c-1.466 0-2.373-1.146-2.373-2.547 c0-1.501 1.039-2.548 2.373-2.548c1.32 0 2.4 1 2.4 2.548C52.784 50.4 51.7 51.4 50.4 51.419z" class="style0"/><path d="M51.743 48.156c0-0.678-0.416-0.963-1.222-0.963H49.25v3.35h0.552V49.11h0.515l0.868 1.433h0.622 l-0.938-1.47C51.372 49 51.7 48.8 51.7 48.156z M49.762 48.638v-1.031h0.697c0.353 0 0.8 0.1 0.8 0.5 c0 0.512-0.385 0.552-0.822 0.552H49.762z" class="style0"/></g><g><path d="M31.297 20.511l-1.075-3.044l-9.123-12.19l1.638-0.408l15.73 13.596l9.255-2.649 c1.087-0.278 2.32-0.34 3.263-0.333c-2.909-6.274-8.232-11.424-15.26-13.927C21.832-3.396 6.6 3.9 1.6 17.8 c-1.53 4.302-1.89 8.735-1.249 12.955l22.171-7.701L31.297 20.511z" class="style0"/><path d="M51.96 17.885c-0.814 0.525-2.006 1.221-3.193 1.599l-9.276 2.649L33.303 42l-1.607 0.522l1.31-15.173 l-0.731-3.152l-8.69 2.482L0.607 32.088c1.822 8.8 8.1 16.5 17.2 19.791C31.707 56.8 47 49.6 51.9 35.7 C54.05 29.7 53.9 23.4 52 17.885z" class="style0"/><path d="M32.274 24.197l0.731 3.152l-1.31 15.173L33.303 42l6.188-19.867l9.276-2.649 c1.187-0.378 2.378-1.074 3.193-1.599c-0.287-0.816-0.612-1.618-0.975-2.402c-0.942-0.007-2.176 0.055-3.263 0.333l-9.255 2.6 L22.737 4.869l-1.638 0.408l9.123 12.19l1.075 3.044l-8.762 2.505L0.364 30.716c0.07 0.5 0.1 0.9 0.2 1.372l22.976-5.409 L32.274 24.197z" class="style1"/></g></g></svg>