<svg xmlns="http://www.w3.org/2000/svg" xmlns:xlink="http://www.w3.org/1999/xlink" version="1.1" x="0px" y="0px" width="189.586px" height="36.743px" viewBox="0 0 189.586 36.743" enable-background="new 0 0 189.586 36.743" xml:space="preserve"><style>.style0{fill:	#FFC60B;}.style1{fill:	#00355F;}.style2{fill:	none;}</style><path d="M18.181 13.656l0.413 1.779L17.854 24l0.907-0.295l3.493-11.213l5.235-1.494 c0.671-0.215 1.343-0.607 1.803-0.904c-0.162-0.46-0.346-0.912-0.55-1.354c-0.532-0.005-1.228 0.03-1.841 0.188l-5.224 1.5 L12.799 2.75l-0.924 0.229l5.148 6.881l0.607 1.717l-4.946 1.414L0.171 17.335c0.039 0.3 0.1 0.5 0.1 0.774l12.968-3.054 L18.181 13.656z" class="style0"/><g><path d="M56.812 21.965l4.79-5.75c0.014-0.018 0.016-0.039 0.008-0.059c-0.008-0.011-0.027-0.029-0.047-0.029 h-3.279c-0.015 0-0.029 0.007-0.04 0.021l-3.093 3.77l-3.041-3.768c-0.008-0.015-0.026-0.023-0.038-0.023H48.05 c-0.018 0-0.037 0.017-0.045 0.029c-0.008 0.02-0.008 0 0 0.059l5.047 6.208l-5.104 6.3 c-0.013 0.016-0.015 0.037-0.007 0.051c0.011 0 0 0 0 0.031h3.22c0.017 0 0.031-0.004 0.04-0.018l3.468-4.229 l3.466 4.229c0.01 0 0 0 0 0.018h4.021c0.018 0 0.036-0.009 0.041-0.029c0.01-0.015 0.006-0.035-0.006-0.052 L56.812 21.965z" class="style1"/><path d="M84.019 15.614c-3.963 0-6.838 2.887-6.838 6.864c0 4 2.9 6.9 6.8 6.9 c1.527 0 3.472-0.557 5.41-1.373c0.015-0.004 0.027-0.018 0.029-0.041l0.006-2.83c0-0.039-0.041-0.072-0.076-0.051 c-2.082 1.106-3.554 1.58-4.943 1.58c-2.252 0-3.645-1.221-3.836-3.362h9.205c0.018 0 0.035-0.011 0.045-0.024 c0.004-0.041 0.1-1.301 0.099-1.842C89.958 18 87.6 15.6 84 15.614z M86.735 21.315h-6.061 c0.348-1.878 1.567-2.958 3.346-2.958c1.607 0 2.7 1.3 2.7 2.837V21.315z" class="style1"/><path d="M108.561 9.429c-1.131 0-2.049 0.928-2.049 2.074c0 1.1 0.9 2 2 2 c1.127 0 2.046-0.904 2.047-2.016C110.608 10.4 109.7 9.4 108.6 9.429z" class="style1"/><path d="M106.892 16.128c-0.021 0.007-0.039 0.027-0.039 0.052v12.539c0 0 0 0.1 0.1 0.053h3.306 c0.028 0 0.049-0.02 0.049-0.053V16.18c0-0.026-0.016-0.045-0.041-0.052H106.892z" class="style1"/><path d="M69.234 15.617c-0.936 0-1.885 0.17-2.877 0.512h-3.308c-0.029 0-0.047 0.023-0.047 0.053v20.562 c0.998-0.137 2.221-0.49 3.412-1.338l-0.002-6.255c0.816 0.1 1.5 0.2 2.1 0.19c4.529 0 7.463-2.715 7.463-6.918 C76.016 18.4 73.2 15.6 69.2 15.617z M68.332 26.885c-0.6 0-1.213-0.086-1.92-0.272l0.008-8.046 c0.826-0.262 1.545-0.387 2.256-0.387c2.305 0 3.9 1.7 3.9 4.224C72.527 25.1 70.9 26.9 68.3 26.885z" class="style1"/><path d="M100.852 16.054c-0.971-0.277-1.826-0.406-2.689-0.406c-3.942 0-6.919 2.973-6.919 6.9 c0 3.9 2.6 6.8 6.2 6.776c1.25 0 2.424-0.314 3.801-1.022l-0.004 1.134c0.908-0.174 1.955-0.537 2.984-1.268V8.148 c-1.01 0.135-2.211 0.473-3.412 1.342V16.054z M100.852 25.842c-1.037 0.543-1.961 0.803-2.832 0.8 c-2.053 0-3.281-1.449-3.281-3.879c0-2.809 1.57-4.624 3.998-4.624c0.67 0 1.3 0.2 2.1 0.523V25.842z" class="style1"/><path d="M125.051 15.837l-2.686 0.006c-0.08 0-0.148 0.066-0.148 0.143v0.457h-0.065 c-1.239-0.543-2.301-0.795-3.342-0.795c-3.718 0-6.634 3.084-6.634 7.031c0 4 2.6 6.7 6.5 6.7 c1.037 0 2.369-0.069 3.613-1.504v1.613c0.881-0.187 1.922-0.561 2.908-1.27l0.005-12.204 C125.195 15.9 125.1 15.8 125.1 15.837z M119.15 26.672c-2.196 0-3.514-1.444-3.514-3.879c0-2.769 1.551-4.625 3.854-4.625 c0.619 0 1.4 0.2 2.3 0.722v6.927h0.001C120.777 26.4 119.9 26.7 119.2 26.672z" class="style1"/><path d="M38.809 19.314h7.074c0.032 0 0.053-0.022 0.053-0.05v-3.1c0-0.028-0.022-0.049-0.053-0.049h-7.074v-4.471 h7.147c0.723-1.107 1.036-2.223 1.163-3.152l-9.714 0.002c-0.03 0-0.061-0.004-0.095-0.004c-1.06 0-1.934 0.824-2.037 1.9 c-0.004 0.01-0.011 0.027-0.013 0.04v7.893v8.528c0.002 0 0 0 0 0.045c0.104 1 1 1.9 2 1.9 c0.034 0 0.066-0.002 0.095-0.002l1.422 0.002h7.146c0.723-1.11 1.038-2.2 1.162-3.131l-8.326 0.002V19.314z" class="style1"/><path d="M28.428 25.984c-0.847 0-1.572 0.638-1.572 1.601c0 0.9 0.7 1.6 1.6 1.6 c0.836 0 1.562-0.635 1.562-1.594C29.99 26.6 29.3 26 28.4 25.984z M28.428 29.02c-0.828 0-1.34-0.645-1.34-1.436 c0-0.849 0.587-1.439 1.34-1.439c0.745 0 1.3 0.6 1.3 1.439C29.757 28.4 29.2 29 28.4 29.02z" class="style1"/><path d="M29.169 27.178c0-0.381-0.234-0.543-0.689-0.543h-0.718v1.891h0.312v-0.809h0.29l0.49 0.809h0.351 l-0.529-0.828C28.96 27.7 29.2 27.5 29.2 27.178z M28.052 27.452V26.87h0.393c0.199 0 0.4 0 0.4 0.3 c0 0.286-0.217 0.312-0.463 0.312H28.052z" class="style1"/><path d="M17.63 11.576l-0.607-1.717l-5.148-6.881l0.924-0.229l8.878 7.673L26.9 8.9 c0.613-0.157 1.309-0.192 1.841-0.188c-1.641-3.542-4.646-6.448-8.613-7.86C12.288-1.917 3.7 2.2 0.9 10 c-0.863 2.428-1.067 4.931-0.704 7.311l12.513-4.346L17.63 11.576z" class="style1"/><path d="M27.489 10.997l-5.235 1.494l-3.493 11.212L17.854 24l0.739-8.565l-0.413-1.779l-4.905 1.4L0.308 18.1 c1.029 5 4.6 9.3 9.7 11.172c7.843 2.8 16.461-1.306 19.251-9.146c1.203-3.378 1.125-6.901 0.023-10.042 C28.832 10.4 28.2 10.8 27.5 10.997z" class="style1"/><polygon points="185.4,8.3 186,8.3 186,10 186.4,10 186.4,8.3 187,8.3 187,8 185.4,8" class="style1"/><polygon points="189,8 188.5,9.4 188,8 187.4,8 187.4,10 187.8,10 187.8,8.4 187.8,8.4 188.4,10 188.6,10 189.2,8.4 189.2,8.4 189.2,10 189.6,10 189.6,8" class="style1"/><path d="M152.032 15.556c-3.875 0-6.809 2.815-6.81 6.833c0 4 2.9 6.8 6.8 6.8 c3.895 0 6.77-2.82 6.77-6.832C158.801 18.4 155.9 15.6 152 15.556z M152.032 26.604c-1.968 0-3.423-1.627-3.423-4.189 c0-2.617 1.483-4.21 3.423-4.21c1.93 0 3.4 1.6 3.4 4.21C155.42 24.9 154 26.6 152 26.604z" class="style1"/><path d="M129.356 25.424c-0.968 0-1.796 0.826-1.797 1.822c0 1 0.8 1.8 1.8 1.8 c0.996 0 1.824-0.799 1.824-1.795C131.18 26.2 130.4 25.4 129.4 25.424z" class="style1"/><path d="M161.399 25.424c-0.968 0-1.796 0.826-1.797 1.822c0 1 0.8 1.8 1.8 1.8 c0.997 0 1.824-0.799 1.824-1.795C163.223 26.2 162.4 25.4 161.4 25.424z" class="style1"/><path d="M144.021 25.101c-1.328 0.862-2.565 1.287-3.924 1.287c-2.65 0-4.408-1.611-4.408-4.063 c0-2.395 1.625-4.101 4.36-4.101c0.97 0 2.4 0.4 3.9 0.991l0.062-2.906c-1.541-0.567-2.891-0.878-4.258-0.878 c-4.358 0-7.494 3.135-7.494 6.866c0 4 2.9 6.9 7.1 6.904c1.595 0 3.343-0.427 4.707-1.303l0.006-2.775 C144.06 25.1 144.1 25.1 144 25.101z" class="style1"/><path d="M180.312 16.071c-0.972-0.277-1.826-0.406-2.688-0.406c-3.943 0-6.92 2.972-6.92 6.9 c0 3.9 2.6 6.8 6.2 6.776c1.25 0 2.425-0.313 3.802-1.022l-0.004 1.135c0.907-0.174 1.954-0.539 2.983-1.268V8.166 c-1.009 0.134-2.21 0.472-3.412 1.341V16.071z M180.312 25.86c-1.037 0.543-1.961 0.801-2.832 0.8 c-2.054 0-3.28-1.449-3.28-3.879c0-2.807 1.569-4.623 3.997-4.623c0.671 0 1.3 0.2 2.1 0.523V25.86z" class="style1"/><path d="M165.483 16.129c-0.021 0.008-0.039 0.028-0.039 0.053v12.564c0 0 0 0.1 0.1 0.053h3.307 c0.027 0 0.049-0.02 0.049-0.053V16.182c0-0.026-0.016-0.045-0.041-0.053H165.483z" class="style1"/><path d="M167.152 9.429c-1.131 0-2.049 0.929-2.049 2.075c0 1.1 0.9 2 2 2 c1.127 0 2.048-0.905 2.048-2.016C169.2 10.4 168.3 9.4 167.2 9.429z" class="style1"/></g><g><rect x="-12.5" y="-12.6" width="214" height="62" class="style2"/></g></svg>