<svg xmlns="http://www.w3.org/2000/svg" xmlns:xlink="http://www.w3.org/1999/xlink" version="1.1" x="0px" y="0px" width="215.468px" height="36.479px" viewBox="0 0 215.468 36.479" enable-background="new 0 0 215.468 36.479" xml:space="preserve"><style>.style0{fill:	#00355F;}.style1{fill:	#EEC218;}.style2{fill:	none;}</style><g><g><g><path d="M61.945 28.542h-4.002c-0.018 0-0.029-0.003-0.04-0.017l-3.449-4.21l-3.451 4.2 c-0.008 0.013-0.022 0.017-0.038 0.017h-3.206c-0.02 0-0.035-0.01-0.048-0.031c-0.006-0.012-0.005-0.034 0.007-0.05l5.082-6.239 l-5.022-6.18c-0.015-0.02-0.015-0.039-0.008-0.059c0.008-0.012 0.027-0.029 0.043-0.029h4.005c0.011 0 0 0 0 0 l3.026 3.751l3.079-3.753c0.009-0.014 0.024-0.021 0.038-0.021h3.264c0.02 0 0 0 0 0 c0.008 0 0 0.041-0.008 0.059l-4.766 5.724l5.445 6.695c0.012 0 0 0 0 0.1 C61.98 28.5 62 28.5 61.9 28.542L61.945 28.542z" class="style0"/><path d="M89.419 23.036c-0.01 0.014-0.027 0.024-0.044 0.024h-9.162c0.192 2.1 1.6 3.3 3.8 3.3 c1.382 0 2.848-0.472 4.918-1.573c0.038-0.022 0.1 0 0.1 0.049l-0.006 2.818c-0.003 0.023-0.013 0.038-0.029 0 c-1.928 0.812-3.863 1.366-5.384 1.366l0 0c-3.944 0-6.805-2.875-6.805-6.835c0-3.958 2.86-6.833 6.805-6.833 c3.598 0 5.9 2.4 5.9 5.759C89.518 21.7 89.4 23 89.4 23.036z M83.608 18.173c-1.772 0-2.984 1.075-3.329 2.9 h6.031v-0.122C86.31 19.5 85.2 18.2 83.6 18.173L83.608 18.173z" class="style0"/><path d="M106.383 28.542c-0.032 0-0.052-0.02-0.052-0.051V16.007c0-0.026 0.018-0.045 0.04-0.052h3.309 c0.027 0 0 0 0 0.052v12.484c0 0.031-0.022 0.051-0.048 0.051H106.383z M108.029 13.4 c-1.124 0-2.038-0.9-2.038-2.007c0-1.141 0.914-2.065 2.038-2.065c1.123 0 2 0.9 2 2.1 C110.067 12.5 109.2 13.4 108 13.356L108.029 13.356z" class="style0"/><path d="M68.896 15.444c-0.934 0-1.877 0.17-2.865 0.51h-3.293c-0.028 0-0.045 0.023-0.045 0.053v20.472 c0.994-0.136 2.212-0.489 3.396-1.333l-0.001-6.228c0.811 0.1 1.5 0.2 2.1 0.192c4.508 0 7.426-2.703 7.426-6.889 C75.642 18.2 72.9 15.4 68.9 15.444z M67.996 26.663c-0.596 0-1.207-0.085-1.909-0.272l0.007-8.01 c0.822-0.261 1.539-0.385 2.246-0.385c2.293 0 3.8 1.7 3.8 4.205C72.171 24.9 70.5 26.7 68 26.663z" class="style0"/><path d="M100.358 9.345v6.535c-0.966-0.275-1.817-0.404-2.676-0.404c-3.925 0-6.887 2.96-6.887 6.9 c0 3.9 2.6 6.7 6.2 6.747c1.245 0 2.411-0.313 3.782-1.019l-0.003 1.128c0.905-0.172 1.945-0.534 2.97-1.261V8.008 C102.749 8.1 101.6 8.5 100.4 9.345z M100.358 25.625c-1.031 0.541-1.952 0.798-2.817 0.8 c-2.043 0-3.266-1.443-3.266-3.861c0-2.795 1.563-4.604 3.979-4.604c0.667 0 1.3 0.2 2.1 0.521V25.625z" class="style0"/><path d="M124.585 15.804c0-0.078-0.066-0.14-0.143-0.14l-2.673 0.005c-0.08 0-0.147 0.066-0.147 0.142v0.456 h-0.067c-1.235-0.541-2.289-0.792-3.325-0.792c-3.699 0-6.601 3.07-6.601 7c0 4 2.6 6.6 6.5 6.6 c1.033 0 2.357-0.07 3.597-1.497v1.606c0.877-0.187 1.912-0.559 2.893-1.265L124.585 15.804z M121.185 25.6 c-0.997 0.575-1.852 0.853-2.615 0.853c-2.187 0-3.497-1.439-3.497-3.864c0-2.754 1.543-4.603 3.837-4.603 c0.614 0 1.4 0.2 2.3 0.719V25.601z" class="style0"/><path d="M38.605 25.418l8.306-0.003c-0.124 0.929-0.438 2.015-1.159 3.123h-7.127l-1.419-0.001 c-0.029 0-0.061 0.001-0.094 0.001c-1.058 0-1.928-0.82-2.031-1.856c-0.005-0.015-0.012-0.031-0.013-0.045v-8.508v-7.874 c0.001-0.012 0.008-0.03 0.013-0.04c0.103-1.038 0.973-1.861 2.031-1.861c0.034 0 0.1 0 0.1 0.004l9.688-0.001 c-0.127 0.926-0.441 2.04-1.161 3.145h-7.127v4.46h7.055c0.03 0 0.1 0 0.1 0.049v3.093c0 0.026-0.021 0.049-0.051 0 h-7.055v6.263V25.418z" class="style0"/></g><g><path d="M17.494 11.487l-0.602-1.705l-5.109-6.827L12.7 2.727l8.81 7.615l5.184-1.483 c0.609-0.156 1.299-0.191 1.827-0.187c-1.629-3.514-4.61-6.398-8.546-7.8C12.193-1.901 3.6 2.2 0.9 9.9 c-0.857 2.409-1.059 4.892-0.699 7.255l12.417-4.312L17.494 11.487z" class="style0"/><path d="M29.066 10.017c-0.456 0.294-1.124 0.684-1.788 0.896l-5.195 1.483l-3.466 11.126l-0.9 0.292l0.733-8.498 l-0.409-1.765l-4.867 1.39L0.306 17.971c1.021 5 4.5 9.3 9.6 11.084c7.782 2.8 16.333-1.293 19.103-9.072 C30.236 16.6 30.2 13.1 29.1 10.017z" class="style0"/><path d="M18.041 13.552l0.409 1.765l-0.733 8.498l0.9-0.292l3.466-11.126l5.195-1.483 c0.665-0.212 1.332-0.602 1.788-0.896C28.905 9.6 28.7 9.1 28.5 8.671c-0.528-0.004-1.218 0.031-1.827 0.187l-5.184 1.5 L12.7 2.727l-0.917 0.229l5.109 6.827l0.602 1.705l-4.907 1.403L0.17 17.203c0.04 0.3 0.1 0.5 0.1 0.768l12.868-3.029 L18.041 13.552z" class="style1"/></g></g></g><g><g><path d="M151.389 15.349c3.897 0 6.8 2.8 6.8 6.833c0 4.012-2.875 6.832-6.772 6.8 c-3.875 0-6.81-2.82-6.81-6.832C144.58 18.2 147.5 15.3 151.4 15.349z M151.389 26.397c1.93 0 3.389-1.656 3.389-4.189 c0-2.588-1.459-4.212-3.389-4.212c-1.938 0-3.422 1.595-3.422 4.212C147.967 24.8 149.4 26.4 151.4 26.397z" class="style0"/><path d="M128.711 25.217c1.028 0 1.8 0.8 1.8 1.822c0 0.996-0.828 1.795-1.825 1.8 c-0.969 0-1.797-0.826-1.797-1.795C126.915 26 127.7 25.2 128.7 25.217z" class="style0"/><path d="M183.982 25.217c1.027 0 1.8 0.8 1.8 1.822c0 0.996-0.828 1.795-1.824 1.8 c-0.969 0-1.798-0.826-1.798-1.795C182.184 26 183 25.2 184 25.217z" class="style0"/><path d="M168.361 28.52v-7.688c0-1.512-0.741-2.334-2.11-2.334c-1.967 0-3.163 0.997-3.163 3.018v7.004h-3.307 V15.988h3.076v2.109c1.313-1.656 2.793-2.453 4.646-2.453c1.823 0 3.1 0.8 4 2.453c1.197-1.598 2.821-2.453 4.673-2.453 c2.648 0 4.1 1.5 4.1 4.476v8.4h-3.311v-7.688c0-1.512-0.738-2.334-2.105-2.334c-1.968 0-3.165 0.997-3.165 3.018v7.004 H168.361z" class="style0"/><g><path d="M138.703 28.995c-4.247 0-7.136-2.859-7.136-6.904c0-3.731 3.135-6.866 7.495-6.866 c1.367 0 2.7 0.3 4.3 0.878l-0.062 2.906c-1.45-0.627-2.883-0.991-3.852-0.991c-2.737 0-4.362 1.706-4.362 4.1 c0 2.5 1.8 4.1 4.4 4.064c1.359 0 2.596-0.424 3.924-1.287c0.035-0.021 0 0 0 0.023l-0.006 2.8 C142.047 28.6 140.3 29 138.7 28.995z" class="style0"/></g><path d="M206.171 21.86v6.602h-3.305V15.884h3.078v2.115c1.479-1.771 3.05-2.43 4.729-2.43h0.227v3.547 C206.712 19.2 206.2 19.4 206.2 21.86z" class="style0"/><path d="M191.75 16.251c0.645-0.301 1.27-0.52 1.877-0.66c0.607-0.139 1.225-0.209 1.85-0.209 c1.738 0 3.2 0.6 4.3 1.807c1.113 1.2 1.7 2.8 1.7 4.652c0 2.15-0.701 3.877-2.074 5.2 c-1.208 1.176-2.585 1.879-4.817 1.879c-0.449 0-1.236-0.018-1.895-0.158c-0.812-0.176-1.1-0.475-1.902-0.701 c0 0-0.595 0.354-1.017 0.516c-0.658 0.254-1.34 0.393-1.34 0.393V9.091c1.191-0.865 2.388-1.193 3.399-1.325v8.485 M191.749 18.716v7.625c0.355 0.1 0.7 0.2 1 0.223c0.326 0 0.6 0.1 1 0.07c1.299 0 2.334-0.412 3.111-1.24 c0.775-0.826 1.162-1.936 1.162-3.328c0-1.262-0.332-2.275-0.994-3.041c-0.664-0.766-1.537-1.148-2.621-1.148 c-0.402 0-0.82 0.07-1.254 0.209C192.694 18.2 192.2 18.4 191.7 18.716z" class="style0"/></g></g><g><g><path d="M213.919 14.832c-0.841 0-1.56 0.631-1.56 1.586c0 0.9 0.6 1.6 1.6 1.6 c0.828 0 1.549-0.629 1.549-1.582C215.468 15.5 214.7 14.8 213.9 14.832z M213.919 17.846c-0.822 0-1.33-0.643-1.33-1.428 c0-0.84 0.582-1.426 1.33-1.426c0.738 0 1.3 0.6 1.3 1.426C215.238 17.3 214.7 17.8 213.9 17.846z" class="style0"/><path d="M214.656 16.018c0-0.379-0.234-0.539-0.686-0.539h-0.712v1.875h0.308v-0.801h0.289l0.486 0.801h0.348 l-0.524-0.824C214.447 16.5 214.7 16.4 214.7 16.018z M213.544 16.287v-0.576h0.391c0.198 0 0.4 0 0.4 0.3 c0 0.287-0.217 0.309-0.459 0.309H213.544z" class="style0"/></g><g><path d="M27.304 27.003h-0.672v1.521h-0.374v-1.521h-0.672v-0.339h1.718V27.003z M29.224 26.664h0.483l0.18 1.9 h-0.387L29.404 27.1l-0.479 1.393h-0.453L27.998 27.1l-0.092 1.424h-0.387l0.18-1.859h0.483l0.523 1.508L29.224 26.664z" class="style0"/></g></g><g><rect x="-12.6" y="-12.6" width="240" height="61.6" class="style2"/></g></svg>