<svg xmlns="http://www.w3.org/2000/svg" xmlns:xlink="http://www.w3.org/1999/xlink" version="1.1" x="0px" y="0px" width="294.428px" height="65.009px" viewBox="0 0 294.428 65.009" enable-background="new 0 0 294.428 65.009" xml:space="preserve"><style>.style0{fill:	#00355F;}.style1{fill:	#FFC60B;}</style><g><polygon points="110.4,50.9 103.2,50.9 103.2,50.8 97,43.3 90.9,50.8 90.8,50.9 85.1,50.9 85,50.8 85,50.7 94.1,39.6 85.1,28.6 85.1,28.5 85.2,28.4 92.3,28.4 92.4,28.4 97.8,35.1 103.3,28.4 103.3,28.4 109.2,28.4 109.2,28.5 109.2,28.6 100.7,38.8 110.4,50.7 110.5,50.8 110.4,50.9" class="style0"/><path d="M149.038 32.354c-3.161 0-5.325 1.917-5.945 5.26h10.766v-0.22 C153.858 34.7 151.9 32.4 149 32.354L149.038 32.354z M159.406 41.034l-0.078 0.039h-16.346 c0.336 3.8 2.8 6 6.8 5.972c2.463 0 5.079-0.841 8.778-2.806l0.135 0.091l-0.014 5.023l-0.05 0.1 c-3.439 1.453-6.898 2.436-9.606 2.436c-7.038 0-12.146-5.124-12.146-12.189c0-7.06 5.107-12.19 12.146-12.19 c6.421 0 10.5 4.3 10.5 10.271C159.584 38.7 159.4 41 159.4 41.034L159.406 41.034z" class="style0"/><path d="M192.616 23.764c-2.006 0-3.637-1.606-3.637-3.581c0-2.029 1.631-3.682 3.637-3.682 s3.635 1.7 3.6 3.682C196.251 22.2 194.6 23.8 192.6 23.764L192.616 23.764z M189.676 50.853l-0.092-0.091V28.49 l0.072-0.09h5.909l0.069 0.09v22.272l-0.087 0.091H189.676L189.676 50.853z" class="style0"/><path d="M121.179 47.5c-1.071 0-2.16-0.149-3.409-0.483l0.009-14.29c1.466-0.469 2.745-0.686 4.008-0.686 c4.09 0 6.8 3 6.8 7.505C128.626 44.4 125.7 47.5 121.2 47.5L121.179 47.5z M122.779 27.5 c-1.666 0-3.344 0.299-5.109 0.906h-5.876l-0.087 0.092v36.52c1.778-0.238 3.943-0.871 6.067-2.376l-0.005-11.108 c1.444 0.2 2.6 0.3 3.8 0.341c8.051 0 13.26-4.821 13.26-12.285C134.824 32.5 129.9 27.5 122.8 27.5 L122.779 27.492z" class="style0"/><path d="M178.928 45.653c-1.841 0.963-3.482 1.423-5.026 1.423c-3.647 0-5.829-2.574-5.829-6.888 c0-4.983 2.788-8.212 7.1-8.212c1.188 0 2.4 0.3 3.8 0.924V45.653L178.928 45.653z M178.928 16.61v11.658 c-1.727-0.499-3.244-0.727-4.773-0.727c-7.004 0-12.289 5.28-12.289 12.293c0 7 4.7 12 11.1 12 c2.221 0 4.307-0.556 6.753-1.815l-0.009 2.018c1.614-0.312 3.47-0.959 5.303-2.256V14.224 C183.193 14.5 181.1 15.1 178.9 16.61L178.928 16.61z" class="style0"/><path d="M216.09 45.605c-1.779 1.027-3.307 1.524-4.668 1.524c-3.904 0-6.235-2.569-6.235-6.894 c0-4.912 2.749-8.211 6.844-8.211c1.103 0 2.4 0.4 4.1 1.281V45.605L216.09 45.605z M222.161 28.131l-0.256-0.249 l-4.771 0.009l-0.257 0.256v0.809h-0.121c-2.203-0.963-4.083-1.414-5.931-1.414c-6.606 0-11.785 5.48-11.785 12.5 c0 7.1 4.6 11.8 11.5 11.834c1.839 0 4.208-0.124 6.416-2.672v2.867c1.565-0.332 3.413-0.995 5.165-2.258L222.161 28.1 L222.161 28.131z" class="style0"/><path d="M68.744 45.207l14.789-0.003c-0.223 1.65-0.782 3.589-2.064 5.559H68.775h-2.522h-0.171 c-1.883 0-3.432-1.458-3.617-3.306l-0.024-0.073V32.23V18.214l0.024-0.069c0.186-1.852 1.734-3.313 3.617-3.313l0.171 0 l17.248-0.005c-0.226 1.652-0.782 3.635-2.064 5.6H68.744v7.938h12.563l0.093 0.086v5.509l-0.093 0.087H68.744v11.149V45.207 L68.744 45.207z" class="style0"/><path d="M229.188 45.2c1.825 0 3.2 1.4 3.2 3.239c0 1.77-1.473 3.19-3.242 3.2 c-1.72 0-3.191-1.468-3.191-3.19C225.996 46.7 227.5 45.2 229.2 45.2L229.188 45.2z" class="style0"/><path d="M274.265 32.566c-3.146 0-5.302 1.906-5.921 5.234h10.725v-0.219 C279.068 34.9 277.1 32.6 274.3 32.566L274.265 32.566z M284.597 41.203l-0.077 0.053h-16.281 c0.326 3.8 2.8 5.9 6.8 5.947c2.457 0 5.062-0.841 8.745-2.806l0.14 0.087l-0.014 5.018l-0.053 0.1 c-3.431 1.442-6.871 2.429-9.575 2.429c-7.006 0-12.091-5.108-12.091-12.148c0-7.039 5.085-12.148 12.091-12.148 c6.403 0 10.5 4.3 10.5 10.229C284.771 38.9 284.6 41.1 284.6 41.203L284.597 41.203z" class="style0"/><path d="M242.289 32.982c1.391-0.641 2.554-0.926 3.74-0.926c4.299 0 7.1 3.2 7.1 8.2 c0 4.294-2.182 6.863-5.812 6.863c-1.532 0-3.174-0.466-5.001-1.429V32.982L242.289 32.982z M236.249 16.737v35.348 c3.406-0.442 5.362-1.978 5.407-1.954c2.381 1.2 4.4 1.7 6.6 1.746c6.399 0 11.033-5.042 11.033-11.994 c0-6.982-5.268-12.248-12.246-12.248c-1.515 0-3.033 0.229-4.748 0.727V14.382C240.49 14.6 238.4 15.2 236.2 16.7 L236.249 16.737z" class="style0"/><path d="M292.021 30.587l1.188-3.097h1.219v4.37h-0.792v-3.416h-0.022l-1.306 3.416h-0.594l-1.303-3.416h-0.02 v3.416h-0.798v-4.37h1.23L292.021 30.587L292.021 30.587z M288.703 28.18h-1.337v3.681h-0.846V28.18h-1.337v-0.689h3.52V28.18 L288.703 28.18z" class="style0"/></g><g><g><path d="M50.367 46.037c-1.5 0-2.785 1.129-2.785 2.835c0 1.6 1.2 2.8 2.8 2.8 c1.482 0 2.77-1.123 2.77-2.825C53.137 47.2 51.9 46 50.4 46.037z M50.367 51.42c-1.466 0-2.373-1.146-2.373-2.548 c0-1.501 1.039-2.548 2.373-2.548c1.32 0 2.4 1 2.4 2.548S51.688 51.4 50.4 51.42z" class="style0"/><path d="M51.682 48.156c0-0.679-0.416-0.963-1.223-0.963h-1.271v3.35h0.552v-1.434h0.515l0.868 1.434h0.621 l-0.938-1.471C51.311 49 51.7 48.8 51.7 48.156z M49.701 48.639v-1.031h0.696c0.353 0 0.8 0.1 0.8 0.5 c0 0.512-0.386 0.553-0.822 0.553H49.701z" class="style0"/></g><g><path d="M31.236 20.511l-1.076-3.044L21.037 5.277l1.639-0.408l15.73 13.596l9.256-2.648 c1.086-0.278 2.32-0.34 3.262-0.334c-2.908-6.273-8.232-11.424-15.26-13.927C21.771-3.396 6.5 3.9 1.6 17.8 c-1.529 4.302-1.89 8.735-1.248 12.955l22.171-7.701L31.236 20.511z" class="style0"/><path d="M51.898 17.885c-0.814 0.525-2.006 1.221-3.192 1.6l-9.276 2.648L33.242 42l-1.607 0.521l1.309-15.173 l-0.73-3.151l-8.69 2.482L0.547 32.088c1.821 8.8 8.1 16.5 17.2 19.791c13.896 5 29.164-2.308 34.109-16.199 C53.988 29.7 53.9 23.4 51.9 17.885z" class="style0"/><path d="M32.213 24.197l0.73 3.151l-1.309 15.173L33.242 42l6.188-19.867l9.276-2.648 c1.187-0.379 2.378-1.074 3.192-1.6c-0.286-0.816-0.611-1.618-0.975-2.402c-0.941-0.006-2.176 0.056-3.262 0.334l-9.256 2.6 L22.676 4.869l-1.639 0.408l9.123 12.189l1.076 3.044l-8.763 2.505L0.303 30.717c0.07 0.5 0.1 0.9 0.2 1.371l22.976-5.408 L32.213 24.197z" class="style1"/></g></g></svg>