<?xml version="1.0" standalone="no"?><svg xmlns="http://www.w3.org/2000/svg" width="1004.000" height="654.000" viewBox="0.0 0.0 1004.000 654.000" version="1.1">
  <title>Produce by Acme CAD Converter</title>
  <desc>Produce by Acme CAD Converter</desc>
<g id="0" display="visible">
<g><path d="M296.58 578L256.7 538.12 237.82 557 232.47 551.65 277.82 506.29 283.17 511.65 264.29 530.53 304.17 570.41 296.58 578Z"
fill-rule="evenodd" fill="RGB(255,220,190)"/>
<path d="M331.7 542.88L298.94 510.12 305.23 503.82 310.26 508.85 310.26 508.85 310.02 507.41 309.85 506.05 309.74 504.79 309.7 503.6 309.71 502.51 309.79 501.5 309.93 500.57 310.14 499.74 310.14 499.74 310.4 498.95 310.71 498.19 311.06 497.45 311.46 496.73 311.92 496.04 312.41 495.37 312.96 494.72 313.56 494.09 313.56 494.09 314.48 493.22 315.46 492.4 316.5 491.64 317.6 490.92 318.76 490.26 319.98 489.65 321.25 489.1 322.59 488.59 325.27 496.2 325.27 496.2 324.35 496.58 323.47 496.99 322.63 497.44 321.82 497.92 321.05 498.44 320.31 499 319.61 499.59 318.95 500.22 318.95 500.22 318.4 500.81 317.89 501.42 317.44 502.04 317.03 502.69 316.67 503.35 316.36 504.04 316.1 504.74 315.89 505.47 315.89 505.47 315.73 506.2 315.64 506.92 315.6 507.64 315.62 508.35 315.7 509.05 315.84 509.75 316.04 510.44 316.3 511.12 316.3 511.12 316.77 512.15 317.3 513.15 317.88 514.13 318.51 515.1 319.2 516.05 319.94 516.97 320.74 517.88 321.59 518.77 338.7 535.88 331.7 542.88Z"
fill-rule="evenodd" fill="RGB(255,220,190)"/>
<path d="M324.76 472.06L318.41 465.7 325.41 458.7 331.76 465.06 324.76 472.06Z
M363.64 510.94L330.88 478.17 337.88 471.17 370.64 503.94 363.64 510.94Z"
fill-rule="evenodd" fill="RGB(255,220,190)"/>
<path d="M409.65 456.7L409.65 456.7 409.31 458.31 408.94 459.86 408.53 461.35 408.07 462.79 407.58 464.17 407.05 465.49 406.48 466.75 405.86 467.95 405.86 467.95 405.21 469.12 404.5 470.27 403.74 471.4 402.93 472.52 402.07 473.62 401.16 474.7 400.2 475.76 399.19 476.8 399.19 476.8 397.49 478.42 395.8 479.86 394.13 481.12 392.48 482.2 390.85 483.09 389.23 483.81 387.63 484.34 386.04 484.69 386.04 484.69 384.5 484.87 383.03 484.89 381.63 484.75 380.29 484.45 379.03 483.99 377.83 483.37 376.7 482.59 375.65 481.65 375.65 481.65 375.07 481.03 374.56 480.39 374.1 479.71 373.7 479 373.35 478.27 373.06 477.5 372.83 476.7 372.65 475.88 372.65 475.88 372.53 475.03 372.46 474.18 372.44 473.34 372.47 472.48 372.55 471.63 372.68 470.77 372.87 469.92 373.1 469.05 373.1 469.05 373.38 468.19 373.7 467.33 374.05 466.47 374.44 465.61 374.87 464.75 375.33 463.89 375.82 463.03 376.36 462.18 376.36 462.18 376.8 461.52 377.31 460.79 377.89 460 378.53 459.15 379.24 458.23 380.02 457.25 380.87 456.2 381.78 455.09 381.78 455.09 383.64 452.82 385.34 450.69 386.9 448.68 388.31 446.81 389.56 445.07 390.67 443.45 391.62 441.97 392.43 440.63 392.43 440.63 392.17 440.34 391.93 440.09 391.71 439.86 391.52 439.66 391.36 439.49 391.22 439.34 391.11 439.23 391.02 439.14 391.02 439.14 390.17 438.35 389.32 437.69 388.47 437.15 387.63 436.74 386.78 436.45 385.93 436.29 385.09 436.25 384.24 436.34 384.24 436.34 383.08 436.62 381.91 437.03 380.7 437.59 379.48 438.28 378.23 439.12 376.96 440.09 375.67 441.21 374.35 442.47 374.35 442.47 373.17 443.69 372.12 444.87 371.19 446.02 370.38 447.13 369.7 448.19 369.14 449.22 368.71 450.22 368.4 451.17 368.4 451.17 368.2 452.12 368.11 453.09 368.13 454.1 368.24 455.13 368.47 456.19 368.79 457.27 369.23 458.39 369.76 459.53 362.11 465.64 362.11 465.64 361.52 464.54 361 463.45 360.57 462.35 360.21 461.26 359.94 460.18 359.74 459.1 359.62 458.02 359.59 456.94 359.59 456.94 359.63 455.86 359.77 454.74 360 453.6 360.32 452.43 360.73 451.22 361.23 449.99 361.82 448.73 362.51 447.44 362.51 447.44 363.27 446.14 364.11 444.83 365.03 443.51 366.03 442.19 367.1 440.87 368.24 439.54 369.47 438.21 370.77 436.87 370.77 436.87 372.08 435.59 373.36 434.4 374.61 433.31 375.83 432.31 377.01 431.4 378.17 430.58 379.29 429.86 380.38 429.23 380.38 429.23 381.44 428.68 382.46 428.2 383.44 427.79 384.38 427.46 385.28 427.19 386.14 427 386.96 426.87 387.74 426.82 387.74 426.82 388.5 426.83 389.26 426.89 390.01 427.01 390.76 427.18 391.5 427.4 392.24 427.68 392.97 428.02 393.7 428.4 393.7 428.4 394.17 428.71 394.7 429.1 395.3 429.57 395.95 430.12 396.66 430.76 397.43 431.48 398.27 432.28 399.16 433.16 406.55 440.55 406.55 440.55 408.4 442.39 410.09 444.03 411.61 445.49 412.97 446.75 414.17 447.82 415.2 448.71 416.07 449.4 416.78 449.9 416.78 449.9 417.41 450.29 418.07 450.65 418.75 450.97 419.45 451.26 420.17 451.53 420.92 451.75 421.68 451.95 422.47 452.12 415.12 459.47 415.12 459.47 414.42 459.27 413.72 459.03 413.03 458.75 412.34 458.42 411.66 458.06 410.98 457.65 410.31 457.2 409.65 456.7 409.65 456.7Z
M396.76 445L396.76 445 396.04 446.32 395.2 447.75 394.21 449.28 393.1 450.93 391.86 452.68 390.48 454.54 388.98 456.51 387.34 458.59 387.34 458.59 386.42 459.76 385.58 460.86 384.83 461.88 384.15 462.82 383.56 463.69 383.06 464.48 382.64 465.2 382.3 465.84 382.3 465.84 382.02 466.44 381.79 467.03 381.6 467.62 381.46 468.19 381.36 468.76 381.3 469.32 381.29 469.87 381.32 470.42 381.32 470.42 381.39 470.95 381.49 471.45 381.64 471.94 381.83 472.4 382.05 472.84 382.32 473.25 382.62 473.65 382.96 474.02 382.96 474.02 383.53 474.53 384.15 474.94 384.81 475.27 385.52 475.51 386.27 475.66 387.06 475.72 387.9 475.69 388.78 475.57 388.78 475.57 389.69 475.35 390.61 475.02 391.55 474.58 392.51 474.04 393.49 473.39 394.47 472.63 395.48 471.76 396.5 470.79 396.5 470.79 397.48 469.76 398.39 468.72 399.23 467.66 400 466.59 400.69 465.5 401.32 464.4 401.87 463.28 402.35 462.14 402.35 462.14 402.75 461.01 403.07 459.9 403.3 458.81 403.45 457.74 403.51 456.69 403.49 455.66 403.38 454.65 403.19 453.66 403.19 453.66 402.96 452.9 402.64 452.11 402.23 451.31 401.73 450.49 401.13 449.65 400.45 448.79 399.67 447.9 398.81 447 396.76 445Z"
fill-rule="evenodd" fill="RGB(255,220,190)"/>
<path d="M433.88 440.7L388.64 395.47 395.64 388.47 440.88 433.7 433.88 440.7Z"
fill-rule="evenodd" fill="RGB(255,220,190)"/>
<path d="M509.45 365.13L442.09 342.02 450.29 333.82 498 351.83 498 351.83 499.42 352.37 500.81 352.91 502.16 353.46 503.48 354.01 504.76 354.56 506.01 355.11 507.23 355.67 508.41 356.23 508.41 356.23 507.83 354.97 507.25 353.69 506.69 352.4 506.15 351.09 505.61 349.77 505.09 348.44 504.59 347.1 504.09 345.74 486.71 297.41 494.44 289.67 517.27 357.32 509.45 365.13Z"
fill-rule="evenodd" fill="RGB(255,220,190)"/>
<path d="M563.75 289.54L571.77 283.05 571.77 283.05 572.51 284.75 573.1 286.47 573.52 288.21 573.78 289.97 573.88 291.75 573.82 293.56 573.6 295.38 573.21 297.23 573.21 297.23 572.66 299.08 571.94 300.93 571.06 302.77 570 304.6 568.78 306.43 567.39 308.25 565.84 310.07 564.12 311.88 564.12 311.88 561.83 314.03 559.53 315.92 557.2 317.55 554.85 318.93 552.49 320.06 550.1 320.92 547.69 321.54 545.27 321.89 545.27 321.89 542.86 321.98 540.5 321.79 538.2 321.33 535.96 320.58 533.77 319.56 531.64 318.26 529.56 316.69 527.54 314.83 527.54 314.83 525.62 312.74 523.98 310.6 522.63 308.4 521.56 306.16 520.78 303.85 520.27 301.5 520.06 299.09 520.12 296.63 520.12 296.63 520.45 294.17 521.02 291.74 521.84 289.36 522.9 287.02 524.2 284.73 525.74 282.47 527.52 280.26 529.55 278.09 529.55 278.09 531.65 276.13 533.8 274.4 535.99 272.91 538.22 271.65 540.5 270.63 542.83 269.84 545.2 269.29 547.61 268.97 547.61 268.97 550.02 268.91 552.38 269.13 554.69 269.62 556.95 270.4 559.15 271.45 561.31 272.78 563.41 274.39 565.46 276.28 565.46 276.28 565.59 276.41 565.74 276.56 565.9 276.72 566.07 276.91 566.26 277.1 566.46 277.32 566.67 277.55 566.9 277.8 535.94 308.76 535.94 308.76 537.39 309.91 538.85 310.89 540.34 311.7 541.84 312.33 543.36 312.78 544.9 313.06 546.45 313.17 548.02 313.1 548.02 313.1 549.59 312.87 551.12 312.49 552.61 311.98 554.07 311.32 555.5 310.52 556.89 309.58 558.24 308.49 559.56 307.26 559.56 307.26 560.48 306.29 561.32 305.29 562.08 304.29 562.74 303.27 563.33 302.23 563.82 301.18 564.23 300.12 564.56 299.04 564.56 299.04 564.79 297.94 564.93 296.81 564.97 295.66 564.92 294.49 564.77 293.29 564.52 292.06 564.18 290.82 563.75 289.54 563.75 289.54Z
M531.77 303.76L554.94 280.58 554.94 280.58 553.8 279.73 552.67 279 551.56 278.38 550.45 277.89 549.35 277.51 548.26 277.25 547.19 277.1 546.12 277.08 546.12 277.08 544.5 277.2 542.92 277.49 541.38 277.93 539.87 278.54 538.4 279.32 536.97 280.25 535.57 281.35 534.22 282.6 534.22 282.6 533.07 283.83 532.05 285.09 531.16 286.38 530.39 287.7 529.75 289.05 529.25 290.44 528.86 291.85 528.61 293.3 528.61 293.3 528.5 294.74 528.52 296.14 528.7 297.51 529.02 298.84 529.49 300.12 530.1 301.37 530.86 302.59 531.77 303.76 531.77 303.76Z"
fill-rule="evenodd" fill="RGB(255,220,190)"/>
<path d="M593.3 281.29L560.53 248.52 566.82 242.23 571.85 247.26 571.85 247.26 571.62 245.82 571.44 244.46 571.34 243.19 571.29 242.01 571.3 240.91 571.38 239.9 571.53 238.98 571.73 238.14 571.73 238.14 571.99 237.36 572.3 236.6 572.65 235.86 573.06 235.14 573.51 234.45 574.01 233.77 574.55 233.12 575.15 232.49 575.15 232.49 576.07 231.62 577.05 230.81 578.09 230.04 579.19 229.33 580.35 228.67 581.57 228.06 582.85 227.5 584.18 227 586.86 234.61 586.86 234.61 585.95 234.98 585.07 235.4 584.22 235.84 583.42 236.33 582.64 236.85 581.91 237.41 581.21 238 580.54 238.63 580.54 238.63 579.99 239.22 579.49 239.82 579.03 240.45 578.62 241.09 578.26 241.76 577.96 242.45 577.7 243.15 577.48 243.87 577.48 243.87 577.33 244.6 577.23 245.33 577.19 246.04 577.21 246.75 577.29 247.46 577.43 248.16 577.63 248.85 577.89 249.53 577.89 249.53 578.36 250.55 578.89 251.56 579.47 252.54 580.1 253.51 580.79 254.45 581.53 255.38 582.33 256.28 583.18 257.17 600.3 274.29 593.3 281.29Z"
fill-rule="evenodd" fill="RGB(255,220,190)"/>
<path d="M612.65 242.41L618.71 234.58 618.71 234.58 619.68 235.2 620.67 235.7 621.68 236.09 622.71 236.36 623.75 236.53 624.82 236.58 625.9 236.51 626.99 236.34 626.99 236.34 628.11 236.04 629.23 235.63 630.37 235.09 631.51 234.43 632.67 233.66 633.85 232.76 635.03 231.74 636.23 230.59 636.23 230.59 637.38 229.4 638.4 228.23 639.29 227.09 640.06 225.98 640.71 224.9 641.22 223.86 641.61 222.84 641.87 221.85 641.87 221.85 642.03 220.9 642.09 220.02 642.07 219.18 641.95 218.41 641.75 217.69 641.45 217.03 641.06 216.42 640.59 215.87 640.59 215.87 640.1 215.45 639.57 215.12 639 214.88 638.4 214.72 637.75 214.66 637.06 214.69 636.33 214.81 635.56 215.02 635.56 215.02 634.94 215.26 634.17 215.62 633.26 216.1 632.2 216.71 630.99 217.44 629.64 218.29 628.14 219.26 626.49 220.35 626.49 220.35 624.25 221.83 622.17 223.18 620.26 224.39 618.5 225.46 616.91 226.4 615.48 227.2 614.21 227.87 613.11 228.4 613.11 228.4 612.09 228.83 611.09 229.18 610.11 229.47 609.15 229.68 608.2 229.82 607.28 229.89 606.37 229.88 605.48 229.8 605.48 229.8 604.61 229.66 603.78 229.46 602.99 229.19 602.23 228.87 601.51 228.48 600.82 228.03 600.17 227.52 599.55 226.95 599.55 226.95 599.03 226.39 598.55 225.8 598.13 225.18 597.76 224.53 597.44 223.85 597.16 223.14 596.94 222.4 596.77 221.63 596.77 221.63 596.64 220.84 596.56 220.05 596.54 219.24 596.56 218.43 596.63 217.6 596.74 216.77 596.91 215.93 597.12 215.08 597.12 215.08 597.32 214.42 597.56 213.72 597.85 213.01 598.18 212.26 598.56 211.48 598.99 210.68 599.46 209.85 599.98 208.99 599.98 208.99 600.54 208.12 601.13 207.26 601.76 206.4 602.41 205.56 603.11 204.72 603.83 203.89 604.59 203.07 605.39 202.25 605.39 202.25 606.61 201.07 607.82 199.96 609.04 198.92 610.25 197.95 611.46 197.05 612.66 196.23 613.87 195.47 615.07 194.79 615.07 194.79 616.25 194.19 617.39 193.67 618.5 193.24 619.58 192.89 620.62 192.63 621.62 192.45 622.58 192.36 623.52 192.35 623.52 192.35 624.43 192.42 625.35 192.56 626.28 192.78 627.21 193.08 628.15 193.44 629.1 193.89 630.05 194.4 631 194.99 624.88 202.64 624.88 202.64 624.13 202.17 623.35 201.79 622.55 201.5 621.73 201.31 620.88 201.2 620.02 201.18 619.14 201.26 618.23 201.42 618.23 201.42 617.31 201.68 616.37 202.04 615.42 202.5 614.46 203.07 613.48 203.74 612.49 204.51 611.48 205.38 610.46 206.36 610.46 206.36 609.31 207.54 608.29 208.68 607.39 209.78 606.62 210.82 605.98 211.82 605.46 212.77 605.07 213.67 604.8 214.53 604.8 214.53 604.64 215.34 604.55 216.09 604.54 216.79 604.61 217.45 604.76 218.05 604.98 218.6 605.29 219.1 605.67 219.54 605.67 219.54 605.95 219.79 606.25 220.01 606.56 220.2 606.9 220.35 607.26 220.46 607.64 220.55 608.04 220.6 608.46 220.61 608.46 220.61 608.91 220.6 609.38 220.55 609.87 220.45 610.38 220.32 610.91 220.15 611.46 219.93 612.03 219.68 612.63 219.39 612.63 219.39 613.04 219.15 613.61 218.81 614.34 218.36 615.21 217.81 616.24 217.16 617.43 216.4 618.76 215.54 620.25 214.58 620.25 214.58 622.43 213.17 624.45 211.88 626.32 210.71 628.02 209.67 629.57 208.75 630.95 207.95 632.18 207.28 633.25 206.73 633.25 206.73 634.24 206.27 635.21 205.88 636.17 205.57 637.12 205.31 638.06 205.13 638.99 205.02 639.9 204.97 640.81 204.99 640.81 204.99 641.69 205.09 642.56 205.27 643.4 205.53 644.21 205.87 645.01 206.29 645.77 206.8 646.52 207.38 647.24 208.05 647.24 208.05 647.89 208.77 648.48 209.55 648.98 210.37 649.42 211.26 649.78 212.19 650.06 213.18 650.27 214.23 650.41 215.33 650.41 215.33 650.46 216.46 650.43 217.62 650.3 218.8 650.08 220.01 649.76 221.23 649.36 222.48 648.86 223.75 648.28 225.04 648.28 225.04 647.61 226.33 646.87 227.62 646.05 228.9 645.16 230.17 644.2 231.42 643.16 232.67 642.05 233.91 640.86 235.13 640.86 235.13 638.86 237.05 636.89 238.77 634.97 240.29 633.08 241.6 631.22 242.71 629.41 243.62 627.63 244.32 625.89 244.82 625.89 244.82 624.18 245.13 622.48 245.27 620.8 245.23 619.14 245.02 617.49 244.63 615.86 244.06 614.25 243.32 612.65 242.41 612.65 242.41Z"
fill-rule="evenodd" fill="RGB(255,220,190)"/>
<path d="M628.83 167.99L622.47 161.64 629.47 154.64 635.83 160.99 628.83 167.99Z
M667.71 206.88L634.94 174.11 641.94 167.11 674.71 199.87 667.71 206.88Z"
fill-rule="evenodd" fill="RGB(255,220,190)"/>
<path d="M671.74 170.08L671.74 170.08 669.64 167.78 667.89 165.43 666.49 163.03 665.44 160.57 664.73 158.06 664.37 155.5 664.36 152.88 664.69 150.22 664.69 150.22 665.22 147.99 665.93 145.8 666.82 143.66 667.91 141.55 669.18 139.49 670.64 137.46 672.28 135.48 674.11 133.53 674.11 133.53 676.27 131.51 678.47 129.72 680.71 128.17 682.99 126.86 685.31 125.78 687.67 124.94 690.08 124.33 692.52 123.96 692.52 123.96 694.95 123.84 697.32 124 699.62 124.44 701.85 125.15 704.03 126.13 706.14 127.39 708.18 128.93 710.16 130.74 710.16 130.74 711.66 132.31 713 133.87 714.18 135.43 715.2 136.97 716.06 138.51 716.76 140.04 717.3 141.56 717.69 143.07 717.69 143.07 717.93 144.58 718.06 146.12 718.06 147.66 717.95 149.23 717.72 150.82 717.37 152.42 716.9 154.04 716.31 155.68 716.31 155.68 715.62 157.31 714.84 158.91 713.97 160.46 713.01 161.99 711.96 163.47 710.83 164.92 709.6 166.33 708.29 167.71 708.29 167.71 706.09 169.77 703.86 171.58 701.6 173.15 699.31 174.49 696.98 175.58 694.62 176.42 692.22 177.03 689.8 177.39 689.8 177.39 687.38 177.49 685 177.3 682.68 176.82 680.39 176.05 678.16 174.99 675.97 173.64 673.83 172.01 671.74 170.08 671.74 170.08Z
M678.96 162.83L678.96 162.83 680.53 164.29 682.12 165.55 683.71 166.6 685.31 167.45 686.93 168.08 688.55 168.51 690.18 168.73 691.83 168.75 691.83 168.75 693.46 168.58 695.05 168.26 696.59 167.79 698.1 167.16 699.56 166.38 700.98 165.45 702.36 164.36 703.7 163.12 703.7 163.12 704.93 161.79 706.01 160.42 706.94 159 707.71 157.54 708.33 156.04 708.8 154.49 709.11 152.9 709.27 151.27 709.27 151.27 709.25 149.62 709.02 147.98 708.58 146.34 707.92 144.71 707.06 143.08 705.98 141.46 704.69 139.84 703.19 138.23 703.19 138.23 701.66 136.82 700.12 135.61 698.56 134.59 696.99 133.78 695.4 133.17 693.79 132.76 692.16 132.56 690.51 132.55 690.51 132.55 688.88 132.72 687.29 133.04 685.75 133.51 684.25 134.13 682.8 134.9 681.39 135.82 680.02 136.9 678.7 138.12 678.7 138.12 677.46 139.46 676.37 140.84 675.43 142.26 674.65 143.72 674.02 145.22 673.55 146.76 673.22 148.35 673.06 149.97 673.06 149.97 673.07 151.61 673.29 153.25 673.71 154.87 674.35 156.48 675.19 158.08 676.24 159.67 677.49 161.26 678.96 162.83 678.96 162.83Z"
fill-rule="evenodd" fill="RGB(255,220,190)"/>
<path d="M737.89 136.7L705.12 103.93 711.42 97.64 716.07 102.3 716.07 102.3 716.02 99.83 716.26 97.41 716.8 95.03 717.63 92.69 718.76 90.39 720.18 88.14 721.89 85.92 723.9 83.74 723.9 83.74 724.84 82.83 725.8 81.97 726.77 81.17 727.76 80.41 728.76 79.71 729.78 79.06 730.81 78.46 731.85 77.92 731.85 77.92 732.89 77.43 733.89 77.02 734.87 76.68 735.82 76.4 736.75 76.2 737.64 76.06 738.5 76 739.34 76.01 739.34 76.01 740.16 76.07 740.97 76.19 741.76 76.35 742.55 76.57 743.34 76.83 744.11 77.14 744.87 77.51 745.62 77.92 745.62 77.92 746.14 78.25 746.71 78.66 747.34 79.16 748.04 79.75 748.79 80.41 749.6 81.17 750.48 82 751.41 82.92 771.53 103.05 764.53 110.05 744.64 90.15 744.64 90.15 743.8 89.34 743 88.61 742.22 87.96 741.47 87.39 740.75 86.9 740.05 86.49 739.39 86.16 738.75 85.9 738.75 85.9 738.11 85.72 737.46 85.6 736.79 85.53 736.1 85.53 735.39 85.59 734.67 85.71 733.92 85.89 733.16 86.13 733.16 86.13 732.39 86.43 731.63 86.79 730.88 87.19 730.14 87.65 729.4 88.17 728.68 88.74 727.96 89.36 727.25 90.03 727.25 90.03 726.19 91.17 725.23 92.34 724.37 93.55 723.63 94.78 723 96.05 722.47 97.35 722.06 98.67 721.75 100.04 721.75 100.04 721.61 101.43 721.7 102.84 722.02 104.28 722.56 105.74 723.33 107.23 724.33 108.74 725.56 110.27 727.02 111.83 744.89 129.7 737.89 136.7Z"
fill-rule="evenodd" fill="RGB(255,220,190)"/>
</g>
<g><path d="M79.18 256.27L87.16 256.27"
fill="none" stroke="black" stroke-width=".5"/>
</g>
<g><path d="M294.58 359.98L220.71 392.95"
fill="none" stroke="black" stroke-width=".5"/>
</g>
<g><path d="M220.71 392.95L179.78 338"
fill="none" stroke="black" stroke-width=".5"/>
</g>
<g><path d="M179.78 338L206.31 267.57"
fill="none" stroke="black" stroke-width=".5"/>
</g>
<g><path d="M206.31 267.57L286.6 280.21"
fill="none" stroke="black" stroke-width=".5"/>
</g>
<g><path d="M355.24 264.47L403.66 254.13"
fill="none" stroke="black" stroke-width=".5"/>
</g>
<g><path d="M403.66 254.13L444.73 286.21"
fill="none" stroke="black" stroke-width=".5"/>
</g>
<g><path d="M444.73 286.21L449.85 340.36"
fill="none" stroke="black" stroke-width=".5"/>
</g>
<g><path d="M449.85 340.36L421.16 387.08"
fill="none" stroke="black" stroke-width=".5"/>
</g>
<g><path d="M421.16 387.08L371.05 397.22"
fill="none" stroke="black" stroke-width=".5"/>
</g>
<g><path d="M371.05 397.22L335.55 361.77"
fill="none" stroke="black" stroke-width=".5"/>
</g>
<g><path d="M335.55 361.77L334.43 306.03"
fill="none" stroke="black" stroke-width=".5"/>
</g>
<g><path d="M334.43 306.03L355.24 264.47"
fill="none" stroke="black" stroke-width=".5"/>
</g>
<g><path d="M494.02 375.94L544.1 390.17"
fill="none" stroke="black" stroke-width=".5"/>
</g>
<g><path d="M544.1 390.17L567.8 363.51"
fill="none" stroke="black" stroke-width=".5"/>
</g>
<g><path d="M567.8 363.51L550.37 324.25"
fill="none" stroke="black" stroke-width=".5"/>
</g>
<g><path d="M550.37 324.25L509.98 312.12"
fill="none" stroke="black" stroke-width=".5"/>
</g>
<g><path d="M509.98 312.12L508.73 286.03"
fill="none" stroke="black" stroke-width=".5"/>
</g>
<g><path d="M508.73 286.03L518.12 265.85"
fill="none" stroke="black" stroke-width=".5"/>
</g>
<g><path d="M518.12 265.85L537.75 259.01"
fill="none" stroke="black" stroke-width=".5"/>
</g>
<g><path d="M537.75 259.01L565.82 256.27"
fill="none" stroke="black" stroke-width=".5"/>
</g>
<g><path d="M613.69 256.27L685.49 264.25"
fill="none" stroke="black" stroke-width=".5"/>
</g>
<g><path d="M685.49 264.25L670.73 294.84"
fill="none" stroke="black" stroke-width=".5"/>
</g>
<g><path d="M670.73 294.84L655.7 331.51"
fill="none" stroke="black" stroke-width=".5"/>
</g>
<g><path d="M655.7 331.51L645.91 363.78"
fill="none" stroke="black" stroke-width=".5"/>
</g>
<g><path d="M645.91 363.78L637.62 399.87"
fill="none" stroke="black" stroke-width=".5"/>
</g>
<g><path d="M733.35 375.94L783.43 390.17"
fill="none" stroke="black" stroke-width=".5"/>
</g>
<g><path d="M783.43 390.17L807.13 363.51"
fill="none" stroke="black" stroke-width=".5"/>
</g>
<g><path d="M807.13 363.51L789.7 324.25"
fill="none" stroke="black" stroke-width=".5"/>
</g>
<g><path d="M789.7 324.25L749.31 312.12"
fill="none" stroke="black" stroke-width=".5"/>
</g>
<g><path d="M749.31 312.12L748.07 286.03"
fill="none" stroke="black" stroke-width=".5"/>
</g>
<g><path d="M748.07 286.03L757.45 265.85"
fill="none" stroke="black" stroke-width=".5"/>
</g>
<g><path d="M757.45 265.85L777.08 259.01"
fill="none" stroke="black" stroke-width=".5"/>
</g>
<g><path d="M777.08 259.01L805.15 256.27"
fill="none" stroke="black" stroke-width=".5"/>
</g>
<g><path d="M853.02 256.27L924.82 264.25"
fill="none" stroke="black" stroke-width=".5"/>
</g>
<g><path d="M924.82 264.25L910.06 294.84"
fill="none" stroke="black" stroke-width=".5"/>
</g>
<g><path d="M910.06 294.84L895.04 331.51"
fill="none" stroke="black" stroke-width=".5"/>
</g>
<g><path d="M895.04 331.51L885.24 363.78"
fill="none" stroke="black" stroke-width=".5"/>
</g>
<g><path d="M885.24 363.78L876.95 399.87"
fill="none" stroke="black" stroke-width=".5"/>
</g>
<g><path d="M79.18 375.94L95.14 375.94"
fill="none" stroke="black" stroke-width=".5"/>
</g>
</g>
</svg>
