<svg xmlns="http://www.w3.org/2000/svg" xmlns:xlink="http://www.w3.org/1999/xlink" version="1.1" x="0px" y="0px" width="277.494px" height="65.131px" viewBox="0 0 277.494 65.131" enable-background="new 0 0 277.494 65.131" xml:space="preserve"><style>.style0{fill:	#00355F;}.style1{fill:	#FFC60B;}</style><g><path d="M110.332 50.979h-7.139c-0.031 0-0.053-0.01-0.07-0.031l-6.153-7.506l-6.155 7.5 c-0.018 0.021-0.043 0.031-0.07 0.031h-5.715c-0.039 0-0.068-0.018-0.086-0.053c-0.016-0.025-0.011-0.064 0.014-0.092l9.062-11.125 l-8.963-11.025c-0.021-0.033-0.021-0.068-0.01-0.1c0.014-0.025 0.049-0.055 0.078-0.055h7.141c0.023 0 0.1 0 0.1 0 l5.396 6.688l5.492-6.691c0.018-0.023 0.045-0.039 0.072-0.039h5.82c0.034 0 0.1 0 0.1 0.1 c0.012 0 0 0.07-0.015 0.1l-8.501 10.209l9.717 11.941c0.023 0 0 0.1 0 0.1 C110.395 51 110.4 51 110.3 50.979L110.332 50.979z" class="style0"/><path d="M159.348 41.163c-0.014 0.021-0.043 0.039-0.079 0.039h-16.337c0.334 3.8 2.8 6 6.8 6 c2.463 0 5.075-0.84 8.773-2.805c0.061-0.035 0.1 0 0.1 0.092l-0.011 5.02c-0.007 0.045-0.023 0.07-0.053 0.1 c-3.437 1.453-6.893 2.436-9.602 2.436l0 0c-7.037 0-12.141-5.123-12.141-12.186c0-7.057 5.104-12.188 12.141-12.188 c6.42 0 10.5 4.3 10.5 10.268C159.527 38.8 159.4 41.1 159.3 41.163z M148.984 32.5 c-3.158 0-5.324 1.916-5.943 5.26h10.764v-0.219C153.805 34.9 151.8 32.5 149 32.483L148.984 32.483z" class="style0"/><path d="M189.611 50.979c-0.057 0-0.095-0.035-0.095-0.092V28.62c0-0.043 0.03-0.078 0.075-0.086h5.904 c0.043 0 0.1 0 0.1 0.086v22.268c0 0.057-0.037 0.092-0.088 0.092H189.611z M192.551 23.9 c-2.006 0-3.637-1.609-3.637-3.582c0-2.029 1.631-3.682 3.637-3.682s3.631 1.7 3.6 3.7 C196.182 22.3 194.6 23.9 192.6 23.899L192.551 23.899z" class="style0"/><path d="M122.733 27.624c-1.664 0-3.341 0.299-5.106 0.906h-5.876c-0.047 0-0.085 0.043-0.085 0.09v36.512 c1.777-0.238 3.941-0.873 6.066-2.377l-0.006-11.104c1.445 0.2 2.6 0.3 3.8 0.34c8.047 0 13.254-4.82 13.254-12.281 C134.775 32.6 129.8 27.6 122.7 27.624z M121.135 47.627c-1.07 0-2.158-0.15-3.408-0.484l0.01-14.287 c1.465-0.469 2.744-0.686 4.006-0.686c4.09 0 6.8 3 6.8 7.504C128.58 44.5 125.7 47.6 121.1 47.627z" class="style0"/><path d="M178.863 16.745v11.654c-1.723-0.498-3.24-0.725-4.771-0.725c-7.002 0-12.285 5.277-12.285 12.3 c0 7 4.7 12 11.1 12.027c2.219 0 4.306-0.555 6.75-1.814l-0.008 2.016c1.615-0.312 3.469-0.957 5.301-2.254V14.36 C183.129 14.6 181 15.2 178.9 16.745z M178.863 45.78c-1.84 0.963-3.479 1.422-5.025 1.4 c-3.645 0-5.826-2.574-5.826-6.885c0-4.982 2.787-8.211 7.098-8.211c1.189 0 2.4 0.3 3.8 0.924V45.78z" class="style0"/><path d="M222.086 28.264c0-0.139-0.121-0.252-0.258-0.252l-4.768 0.01c-0.145 0-0.258 0.117-0.258 0.256v0.811 h-0.119c-2.201-0.963-4.086-1.414-5.934-1.414c-6.602 0-11.777 5.477-11.777 12.486c0 7.1 4.6 11.8 11.5 11.8 c1.84 0 4.207-0.123 6.416-2.672v2.867c1.564-0.332 3.41-0.996 5.164-2.258L222.086 28.264z M216.016 45.7 c-1.779 1.029-3.305 1.525-4.667 1.525c-3.901 0-6.235-2.57-6.235-6.893c0-4.91 2.75-8.211 6.844-8.211 c1.102 0 2.4 0.4 4.1 1.285V45.731z" class="style0"/><path d="M68.713 45.333l14.786-0.002c-0.222 1.65-0.78 3.588-2.063 5.557H68.746h-2.521c-0.058 0-0.107 0-0.173 0 c-1.88 0-3.431-1.457-3.614-3.305c-0.006-0.025-0.02-0.051-0.023-0.072V32.362V18.348c0.004-0.021 0.018-0.047 0.023-0.07 c0.184-1.85 1.734-3.312 3.614-3.312c0.065 0 0.1 0 0.2 0.01l17.243-0.004c-0.224 1.65-0.784 3.633-2.063 5.598H68.713 v7.934h12.562c0.051 0 0.1 0 0.1 0.088v5.506c0 0.043-0.039 0.086-0.09 0.086H68.713v11.148V45.333z" class="style0"/><path d="M227.977 45.327c1.826 0 3.2 1.4 3.2 3.238c0 1.77-1.475 3.189-3.242 3.2 c-1.721 0-3.191-1.467-3.191-3.189C224.785 46.8 226.3 45.3 228 45.327z" class="style0"/><g><path d="M234.139 50.979V28.704h5.465v3.744c2.43-2.928 5.266-4.35 8.652-4.35c5.012 0 7.7 2.7 7.7 7.9 v14.932h-5.865V37.307c0-2.732-1.364-4.146-3.998-4.146c-3.747 0-6.072 1.773-6.072 5.367v12.451H234.139z" class="style0"/><path d="M266.552 14.526c-1.767 0.236-3.858 0.832-5.969 2.322h-0.011v0.006c0 0.008-0.004 0.008-0.004 0 s0 1.9 0 4.141v29.977h5.969V34.471c0 0 0 0 0 0.004V14.526z" class="style0"/><g><path d="M271.771 17.163h-1.336v3.682h-0.848v-3.682h-1.337v-0.689h3.521V17.163z M275.088 19.569l1.188-3.096 h1.219v4.371h-0.793v-3.418h-0.021l-1.307 3.418h-0.592l-1.303-3.418h-0.021v3.418h-0.795v-4.371h1.229L275.088 19.569z" class="style0"/></g></g></g><g><g><path d="M50.367 46.038c-1.5 0-2.785 1.129-2.785 2.834c0 1.6 1.2 2.8 2.8 2.8 c1.482 0 2.769-1.123 2.769-2.825C53.136 47.2 51.8 46 50.4 46.038z M50.367 51.419c-1.466 0-2.373-1.146-2.373-2.547 c0-1.501 1.039-2.548 2.373-2.548c1.32 0 2.4 1 2.4 2.548C52.723 50.4 51.7 51.4 50.4 51.419z" class="style0"/><path d="M51.682 48.156c0-0.678-0.416-0.963-1.222-0.963h-1.271v3.35h0.552V49.11h0.515l0.868 1.433h0.622 l-0.938-1.47C51.311 49 51.7 48.8 51.7 48.156z M49.701 48.638v-1.031h0.697c0.353 0 0.8 0.1 0.8 0.5 c0 0.512-0.385 0.552-0.822 0.552H49.701z" class="style0"/></g><g><path d="M31.236 20.511l-1.075-3.044l-9.123-12.19l1.638-0.408l15.73 13.596l9.255-2.649 c1.087-0.278 2.32-0.34 3.263-0.333c-2.909-6.274-8.232-11.424-15.26-13.927C21.771-3.396 6.5 3.9 1.6 17.8 c-1.53 4.302-1.89 8.735-1.249 12.955l22.171-7.701L31.236 20.511z" class="style0"/><path d="M51.899 17.885c-0.814 0.525-2.006 1.221-3.193 1.599l-9.276 2.649L33.242 42l-1.607 0.522l1.31-15.173 l-0.731-3.152l-8.69 2.482L0.546 32.088c1.822 8.8 8.1 16.5 17.2 19.791c13.896 5 29.165-2.309 34.109-16.199 C53.989 29.7 53.9 23.4 51.9 17.885z" class="style0"/><path d="M32.213 24.197l0.731 3.152l-1.31 15.173L33.242 42l6.188-19.867l9.276-2.649 c1.187-0.378 2.378-1.074 3.193-1.599c-0.287-0.816-0.612-1.618-0.975-2.402c-0.942-0.007-2.176 0.055-3.263 0.333l-9.255 2.6 L22.676 4.869l-1.638 0.408l9.123 12.19l1.075 3.044l-8.762 2.505L0.303 30.716c0.07 0.5 0.1 0.9 0.2 1.372l22.976-5.409 L32.213 24.197z" class="style1"/></g></g></svg>