<svg xmlns="http://www.w3.org/2000/svg" xmlns:xlink="http://www.w3.org/1999/xlink" version="1.1" x="0px" y="0px" width="152.881px" height="36.656px" viewBox="0 0 152.881 36.656" enable-background="new 0 0 152.881 36.656" xml:space="preserve"><style>.style0{fill:	none;}.style1{fill:	#00355F;}.style2{fill:	#FFC60B;}</style><g><rect x="-12.5" y="-12.6" width="214" height="62" class="style0"/><g><g><path d="M56.851 21.878l4.79-5.75c0.014-0.018 0.016-0.039 0.008-0.059c-0.008-0.011-0.027-0.029-0.047-0.029 h-3.279c-0.015 0-0.029 0.007-0.04 0.021L55.19 19.83l-3.041-3.767c-0.008-0.015-0.026-0.023-0.038-0.023h-4.022 c-0.018 0-0.037 0.017-0.045 0.029c-0.008 0.02-0.008 0 0 0.059l5.047 6.208l-5.104 6.3 c-0.013 0.017-0.015 0.037-0.007 0.051c0.011 0 0 0 0 0.031h3.22c0.017 0 0.031-0.004 0.04-0.019l3.468-4.229 l3.466 4.229c0.01 0 0 0 0 0.019h4.021c0.017 0 0.035-0.011 0.041-0.03c0.01-0.014 0.006-0.035-0.006-0.051 L56.851 21.878z" class="style1"/><path d="M84.058 15.526c-3.963 0-6.838 2.887-6.838 6.864c0 4 2.9 6.9 6.8 6.9 c1.526 0 3.471-0.555 5.409-1.371c0.015-0.006 0.027-0.02 0.029-0.043l0.006-2.83c0-0.038-0.041-0.071-0.076-0.049 c-2.081 1.105-3.554 1.578-4.942 1.578c-2.252 0-3.646-1.22-3.836-3.361h9.205c0.018 0 0.035-0.012 0.045-0.024 c0.004-0.041 0.1-1.301 0.099-1.842C89.996 18 87.7 15.5 84.1 15.526z M86.772 21.227h-6.061 c0.348-1.878 1.566-2.958 3.346-2.958c1.607 0 2.7 1.3 2.7 2.837V21.227z" class="style1"/><path d="M106.931 16.04c-0.021 0.007-0.039 0.027-0.039 0.052v12.541c0 0 0 0.1 0.1 0.052h3.306 c0.028 0 0.049-0.021 0.049-0.052V16.092c0-0.026-0.017-0.045-0.041-0.052H106.931z" class="style1"/><path d="M108.599 9.341c-1.131 0-2.049 0.928-2.049 2.074c0 1.1 0.9 2 2 2 c1.127 0 2.047-0.905 2.047-2.016C110.646 10.3 109.7 9.3 108.6 9.341z" class="style1"/><path d="M69.272 15.528c-0.936 0-1.885 0.17-2.877 0.512h-3.308c-0.029 0-0.047 0.023-0.047 0.053v20.563 c0.998-0.137 2.221-0.49 3.412-1.339l-0.002-6.254c0.816 0.1 1.5 0.2 2.1 0.19c4.529 0 7.463-2.715 7.463-6.918 C76.054 18.3 73.3 15.5 69.3 15.528z M68.37 26.796c-0.6 0-1.213-0.086-1.92-0.272l0.008-8.046 c0.826-0.262 1.545-0.387 2.256-0.387c2.305 0 3.9 1.7 3.9 4.224C72.565 25 70.9 26.8 68.4 26.796z" class="style1"/><path d="M100.89 15.965c-0.971-0.277-1.826-0.406-2.688-0.406c-3.943 0-6.921 2.973-6.921 6.9 c0 3.9 2.6 6.8 6.2 6.776c1.25 0 2.424-0.314 3.801-1.022l-0.004 1.134c0.908-0.174 1.955-0.537 2.984-1.268V8.06 c-1.01 0.134-2.211 0.472-3.412 1.341V15.965z M100.89 25.753c-1.037 0.543-1.961 0.803-2.832 0.8 c-2.053 0-3.281-1.449-3.281-3.879c0-2.809 1.57-4.625 3.998-4.625c0.67 0 1.3 0.2 2.1 0.523V25.753z" class="style1"/><path d="M125.09 15.749l-2.687 0.006c-0.079 0-0.147 0.066-0.147 0.143v0.457h-0.065 c-1.24-0.543-2.301-0.795-3.342-0.795c-3.718 0-6.634 3.084-6.634 7.031c0 4 2.6 6.7 6.5 6.7 c1.037 0 2.369-0.07 3.612-1.504v1.613c0.882-0.188 1.923-0.562 2.908-1.271l0.006-12.203 C125.233 15.8 125.2 15.7 125.1 15.749z M119.188 26.585c-2.197 0-3.515-1.445-3.515-3.881 c0-2.768 1.552-4.625 3.854-4.625c0.619 0 1.4 0.2 2.3 0.722v6.927h0.002C120.815 26.3 120 26.6 119.2 26.585z" class="style1"/><path d="M38.847 19.225h7.074c0.032 0 0.053-0.022 0.053-0.05v-3.1c0-0.028-0.022-0.049-0.053-0.049h-7.074 v-4.471h7.147c0.723-1.107 1.036-2.223 1.163-3.152l-9.714 0.002c-0.03 0-0.061-0.004-0.095-0.004 c-1.059 0-1.933 0.824-2.037 1.865c-0.004 0.01-0.011 0.027-0.013 0.04v7.893v8.528c0.002 0 0 0 0 0 c0.104 1 1 1.9 2 1.86c0.034 0 0.066-0.002 0.095-0.002l1.422 0.002h7.146c0.723-1.11 1.038-2.2 1.162-3.131 l-8.326 0.002V19.225z" class="style1"/><polygon points="148.7,15.3 148.7,15.7 149.3,15.7 149.3,17.3 149.7,17.3 149.7,15.7 150.3,15.7 150.3,15.3" class="style1"/><polygon points="152.3,15.3 151.8,16.7 151.3,15.3 150.7,15.3 150.7,17.3 151.1,17.3 151.1,15.8 151.1,15.8 151.7,17.3 151.9,17.3 152.5,15.8 152.5,15.8 152.5,17.3 152.9,17.3 152.9,15.3" class="style1"/><path d="M129.396 25.335c-0.97 0-1.797 0.826-1.797 1.822c0 1 0.8 1.8 1.8 1.8 c0.996 0 1.824-0.8 1.824-1.795C131.22 26.1 130.4 25.3 129.4 25.335z" class="style1"/><path d="M133.478 16.04c-0.021 0.008-0.039 0.028-0.039 0.053v12.565c0 0 0 0.1 0.1 0.053h3.306 c0.028 0 0.049-0.02 0.049-0.053V16.093c0-0.026-0.016-0.045-0.041-0.053H133.478z" class="style1"/><path d="M135.147 9.341c-1.131 0-2.049 0.929-2.049 2.075c0 1.1 0.9 2 2 2 c1.127 0 2.047-0.905 2.047-2.016C137.194 10.3 136.3 9.3 135.1 9.341z" class="style1"/><path d="M144.14 11.64l-3.365 0.601v3.757h-1.991v2.766h1.991V23.3c0 2 0.1 3.4 1.2 4.4 c1.012 0.9 2.4 1.2 3.4 1.39l1.381-2c-1.856-0.716-2.623-1.009-2.623-3.44v-4.896h3.478v-2.766h-3.478V11.64z" class="style1"/><path d="M28.428 25.984c-0.847 0-1.572 0.637-1.572 1.6c0 0.9 0.7 1.6 1.6 1.6 c0.836 0 1.562-0.635 1.562-1.596C29.99 26.6 29.3 26 28.4 25.984z M28.428 29.02c-0.828 0-1.34-0.646-1.34-1.437 c0-0.848 0.587-1.438 1.34-1.438c0.745 0 1.3 0.6 1.3 1.438C29.757 28.4 29.2 29 28.4 29.02z" class="style1"/><path d="M29.169 27.177c0-0.381-0.234-0.543-0.689-0.543h-0.718v1.892h0.312v-0.81h0.29l0.49 0.81h0.351 l-0.529-0.829C28.96 27.7 29.2 27.5 29.2 27.177z M28.052 27.451v-0.582h0.393c0.199 0 0.4 0 0.4 0.3 c0 0.287-0.217 0.311-0.463 0.311H28.052z" class="style1"/><path d="M17.63 11.576l-0.607-1.717l-5.148-6.881l0.924-0.229l8.878 7.673L26.9 8.9 c0.613-0.157 1.309-0.192 1.841-0.188c-1.641-3.542-4.646-6.448-8.613-7.86C12.288-1.917 3.7 2.2 0.9 10 c-0.863 2.428-1.067 4.931-0.704 7.311l12.513-4.346L17.63 11.576z" class="style1"/><path d="M27.489 10.997l-5.235 1.494l-3.493 11.213L17.854 24l0.739-8.563l-0.413-1.779l-4.905 1.4L0.308 18.1 c1.029 5 4.6 9.3 9.7 11.171c7.843 2.8 16.461-1.304 19.251-9.144c1.203-3.38 1.126-6.903 0.023-10.044 C28.832 10.4 28.2 10.8 27.5 10.997z" class="style1"/></g><path d="M18.181 13.656l0.413 1.779L17.854 24l0.907-0.295l3.493-11.212l5.235-1.494 c0.671-0.215 1.343-0.607 1.803-0.904c-0.162-0.46-0.346-0.912-0.55-1.354c-0.532-0.005-1.228 0.03-1.841 0.188l-5.224 1.5 L12.799 2.75l-0.924 0.229l5.148 6.881l0.607 1.717l-4.946 1.414L0.171 17.335c0.039 0.3 0.1 0.5 0.1 0.774l12.968-3.054 L18.181 13.656z" class="style2"/></g></g></svg>