<?xml version="1.0" encoding="utf-8"?>
<!-- Generator: Adobe Illustrator 16.0.4, SVG Export Plug-In . SVG Version: 6.00 Build 0)  -->
<!DOCTYPE svg PUBLIC "-//W3C//DTD SVG 1.1//EN" "http://www.w3.org/Graphics/SVG/1.1/DTD/svg11.dtd">
<svg version="1.1" id="Layer_1" xmlns="http://www.w3.org/2000/svg" xmlns:xlink="http://www.w3.org/1999/xlink" x="0px" y="0px"
	 width="476.344px" height="158.064px" viewBox="0 0 476.344 158.064" enable-background="new 0 0 476.344 158.064"
	 xml:space="preserve">
<g>
	<g>
		<g>
			<g>
				<g>
					<path fill="#004A80" d="M152.709,96.345h6.221v7.373h0.152c2.992-5.081,6.213-7.95,12.653-7.95v5.162
						c-3.365,0.064-5.855,1.24-7.971,3.188c-2.558,2.361-4.788,6.477-4.834,10.144v19.322h-6.221V96.345z"/>
					<path fill="#004A80" d="M176.994,103.505c2.468-4.301,8.094-7.875,15.434-7.875c6.594,0,14.319,3.007,14.319,11.168v18.767
						c0,4.08,0.375,6.086,0.901,8.019h-6.38l-0.595-5.159c-2.701,2.862-7.05,5.868-12.885,5.868
						c-5.996,0-11.926-3.431-11.926-10.234c0-8.17,7.354-12.25,24.658-15.181v-1.995c0-4.952-3.368-6.819-8.021-6.819
						c-5.986,0-8.912,3.299-9.962,5.806L176.994,103.505z M200.521,113.461c-12.357,2.074-18.432,5.512-18.432,10.668
						c0,3.438,3.45,5.726,6.449,5.726c3.891,0,8.834-2.709,11.983-6.157V113.461z"/>
					<path fill="#004A80" d="M231.703,133.583h-8.026l-11.984-37.238h6.303l9.888,30.801h0.149l9.886-30.801h5.476L231.703,133.583z
						"/>
					<path fill="#004A80" d="M295.126,80.85v52.733h-6.293V83.514L295.126,80.85z"/>
					<path fill="#004A80" d="M319.282,134.292c-10.64,0-16.794-8.59-16.794-19.33c0-10.742,6.154-19.332,16.794-19.332
						c10.639,0,16.791,8.59,16.791,19.332C336.073,125.702,329.92,134.292,319.282,134.292z M319.282,100.062
						c-6.445,0-10.563,5.31-10.563,14.899c0,9.6,4.118,14.893,10.563,14.893c6.444,0,10.558-5.293,10.558-14.893
						C329.839,105.372,325.726,100.062,319.282,100.062z"/>
					<path fill="#004A80" d="M367.095,107.441c-1.494-4.51-4.568-7.379-9.206-7.379c-6.67,0-10.57,5.449-10.57,14.899
						c0,9.454,3.9,14.893,10.57,14.893c4.938,0,7.712-1.569,10.703-6.868l5.185,1.854c-3.901,6.307-8.176,9.452-15.888,9.452
						c-9.745,0-16.792-7.294-16.792-19.33c0-12.03,7.047-19.332,16.792-19.332c8.013,0,12.59,4.295,15.062,10.095L367.095,107.441z"
						/>
					<path fill="#004A80" d="M380.327,96.345h6.225v37.238h-6.225V96.345z"/>
					<g>
						<path fill="#004A80" d="M138.705,129.854c-3.146,0-4.421-0.858-4.421-2.569v-26.498h7.791l1.198-4.442h-8.989V83.072
							l-6.231,2.661v10.611h-5.729v4.442h5.729v27.354c0.634,4.725,3.312,6.15,9.146,6.15c2.542,0,4.043-0.18,5.818-0.517
							l1.186-4.379C142.028,129.725,140.478,129.854,138.705,129.854z"/>
					</g>
					<path fill="#004A80" d="M453.716,96.345l-13.711,40.532c-3.054,8.305-8.98,10.653-14.075,10.653
						c-1.8,0-4.057-0.289-5.104-0.429l1.333-4.429c0.754,0.066,1.73,0.214,2.921,0.214c3.293,0,8.316-0.711,10.195-8.875
						l-13.565-37.667h5.692l10.487,28.428h0.154l9.139-28.428H453.716z"/>
				</g>
				<g>
					<path fill="#004A80" d="M411.489,129.854c-3.146,0-4.418-0.858-4.418-2.569v-26.498h7.796l1.2-4.442h-8.996V83.072
						l-6.229,2.661v10.611h-5.728v4.442h5.728v27.354c0.64,4.725,3.311,6.15,9.153,6.15c2.533,0,4.037-0.18,5.809-0.517l1.188-4.379
						C414.813,129.725,413.263,129.854,411.489,129.854z"/>
				</g>
			</g>
			<path fill="#004A80" d="M276.178,123.746c-2.253,3.75-5.945,6.108-10.666,6.108c-6.437,0-11.529-5.726-11.529-13.891h26.154
				v-3.432c0-11.896-7.575-16.902-15.675-16.902c-9.583,0-16.708,7.302-16.708,19.332c0,13.605,9.074,19.33,17.758,19.33
				c7.439,0,10.009-0.652,14.562-6.796L276.178,123.746z M264.62,100.062c5.844,0,9.287,4.585,9.287,11.459h-19.777
				C254.583,104.647,258.104,100.062,264.62,100.062z"/>
		</g>
		<rect x="380.327" y="83.766" fill="#004A80" width="6.225" height="6.168"/>
	</g>
	<path fill="#F58025" d="M20.818,78.695c0.926-0.389,1.883-0.49,2.834-0.812c-1.447-1.56-3.062-2.993-4.312-4.837
		c-0.382-0.504-0.189-0.777,0.122-0.882c0.295,0.037,0.084-0.599,0.273-0.876c0.635-0.207,0.572-0.825,0.93-1.229
		c0.021-0.15-0.065-0.609,0.103-0.735c0.162-0.136,0.486-0.24,0.761-0.047c1.172,1.372,2.543,2.317,3.923,3.272
		c1.66,1.133,3.349,1.968,4.817,3.386c0.144,0.027,0.568,0.236,0.61-0.062c0.209-1.482,0.694-2.776,1.323-4.049
		c0.212-0.419,0.296-1.021,0.65-1.416c0.425-0.854,1.414-1.469,2.242-1.957c1.308-0.727,2.881-0.051,3.782-1.136
		c0.341-0.252,0.909-0.019,1.209,0.025c0.848,0.417,2.092,0.144,2.749,0.833c-1.115,2.565-1.191,5.271-2.023,8.026
		c-0.085,0.597-0.505,1.443-0.085,1.648c1.292,0.49,4.702-0.091,4.868-0.223c1.824-0.046,3.466,0.035,5.225,0.438
		c1.315,0.329,2.292,0.916,3.373,1.824c1.911,1.479,1.858,4.035,1.696,6.273c-0.023,0.154-0.888,0.939-1.187,0.898
		c-0.145-0.023-0.215-0.633-0.366-0.658c-0.668,0.518-2.069,1.828-2.528,1.918c-0.156-0.021-1.085-0.909-1.506-1.116
		c-1.523-0.967-3.222-0.756-4.913-0.536c-1.99,0.176-3.913-0.104-5.841,0.693c0.723,1.312,1.992,1.936,3.064,2.987
		c1.712,1.757,3.491,3.061,5.38,4.69c1.187,1.22,2.421,2.154,3.13,3.612c-0.488,0.23-0.046,0.471-0.235,0.746
		c-0.312,0.108-0.278-0.362-0.575-0.408c-0.292-0.043-0.5,0.377-0.401,0.697c0.126,0.168-0.278,0.947-0.594,1.048
		c-0.172,0.13-0.866,0.575-1.136,0.525c-0.147-0.025-1.075-0.399-0.979-0.285c0.339,0.374,0.575,1.05,0.491,1.174
		c-0.745-0.11-1.119-0.203-1.649-0.732c-2.44-2.003-4.56-4.11-7.132-6.29c-0.926-0.888-1.525-2.026-2.627-2.784
		c-1.768,3.979-2.987,6.853-4.758,10.838c-0.421,0.693-0.646,2.543-1.035,2.771c-0.249,0.138-1.354-1.348-1.881-2.437
		c-0.027-2.353,0.223-3.298,0.434-5.839l0.058-0.446c0.164-3.303,1.166-6.18,1.029-9.527c0.042-0.295-0.406-0.358-0.848-0.421
		c-4.467-0.477-8.784-0.922-13.228-1.55c-1.037-0.141-2.095-0.141-3.098-0.579c-0.126-0.168-0.698-0.398-0.841-0.42
		c-0.13-0.169-0.13-0.169-0.273-0.194c1.741-1.716,3.328-3.49,5.733-4.593C18.212,79.66,20.015,79.042,20.818,78.695z"/>
	<path fill="#004A80" d="M62.16,101.774c-0.265-0.089-0.123-0.37-0.123-0.479c0.24-0.48,0.833-0.358,1.193-0.358
		c1.197-0.353,2.501,0.01,3.696-0.353c0.24-0.108,0.471-0.471,0.596-0.471c0.96-0.358,1.79-0.599,2.752-0.835
		c0.228-0.108,0.833-0.469,0.594-0.831c-1.073-1.069-2.142-2.146-2.613-3.458c-0.361-0.725-0.963-1.313-0.957-2.028
		c0-0.599,0.72-0.719,1.315-0.479c2.623,1.438,4.4,3.584,6.306,5.858c0.357,0.475,0.719-0.597,0.841-0.955
		c0.833-1.904,1.437-3.933,2.515-5.843c0.231-0.593,0.716-1.304,1.317-1.426c0.947-0.23,1.431-0.827,2.263-1.304
		c0.597-0.234,1.077,0,1.672-0.358c0.352-0.108,0.833,0.48,1.309,0.25c0.717-0.48,1.314-0.118,2.031,0
		c0.47,0.238,0.591,0.715,0.47,1.202c-0.72,1.657-1.085,3.441-2.154,5.111c-0.833,1.308-1.555,2.503-2.512,3.807
		c0,0.126-0.126,0.366,0.118,0.484c0.589,0.12,1.31,0,1.788,0.24c1.792,0.597,3.578,0.36,5.486,0.727
		c0.955,0.236,0.951,1.558,1.781,2.272c0.479,0.356-0.359,0.713-0.835,0.827c-1.312,0.358-2.621-0.126-3.934,0.232
		c-2.27,0.475-4.415-0.01-6.558,0.819c0.703,0.719,1.417,1.317,2.015,2.038c0.596,0.837,1.199,1.664,1.784,2.511
		c0.597,0.945,0.948,1.904,1.188,2.852c0.238,0.484,0.116,1.073,0.111,1.682c-0.233-0.126-0.233-0.608-0.473-0.723
		c-0.234,0-0.478,0.467-0.837,0.353c-0.349-0.112-0.469-0.353-0.59-0.597c-0.476-0.475-0.829-1.071-1.069-1.674
		c-0.829-1.784-2.5-2.978-4.051-4.179c-1.43,2.979-2.511,5.957-4.544,8.814c-0.121,0.236-0.475,0.236-0.839,0.236
		c-0.118-0.117-0.355,0.238-0.477,0.357c-0.114-0.236-0.351-0.357-0.473-0.475c-0.595-0.48-1.428-0.957-1.666-1.676
		c-0.355-0.715-0.589-1.309-0.589-2.029c-0.007-0.116-0.242-0.356-0.242-0.475c0.242-0.479,0.242-1.073,0.483-1.434
		c0.354-0.358,0.833-0.829,0.952-1.304c0.601-1.428,1.677-2.507,1.921-4.051c-2.865-0.484-5.847-0.258-8.582-1.325
		c-0.606-0.25-1.317-0.484-1.91-0.847C62.395,102.249,62.515,101.889,62.16,101.774z"/>
	<path fill="#57A3CC" d="M65.554,57.424c0.859-2.082,2.306-3.442,2.535-5.793c-4.718-2.529-10.462-1.052-13.905-7.034
		c-0.818-1.249,0.042-7.319,0.505-8.005c1.064-2.208,3.122-2.19,5.094-0.65c0.194-0.136,1.662,0.288,1.982,0.43
		c1.936-0.256,4.042,0.447,6.032,0.878c2.695,0.302,4.93,1.286,7.374,1.028c0.194-0.134,0.463-0.684,0.408-1.383
		c-0.589-3.592-1.443-6.646-2.352-10.383c-0.375-0.833-0.354-1.942-0.532-2.907c-0.158-2.079-1.651-5.409-0.288-6.364
		c0.193-0.138,0.446,0.416,0.64,0.283c0.387-0.273,0.652-0.829,0.975-0.687c4.647,2.941,8.494,7.536,12.541,11.994
		c1.334,1.258,1.578-2.197,2.625-3.295c0.266-0.547-0.037-1.8,0.228-2.351c0.993-1.788,1.227-4.136,2.015-5.784
		c1.577-2.203,2.465-5.374,4.858-6.327c1.608-0.401,3.397,0.172,4.859,1.698c0.316,0.144,1.031,0.014,1.471,0.429
		c1.646,1.398,3.031,3.346,4.814,5.021c0.564,0.693,0.863,1.943,0.597,2.493c-0.42,2.487-2.669,2.604-3.983,4.248
		c-2.57,3.993-5.128,7.986-7.703,11.971c-0.265,0.553-0.993,1.79-0.424,2.48c3.55,3.354,6.703,6.974,10.714,9.628
		c2.482,1.548,5.254,1.432,7.471,3.526c1.571,1.813,2.763,3.894,3.567,6.255c-9.026,5.592-19.293-3.626-28.946-3.423
		c-0.703,0.13-0.524,1.101-0.6,1.513c0.519,4.019,1.234,7.896,1.624,11.632c0.216,2.769,1.655,5.405,2.063,8.04
		c0.177,0.971,1.103,3.605-0.24,3.458c-1.55-0.018-3.534-0.451-4.528-2.668c-1.365-3.053-2.734-6.108-3.717-9.437
		c-0.176-0.971-0.547-1.8-0.206-2.772c0.079-1.513-0.863-3.049-1.355-4.155c-0.25-0.554-0.905,0.266-1.295,0.539
		c-1.312,1.648-2.623,3.299-3.812,5.225c-2.223,3.028-4.764,4.805-7.741,6.162c-2.2,0.812-5.548,1.335-7.037-1.997
		c0.707-0.136,1.308-1.65,0.859-2.071C59.289,64.003,64.088,61,65.554,57.424z"/>
	<g>
		<path fill="#004A80" d="M461.073,98.6h1.067c0.903,0,1.145,0.277,1.145,0.769c0,0.568-0.312,0.843-1.273,0.843h-0.938V98.6z
			 M461.073,100.862h0.889l1.371,2.233h0.868l-1.47-2.259c0.77-0.093,1.35-0.492,1.35-1.418c0-1.014-0.599-1.473-1.829-1.473h-1.977
			v5.149h0.798V100.862z M457.481,100.514c0,2.582,2.081,4.479,4.536,4.479c2.438,0,4.524-1.896,4.524-4.479
			c0-2.567-2.086-4.456-4.524-4.456C459.562,96.058,457.481,97.946,457.481,100.514z M465.669,100.514
			c0,2.18-1.603,3.756-3.652,3.756c-2.063,0-3.665-1.576-3.665-3.756c0-2.133,1.602-3.735,3.665-3.735
			C464.067,96.778,465.669,98.381,465.669,100.514z"/>
		<path fill="#004A80" d="M461.073,98.6h1.067c0.903,0,1.145,0.277,1.145,0.769c0,0.568-0.312,0.843-1.273,0.843h-0.938V98.6z
			 M461.073,100.862h0.889l1.371,2.233h0.868l-1.47-2.259c0.77-0.093,1.35-0.492,1.35-1.418c0-1.014-0.599-1.473-1.829-1.473h-1.977
			v5.149h0.798V100.862z M457.481,100.514c0,2.582,2.081,4.479,4.536,4.479c2.438,0,4.524-1.896,4.524-4.479
			c0-2.567-2.086-4.456-4.524-4.456C459.562,96.058,457.481,97.946,457.481,100.514z M465.669,100.514
			c0,2.18-1.603,3.756-3.652,3.756c-2.063,0-3.665-1.576-3.665-3.756c0-2.133,1.602-3.735,3.665-3.735
			C464.067,96.778,465.669,98.381,465.669,100.514z"/>
	</g>
</g>
</svg>
