<svg xmlns="http://www.w3.org/2000/svg" xmlns:xlink="http://www.w3.org/1999/xlink" version="1.1" x="0px" y="0px" width="285.903px" height="65.014px" viewBox="0 0 285.903 65.014" enable-background="new 0 0 285.903 65.014" xml:space="preserve"><style>.style0{fill:	#00355F;}.style1{fill:	#FFC60B;}</style><g><path d="M110.372 50.862h-7.137c-0.032 0-0.057-0.008-0.074-0.029l-6.148-7.506l-6.156 7.5 c-0.018 0.021-0.043 0.029-0.072 0.029h-5.717c-0.035 0-0.065-0.018-0.083-0.051c-0.017-0.027-0.011-0.066 0.011-0.092 l9.064-11.127l-8.961-11.023c-0.025-0.035-0.025-0.068-0.013-0.1c0.013-0.025 0.05-0.057 0.08-0.057h7.14 c0.025 0 0.1 0 0.1 0.043l5.398 6.689l5.492-6.693c0.016-0.021 0.038-0.039 0.069-0.039h5.821 c0.035 0 0.1 0 0.1 0.057c0.011 0 0 0.068-0.014 0.1l-8.506 10.209l9.719 11.9 c0.025 0 0 0.1 0 0.092C110.434 50.8 110.4 50.9 110.4 50.862L110.372 50.862z" class="style0"/><path d="M159.387 41.045c-0.014 0.021-0.043 0.039-0.078 0.039H142.97c0.337 3.8 2.8 6 6.8 6 c2.463 0 5.076-0.842 8.773-2.805c0.061-0.035 0.1 0 0.1 0.09l-0.012 5.021c-0.006 0.043-0.023 0.07-0.053 0.1 c-3.436 1.453-6.894 2.436-9.602 2.436l0 0c-7.035 0-12.143-5.123-12.143-12.188c0-7.057 5.107-12.186 12.143-12.186 c6.42 0 10.5 4.3 10.5 10.268C159.567 38.7 159.4 41 159.4 41.045z M149.024 32.4 c-3.159 0-5.323 1.916-5.942 5.26h10.763v-0.219C153.844 34.7 151.9 32.4 149 32.368L149.024 32.368z" class="style0"/><path d="M189.651 50.862c-0.057 0-0.094-0.035-0.094-0.09V28.504c0-0.043 0.028-0.078 0.074-0.088h5.904 c0.043 0 0.1 0 0.1 0.088v22.268c0 0.055-0.037 0.09-0.089 0.09H189.651z M192.59 23.8 c-2.006 0-3.638-1.607-3.638-3.582c0-2.029 1.632-3.68 3.638-3.68c2.004 0 3.6 1.6 3.6 3.7 C196.221 22.2 194.6 23.8 192.6 23.782L192.59 23.782z" class="style0"/><path d="M122.772 27.506c-1.664 0-3.342 0.299-5.107 0.906h-5.873c-0.049 0-0.086 0.043-0.086 0.092v36.51 c1.777-0.238 3.941-0.871 6.062-2.375l-0.003-11.105c1.443 0.2 2.6 0.3 3.8 0.342c8.047 0 13.254-4.82 13.254-12.283 C134.813 32.5 129.9 27.5 122.8 27.506z M121.172 47.51c-1.07 0-2.158-0.148-3.408-0.482l0.01-14.287 c1.465-0.469 2.744-0.686 4.006-0.686c4.088 0 6.8 3 6.8 7.504C128.617 44.4 125.7 47.5 121.2 47.51z" class="style0"/><path d="M178.903 16.627v11.656c-1.723-0.5-3.24-0.725-4.771-0.725c-7.002 0-12.285 5.277-12.285 12.3 c0 7 4.7 12 11.1 12.029c2.219 0 4.307-0.557 6.75-1.816l-0.008 2.018c1.615-0.312 3.469-0.959 5.301-2.256V14.243 C183.168 14.5 181 15.1 178.9 16.627z M178.903 45.663c-1.84 0.963-3.479 1.424-5.025 1.4 c-3.646 0-5.826-2.574-5.826-6.887c0-4.982 2.787-8.209 7.097-8.209c1.19 0 2.4 0.3 3.8 0.922V45.663z" class="style0"/><path d="M222.125 28.149c0-0.139-0.121-0.252-0.258-0.252l-4.769 0.008c-0.144 0-0.257 0.117-0.257 0.256v0.811 h-0.119c-2.204-0.961-4.086-1.412-5.934-1.412c-6.602 0-11.777 5.477-11.777 12.484c0 7.1 4.6 11.8 11.5 11.8 c1.84 0 4.207-0.125 6.415-2.672v2.865c1.565-0.33 3.411-0.994 5.164-2.256L222.125 28.149z M216.055 45.6 c-1.779 1.027-3.306 1.523-4.668 1.523c-3.903 0-6.235-2.568-6.235-6.891c0-4.912 2.751-8.211 6.845-8.211 c1.102 0 2.4 0.4 4.1 1.283V45.616z" class="style0"/><path d="M68.754 45.217l14.785-0.002c-0.225 1.648-0.783 3.588-2.064 5.557h-12.69h-2.521c-0.055 0-0.112 0-0.172 0 c-1.881 0-3.43-1.457-3.615-3.305c-0.006-0.025-0.02-0.053-0.023-0.074V32.247V18.233c0.004-0.023 0.018-0.049 0.023-0.07 c0.186-1.852 1.734-3.312 3.615-3.312c0.06 0 0.1 0 0.2 0.008l17.242-0.004c-0.227 1.652-0.781 3.635-2.064 5.598H68.754 v7.936h12.561c0.053 0 0.1 0 0.1 0.086v5.508c0 0.043-0.039 0.086-0.092 0.086H68.754v11.148V45.217z" class="style0"/><path d="M228.015 45.209c1.827 0 3.2 1.4 3.2 3.24c0 1.768-1.475 3.189-3.243 3.2 c-1.72 0-3.19-1.469-3.19-3.189C224.825 46.7 226.3 45.2 228 45.209z" class="style0"/><path d="M255.734 41.057c-0.018 0.027-0.043 0.045-0.074 0.045h-16.281c0.327 3.8 2.8 5.9 6.8 5.9 c2.463 0 5.061-0.834 8.75-2.805c0.061-0.023 0.1 0 0.1 0.094l-0.008 5.016c-0.002 0.033-0.027 0.059-0.059 0.1 c-3.422 1.443-6.865 2.426-9.566 2.426l0 0c-7.013 0-12.092-5.102-12.092-12.139s5.079-12.145 12.092-12.145 c6.4 0 10.5 4.3 10.5 10.227C255.914 38.8 255.7 41 255.7 41.057z M245.404 32.418c-3.148 0-5.299 1.906-5.924 5.2 l10.729-0.006v-0.219C250.208 34.8 248.2 32.4 245.4 32.418L245.404 32.418z" class="style0"/><g><path d="M267.381 47.135c1.924 0 3.035-0.811 3.035-2.178c0-1.209-1.012-1.822-3.237-2.779l-2.126-0.914 c-3.947-1.67-5.82-3.848-5.82-6.828c0-4.15 3.289-6.986 8.352-6.986c2.377 0 5.2 0.7 7.7 2.023l-0.559 5.2 c-3.139-1.773-5.467-2.725-6.982-2.725c-1.623 0-2.584 0.854-2.584 1.969c0 1 0.8 1.7 2.2 2.381l3.439 1.6 c3.645 1.7 5.5 3.2 5.5 6.678c0 4.408-3.338 7.24-8.453 7.24c-2.936 0-5.719-0.607-8.4-1.775l0.203-5.465 C262.674 46.3 265.3 47.1 267.4 47.135z" class="style0"/></g><g><path d="M280.18 28.473h-1.336v3.682h-0.848v-3.682h-1.336v-0.689h3.52V28.473z M283.497 30.879l1.187-3.096h1.22 v4.371h-0.793v-3.416h-0.021l-1.307 3.416h-0.592l-1.303-3.416h-0.022v3.416h-0.794v-4.371h1.229L283.497 30.879z" class="style0"/></g></g><g><g><path d="M50.368 46.038c-1.5 0-2.785 1.129-2.785 2.834c0 1.6 1.2 2.8 2.8 2.8 c1.482 0 2.769-1.123 2.769-2.825C53.137 47.2 51.9 46 50.4 46.038z M50.368 51.419c-1.466 0-2.373-1.146-2.373-2.547 c0-1.501 1.039-2.548 2.373-2.548c1.32 0 2.4 1 2.4 2.548C52.723 50.4 51.7 51.4 50.4 51.419z" class="style0"/><path d="M51.682 48.156c0-0.678-0.416-0.963-1.222-0.963h-1.271v3.35h0.552V49.11h0.515l0.868 1.433h0.622 l-0.938-1.47C51.312 49 51.7 48.8 51.7 48.156z M49.701 48.638v-1.031h0.697c0.353 0 0.8 0.1 0.8 0.5 c0 0.512-0.385 0.552-0.822 0.552H49.701z" class="style0"/></g><g><path d="M31.236 20.511l-1.075-3.044l-9.123-12.19l1.638-0.408l15.73 13.596l9.255-2.649 c1.087-0.278 2.32-0.34 3.263-0.333c-2.909-6.274-8.232-11.424-15.26-13.927C21.771-3.396 6.5 3.9 1.6 17.8 c-1.53 4.302-1.89 8.735-1.249 12.955l22.171-7.701L31.236 20.511z" class="style0"/><path d="M51.899 17.885c-0.814 0.525-2.006 1.221-3.193 1.599l-9.276 2.649L33.242 42l-1.607 0.522l1.31-15.173 l-0.731-3.152l-8.69 2.482L0.547 32.088c1.822 8.8 8.1 16.5 17.2 19.791c13.896 5 29.165-2.309 34.109-16.199 C53.989 29.7 53.9 23.4 51.9 17.885z" class="style0"/><path d="M32.213 24.197l0.731 3.152l-1.31 15.173L33.242 42l6.188-19.867l9.276-2.649 c1.187-0.378 2.378-1.074 3.193-1.599c-0.287-0.816-0.612-1.618-0.975-2.402c-0.942-0.007-2.176 0.055-3.263 0.333l-9.255 2.6 L22.676 4.869l-1.638 0.408l9.123 12.19l1.075 3.044l-8.762 2.505L0.303 30.716c0.07 0.5 0.1 0.9 0.2 1.372l22.976-5.409 L32.213 24.197z" class="style1"/></g></g></svg>