<?xml version="1.0" encoding="UTF-8" ?>
<!DOCTYPE svg PUBLIC "-//W3C//DTD SVG 1.1//EN" "http://www.w3.org/Graphics/SVG/1.1/DTD/svg11.dtd">
<svg width="123pt" height="36pt" viewBox="0 0 123 36" version="1.1" xmlns="http://www.w3.org/2000/svg">
<path fill="#ffffff" d=" M 0.00 0.00 L 123.00 0.00 L 123.00 36.00 L 0.00 36.00 L 0.00 0.00 Z" />
<path fill="#003361" d=" M 0.93 12.00 C 1.90 7.78 5.82 4.34 10.00 3.52 C 10.00 6.34 10.01 9.17 9.99 11.99 C 6.97 12.01 3.95 12.00 0.93 12.00 Z" />
<path fill="#ded96e" d=" M 23.12 8.80 C 23.33 8.68 23.74 8.44 23.95 8.32 C 23.74 8.44 23.33 8.68 23.12 8.80 Z" />
<path fill="#28b250" d=" M 23.95 8.32 C 26.22 7.66 29.00 7.65 31.05 9.04 C 32.57 10.35 33.79 12.01 34.22 14.01 C 33.70 13.97 32.66 13.89 32.14 13.85 C 31.95 12.15 30.77 10.52 29.01 10.24 C 27.48 9.88 25.74 9.78 24.24 10.25 C 21.88 10.76 20.63 12.88 19.83 14.97 C 18.60 16.41 18.34 18.69 19.79 20.09 C 20.13 22.36 21.34 24.90 23.73 25.53 C 25.25 26.29 27.22 26.18 28.81 25.72 C 31.18 25.24 32.33 23.06 32.99 20.94 L 34.18 21.02 C 34.77 23.59 32.72 25.53 30.91 26.99 C 27.50 29.06 22.61 28.28 19.91 25.31 C 16.90 20.22 16.81 12.63 22.15 9.02 L 23.12 8.80 C 23.33 8.68 23.74 8.44 23.95 8.32 Z" />
<path fill="#bdcc4c" d=" M 38.03 7.99 L 38.99 8.00 C 39.00 14.67 39.00 21.33 38.99 28.00 L 38.03 28.03 C 37.99 21.35 37.98 14.67 38.03 7.99 Z" />
<path fill="#28b14f" d=" M 38.99 8.00 C 42.32 8.27 45.94 7.46 49.08 8.40 C 49.26 8.49 49.61 8.67 49.79 8.76 C 51.14 9.22 52.44 10.28 52.93 11.64 C 54.65 16.28 54.57 21.66 51.82 25.88 C 48.32 29.20 43.33 27.67 38.99 28.00 C 39.00 21.33 39.00 14.67 38.99 8.00 Z" />
<path fill="#75e6ff" d=" M 49.08 8.40 C 49.26 8.49 49.61 8.67 49.79 8.76 C 49.61 8.67 49.26 8.49 49.08 8.40 Z" />
<path fill="#c4d779" d=" M 59.15 8.01 L 60.03 8.00 C 59.99 8.61 59.90 9.82 59.86 10.43 C 59.79 10.64 59.66 11.05 59.59 11.26 C 58.69 13.41 58.58 15.81 57.90 18.03 L 57.19 17.59 C 57.94 14.42 58.55 11.21 59.15 8.01 Z" />
<path fill="#22b14c" d=" M 60.03 8.00 C 62.72 8.01 65.40 7.96 68.08 8.03 C 68.11 8.52 68.16 9.49 68.18 9.97 C 65.92 10.08 63.65 9.86 61.40 10.10 C 61.01 10.18 60.24 10.35 59.86 10.43 C 59.90 9.82 59.99 8.61 60.03 8.00 Z" />
<path fill="#22ccc8" d=" M 68.08 8.03 L 68.79 8.00 C 68.81 8.48 68.86 9.42 68.89 9.90 L 68.18 9.97 C 68.16 9.49 68.11 8.52 68.08 8.03 Z" />
<path fill="#bdcc4c" d=" M 72.16 8.07 L 72.87 8.03 C 72.87 8.51 72.88 9.48 72.88 9.97 L 72.17 9.94 C 72.17 9.47 72.17 8.54 72.16 8.07 Z" />
<path fill="#26b14f" d=" M 72.87 8.03 C 76.62 7.98 80.37 7.99 84.11 8.02 C 84.14 8.52 84.20 9.52 84.22 10.02 L 83.82 10.61 C 79.67 15.46 78.04 21.84 77.15 28.01 L 75.72 27.99 C 75.76 22.60 77.82 17.58 79.96 12.74 L 80.28 12.27 C 81.21 11.81 81.70 11.09 81.75 10.13 C 81.41 10.09 80.73 10.02 80.39 9.99 C 77.89 10.01 75.38 10.03 72.88 9.97 C 72.88 9.48 72.87 8.51 72.87 8.03 Z" />
<path fill="#22ccc8" d=" M 84.11 8.02 L 84.83 8.03 C 84.84 8.51 84.85 9.47 84.86 9.95 L 84.22 10.02 C 84.20 9.52 84.14 8.52 84.11 8.02 Z" />
<path fill="#c4d779" d=" M 89.14 8.04 L 90.01 7.99 C 90.00 8.60 89.98 9.83 89.97 10.44 C 89.90 10.64 89.76 11.03 89.70 11.23 C 88.54 13.26 88.70 15.83 87.89 18.04 L 87.23 17.57 C 87.92 14.40 88.55 11.23 89.14 8.04 Z" />
<path fill="#22b14c" d=" M 90.01 7.99 C 92.72 8.02 95.44 7.96 98.15 8.03 C 98.14 8.52 98.12 9.49 98.12 9.97 C 95.88 10.09 93.64 9.86 91.42 10.11 C 91.06 10.19 90.33 10.36 89.97 10.44 C 89.98 9.83 90.00 8.60 90.01 7.99 Z" />
<path fill="#22ccc8" d=" M 98.15 8.03 L 98.85 8.06 C 98.85 8.54 98.83 9.49 98.82 9.97 L 98.12 9.97 C 98.12 9.49 98.14 8.52 98.15 8.03 Z" />
<path fill="#bdcc4c" d=" M 102.15 8.08 L 102.86 8.03 C 102.87 8.52 102.88 9.49 102.88 9.97 L 102.18 9.95 C 102.17 9.48 102.16 8.55 102.15 8.08 Z" />
<path fill="#26b14f" d=" M 102.86 8.03 C 106.64 7.98 110.41 7.98 114.19 8.03 C 114.18 8.56 114.15 9.61 114.14 10.14 L 113.79 10.62 C 109.69 15.48 108.03 21.84 107.16 28.01 L 105.73 28.02 C 105.75 22.62 107.81 17.57 109.98 12.73 L 110.26 12.27 C 111.20 11.83 111.70 11.12 111.75 10.14 C 111.42 10.10 110.74 10.02 110.40 9.99 C 107.90 10.01 105.39 10.02 102.88 9.97 C 102.88 9.49 102.87 8.52 102.86 8.03 Z" />
<path fill="#22ccc8" d=" M 114.19 8.03 L 114.87 8.09 C 114.85 8.61 114.82 9.63 114.80 10.15 L 114.14 10.14 C 114.15 9.61 114.18 8.56 114.19 8.03 Z" />
<path fill="#dee08e" d=" M 19.91 25.31 C 15.17 21.40 15.85 11.15 22.15 9.02 C 16.81 12.63 16.90 20.22 19.91 25.31 Z" />
<path fill="#66d9ce" d=" M 31.05 9.04 C 33.24 9.56 34.59 11.94 35.12 14.00 L 34.22 14.01 C 33.79 12.01 32.57 10.35 31.05 9.04 Z" />
<path fill="#98eaea" d=" M 19.83 14.97 C 20.63 12.88 21.88 10.76 24.24 10.25 C 23.45 11.44 22.29 12.30 21.37 13.37 C 20.55 17.51 19.85 22.95 24.20 25.46 L 23.73 25.53 C 21.34 24.90 20.13 22.36 19.79 20.09 C 20.81 18.59 20.00 16.62 19.83 14.97 Z" />
<path fill="#e3e6a2" d=" M 29.01 10.24 C 30.77 10.52 31.95 12.15 32.14 13.85 C 30.35 14.24 28.99 11.75 29.01 10.24 Z" />
<path fill="#22ccc8" d=" M 40.04 10.05 L 40.99 10.01 C 41.01 15.33 41.00 20.66 41.00 25.98 L 40.04 26.05 C 40.00 20.72 39.96 15.38 40.04 10.05 Z" />
<path fill="#ffffff" d=" M 40.99 10.01 C 43.39 10.09 45.81 9.80 48.19 10.17 C 48.39 10.32 48.78 10.62 48.97 10.78 L 49.78 11.23 C 51.94 15.47 51.93 20.53 49.77 24.77 L 48.90 25.23 C 48.71 25.36 48.34 25.60 48.15 25.73 C 45.84 26.34 43.37 25.85 41.00 25.98 C 41.00 20.66 41.01 15.33 40.99 10.01 Z" />
<path fill="#ffe68d" d=" M 48.19 10.17 L 48.86 10.11 L 48.97 10.78 C 48.78 10.62 48.39 10.32 48.19 10.17 Z" />
<path fill="#5ed9cb" d=" M 59.86 10.43 C 60.24 10.35 61.01 10.18 61.40 10.10 C 61.70 11.55 60.55 13.24 60.72 14.83 C 60.52 14.86 60.11 14.90 59.91 14.93 C 59.83 14.01 59.67 12.18 59.59 11.26 C 59.66 11.05 59.79 10.64 59.86 10.43 Z" />
<path fill="#e9e69d" d=" M 80.39 9.99 C 80.73 10.02 81.41 10.09 81.75 10.13 C 81.70 11.09 81.21 11.81 80.28 12.27 C 80.31 11.70 80.37 10.56 80.39 9.99 Z" />
<path fill="#5ed9cb" d=" M 89.97 10.44 C 90.33 10.36 91.06 10.19 91.42 10.11 C 91.45 11.51 90.75 13.13 91.01 14.66 C 90.75 14.74 90.22 14.90 89.95 14.98 C 89.89 14.04 89.76 12.17 89.70 11.23 C 89.76 11.03 89.90 10.64 89.97 10.44 Z" />
<path fill="#e9e69d" d=" M 110.40 9.99 C 110.74 10.02 111.42 10.10 111.75 10.14 C 111.70 11.12 111.20 11.83 110.26 12.27 C 110.30 11.70 110.37 10.56 110.40 9.99 Z" />
<path fill="#e6e9a1" d=" M 49.78 11.23 C 52.15 12.53 52.31 15.66 52.34 18.06 C 52.29 20.43 52.13 23.54 49.77 24.77 C 51.93 20.53 51.94 15.47 49.78 11.23 Z" />
<path fill="#69dad5" d=" M 77.15 28.01 C 78.04 21.84 79.67 15.46 83.82 10.61 C 83.34 12.98 81.57 14.80 80.81 17.07 C 79.09 20.48 78.68 24.30 77.96 27.99 L 77.15 28.01 Z" />
<path fill="#69dad5" d=" M 107.16 28.01 C 108.03 21.84 109.69 15.48 113.79 10.62 C 113.38 13.01 111.51 14.81 110.80 17.10 C 109.10 20.50 108.67 24.30 107.96 27.99 L 107.16 28.01 Z" />
<path fill="#5ed9d7" d=" M 52.93 11.64 C 54.58 11.81 54.08 13.92 54.69 15.00 C 55.52 18.64 54.98 23.55 51.82 25.88 C 54.57 21.66 54.65 16.28 52.93 11.64 Z" />
<path fill="#28b154" d=" M 57.90 18.03 C 58.58 15.81 58.69 13.41 59.59 11.26 C 59.67 12.18 59.83 14.01 59.91 14.93 C 60.11 14.90 60.52 14.86 60.72 14.83 C 62.34 13.51 65.39 13.47 66.87 15.11 C 67.27 16.14 67.98 16.76 69.01 16.98 L 69.05 17.67 C 69.14 19.44 69.34 21.23 68.99 22.98 L 68.19 23.97 C 67.74 21.58 68.35 18.51 66.32 16.72 C 65.18 15.53 63.40 16.15 61.97 16.01 L 61.29 16.00 C 60.97 16.50 60.33 17.48 60.01 17.98 C 59.48 17.99 58.43 18.02 57.90 18.03 Z" />
<path fill="#28b154" d=" M 87.89 18.04 C 88.70 15.83 88.54 13.26 89.70 11.23 C 89.76 12.17 89.89 14.04 89.95 14.98 C 90.22 14.90 90.75 14.74 91.01 14.66 C 92.58 13.52 95.47 13.54 96.84 15.09 C 97.27 16.05 97.96 16.70 98.92 17.06 L 98.98 17.70 C 99.19 19.53 99.26 21.38 99.00 23.21 L 98.08 23.98 C 97.73 21.56 98.38 18.42 96.26 16.66 C 95.09 15.54 93.36 16.14 91.94 16.02 L 91.25 16.02 C 90.95 16.51 90.33 17.49 90.02 17.98 C 89.49 17.99 88.42 18.03 87.89 18.04 Z" />
<path fill="#d3dc82" d=" M 77.83 15.69 C 78.43 14.66 78.52 13.00 79.96 12.74 C 77.82 17.58 75.76 22.60 75.72 27.99 L 74.95 28.06 C 74.92 23.78 76.11 19.58 77.83 15.69 Z" />
<path fill="#d3dc82" d=" M 107.81 15.76 C 108.44 14.72 108.51 12.98 109.98 12.73 C 107.81 17.57 105.75 22.62 105.73 28.02 L 104.95 27.99 C 104.91 23.76 106.12 19.60 107.81 15.76 Z" />
<path fill="#22b793" d=" M 19.79 20.09 C 18.34 18.69 18.60 16.41 19.83 14.97 C 20.00 16.62 20.81 18.59 19.79 20.09 Z" />
<path fill="#89e6ec" d=" M 66.87 15.11 C 68.44 14.72 69.15 15.35 69.01 16.98 C 67.98 16.76 67.27 16.14 66.87 15.11 Z" />
<path fill="#89e6ec" d=" M 96.84 15.09 C 98.53 14.76 99.22 15.41 98.92 17.06 C 97.96 16.70 97.27 16.05 96.84 15.09 Z" />
<path fill="#aff2ff" d=" M 61.29 16.00 L 61.97 16.01 C 62.24 17.56 61.58 18.22 60.01 17.98 C 60.33 17.48 60.97 16.50 61.29 16.00 Z" />
<path fill="#aff2ff" d=" M 91.25 16.02 L 91.94 16.02 C 92.23 17.58 91.59 18.23 90.02 17.98 C 90.33 17.49 90.95 16.51 91.25 16.02 Z" />
<path fill="#b7d173" d=" M 66.32 16.72 C 68.35 18.51 67.74 21.58 68.19 23.97 C 68.16 24.00 68.10 24.06 68.07 24.09 C 67.10 24.71 66.15 25.35 65.21 26.01 C 67.36 23.32 67.25 19.89 66.32 16.72 Z" />
<path fill="#b7d173" d=" M 96.26 16.66 C 98.38 18.42 97.73 21.56 98.08 23.98 C 98.07 24.01 98.03 24.07 98.01 24.11 C 97.07 24.75 96.13 25.38 95.18 26.01 C 97.41 23.34 97.25 19.83 96.26 16.66 Z" />
<path fill="#55d6d3" d=" M 69.05 17.67 C 71.08 17.75 69.55 20.75 69.99 22.06 C 69.69 23.85 68.98 26.49 66.88 26.86 C 67.18 26.17 67.77 24.78 68.07 24.09 C 68.10 24.06 68.16 24.00 68.19 23.97 L 68.99 22.98 C 69.34 21.23 69.14 19.44 69.05 17.67 Z" />
<path fill="#55d6d3" d=" M 98.98 17.70 L 100.00 17.77 C 100.07 20.83 100.48 25.65 96.90 26.84 C 97.18 26.16 97.73 24.79 98.01 24.11 C 98.03 24.07 98.07 24.01 98.08 23.98 L 99.00 23.21 C 99.26 21.38 99.19 19.53 98.98 17.70 Z" />
<path fill="#d0dd95" d=" M 28.81 25.72 C 30.61 24.49 31.17 21.65 32.99 20.94 C 32.33 23.06 31.18 25.24 28.81 25.72 Z" />
<path fill="#72dedd" d=" M 34.18 21.02 L 35.04 20.95 C 35.51 23.55 33.32 26.47 30.91 26.99 C 32.72 25.53 34.77 23.59 34.18 21.02 Z" />
<path fill="#003361" d=" M 1.47 22.02 C 4.31 21.98 7.15 22.00 9.99 22.01 C 9.97 24.32 10.11 26.64 9.87 28.94 C 6.35 27.75 3.11 25.44 1.47 22.02 Z" />
<path fill="#d5dc82" d=" M 58.78 26.09 C 57.24 26.83 55.56 22.92 57.66 22.94 C 58.08 23.98 58.45 25.03 58.78 26.09 Z" />
<path fill="#26b25a" d=" M 57.66 22.94 C 58.25 23.02 59.42 23.19 60.00 23.27 L 60.16 24.24 C 60.26 24.43 60.45 24.82 60.54 25.02 C 61.58 26.63 63.67 25.79 65.21 26.01 C 66.15 25.35 67.10 24.71 68.07 24.09 C 67.77 24.78 67.18 26.17 66.88 26.86 C 65.36 28.43 62.80 28.29 60.91 27.71 C 60.72 27.57 60.34 27.29 60.15 27.15 C 59.81 26.89 59.12 26.36 58.78 26.09 C 58.45 25.03 58.08 23.98 57.66 22.94 Z" />
<path fill="#d5dc82" d=" M 88.81 26.12 C 87.31 26.90 85.57 22.97 87.63 22.94 C 88.07 23.98 88.46 25.04 88.81 26.12 Z" />
<path fill="#26b25a" d=" M 87.63 22.94 C 88.18 23.00 89.29 23.12 89.84 23.18 L 90.14 24.25 C 90.24 24.44 90.45 24.82 90.55 25.01 C 91.55 26.63 93.66 25.80 95.18 26.01 C 96.13 25.38 97.07 24.75 98.01 24.11 C 97.73 24.79 97.18 26.16 96.90 26.84 C 95.38 28.46 92.89 28.21 90.94 27.77 C 90.75 27.62 90.36 27.30 90.17 27.14 C 89.83 26.89 89.15 26.38 88.81 26.12 C 88.46 25.04 88.07 23.98 87.63 22.94 Z" />
<path fill="#9af2ff" d=" M 60.16 24.24 C 60.26 24.43 60.45 24.82 60.54 25.02 C 60.45 24.82 60.26 24.43 60.16 24.24 Z" />
<path fill="#9af2ff" d=" M 90.14 24.25 C 90.24 24.44 90.45 24.82 90.55 25.01 C 90.45 24.82 90.24 24.44 90.14 24.25 Z" />
<path fill="#ded96e" d=" M 48.15 25.73 C 48.34 25.60 48.71 25.36 48.90 25.23 C 48.71 25.36 48.34 25.60 48.15 25.73 Z" />
<path fill="#ded96e" d=" M 60.15 27.15 C 60.34 27.29 60.72 27.57 60.91 27.71 C 60.72 27.57 60.34 27.29 60.15 27.15 Z" />
<path fill="#ded96e" d=" M 90.17 27.14 C 90.36 27.30 90.75 27.62 90.94 27.77 C 90.75 27.62 90.36 27.30 90.17 27.14 Z" />
</svg>
