<svg xmlns="http://www.w3.org/2000/svg" xmlns:xlink="http://www.w3.org/1999/xlink" version="1.1" x="0px" y="0px" width="270.919px" height="64.997px" viewBox="0 0 270.919 64.997" enable-background="new 0 0 270.919 64.997" xml:space="preserve"><style>.style0{fill:	#00355F;}.style1{fill:	#FFC60B;}</style><g><path d="M253.089 50.743c-0.057 0-0.09-0.035-0.09-0.088V28.468c0-0.047 0.031-0.082 0.074-0.09h5.881 c0.047 0 0.1 0 0.1 0.09v22.188c0 0.053-0.042 0.088-0.092 0.088H253.089z M256.026 23.8 c-2.003 0-3.628-1.596-3.628-3.562c0-2.025 1.625-3.678 3.628-3.678c1.993 0 3.6 1.7 3.6 3.7 C259.644 22.2 258 23.8 256 23.755L256.026 23.755z" class="style0"/><path d="M110.347 50.851h-7.135c-0.03 0-0.057-0.012-0.073-0.031l-6.147-7.504l-6.156 7.5 c-0.018 0.02-0.043 0.031-0.072 0.031h-5.716c-0.034 0-0.065-0.018-0.082-0.053c-0.018-0.027-0.012-0.068 0.011-0.092l9.062-11.125 l-8.96-11.023c-0.024-0.033-0.024-0.068-0.012-0.098c0.012-0.025 0.048-0.057 0.08-0.057h7.138c0.024 0 0.1 0 0.1 0 l5.397 6.689l5.492-6.693c0.016-0.021 0.04-0.039 0.07-0.039h5.819c0.035 0 0.1 0 0.1 0.1 c0.014 0 0 0.068-0.014 0.098l-8.502 10.209l9.718 11.939c0.022 0 0 0.1 0 0.1 C110.411 50.8 110.4 50.9 110.3 50.851L110.347 50.851z" class="style0"/><path d="M159.353 41.034c-0.013 0.021-0.043 0.039-0.078 0.039h-16.336c0.336 3.8 2.8 6 6.8 6 c2.462 0 5.076-0.842 8.772-2.805c0.061-0.033 0.1 0 0.1 0.092l-0.011 5.021c-0.006 0.041-0.024 0.068-0.053 0.1 c-3.436 1.455-6.893 2.438-9.6 2.438l0 0c-7.036 0-12.141-5.123-12.141-12.186c0-7.057 5.104-12.184 12.141-12.184 c6.419 0 10.5 4.3 10.5 10.266C159.534 38.7 159.4 41 159.4 41.034z M148.993 32.4 c-3.16 0-5.324 1.918-5.942 5.258h10.762v-0.219C153.812 34.7 151.8 32.4 149 32.356L148.993 32.356z" class="style0"/><path d="M189.611 50.851c-0.057 0-0.093-0.037-0.093-0.094V28.495c0-0.043 0.029-0.078 0.073-0.088h5.905 c0.044 0 0.1 0 0.1 0.088v22.262c0 0.057-0.038 0.094-0.088 0.094H189.611z M192.549 23.8 c-2.004 0-3.635-1.609-3.635-3.582c0-2.029 1.631-3.682 3.635-3.682c2.006 0 3.6 1.7 3.6 3.7 C196.181 22.2 194.6 23.8 192.5 23.774L192.549 23.774z" class="style0"/><path d="M122.746 27.497c-1.665 0-3.341 0.299-5.106 0.906h-5.872c-0.05 0-0.086 0.043-0.086 0.092v36.502 c1.775-0.236 3.939-0.871 6.062-2.375l-0.004-11.102c1.443 0.2 2.6 0.3 3.8 0.342c8.045 0 13.253-4.82 13.253-12.281 C134.786 32.5 129.8 27.5 122.7 27.497z M121.146 47.497c-1.07 0-2.159-0.148-3.407-0.482l0.009-14.285 c1.465-0.469 2.744-0.684 4.006-0.684c4.088 0 6.8 3 6.8 7.5C128.589 44.4 125.7 47.5 121.1 47.497z" class="style0"/><path d="M178.867 16.62v11.654c-1.724-0.5-3.241-0.725-4.771-0.725c-7 0-12.283 5.275-12.283 12.3 c0 7 4.7 12 11.1 12.027c2.219 0 4.306-0.557 6.749-1.814l-0.009 2.014c1.615-0.311 3.47-0.957 5.301-2.254v-35.57 C183.129 14.5 181 15.1 178.9 16.62z M178.867 45.651c-1.84 0.961-3.479 1.422-5.024 1.4 c-3.645 0-5.827-2.574-5.827-6.885c0-4.982 2.788-8.209 7.097-8.209c1.19 0 2.4 0.3 3.8 0.926V45.651z" class="style0"/><path d="M222.082 28.14c0-0.139-0.122-0.252-0.259-0.252l-4.767 0.01c-0.145 0-0.258 0.117-0.258 0.254v0.811 h-0.118c-2.203-0.961-4.086-1.412-5.933-1.412c-6.6 0-11.777 5.475-11.777 12.482c0 7.1 4.6 11.8 11.5 11.8 c1.838 0 4.204-0.125 6.413-2.672v2.867c1.565-0.332 3.41-0.996 5.164-2.258L222.082 28.14z M216.012 45.6 c-1.779 1.027-3.306 1.523-4.667 1.523c-3.902 0-6.233-2.568-6.233-6.891c0-4.91 2.747-8.209 6.842-8.209 c1.102 0 2.4 0.4 4.1 1.283V45.604z" class="style0"/><path d="M68.739 45.204l14.78-0.002c-0.223 1.648-0.782 3.588-2.062 5.555H68.77h-2.522c-0.054 0-0.11 0-0.171 0 c-1.881 0-3.429-1.455-3.615-3.303c-0.006-0.025-0.02-0.053-0.024-0.074V32.237V18.224c0.005-0.021 0.019-0.047 0.024-0.068 c0.187-1.852 1.734-3.312 3.615-3.312c0.061 0 0.1 0 0.2 0.01l17.239-0.004c-0.226 1.65-0.779 3.633-2.063 5.596H68.739 v7.934h12.556c0.056 0 0.1 0 0.1 0.086v5.506c0 0.043-0.039 0.088-0.095 0.088H68.739v11.145V45.204z" class="style0"/><path d="M229.102 45.196c1.827 0 3.2 1.4 3.2 3.24c0 1.77-1.474 3.189-3.242 3.2 c-1.719 0-3.191-1.469-3.191-3.189C225.911 46.7 227.4 45.2 229.1 45.196z" class="style0"/><path d="M237.789 50.851V33.493h-3.539v-4.912h3.539v-4.602c0-9.201 5.614-11.932 12.148-11.207v4.229 c-4.139 0.098-6.172 1.178-6.172 5.756v5.824h6.172v4.912h-6.172v17.357H237.789z" class="style0"/><path d="M265.199 28.952h-1.335v3.678h-0.849v-3.678h-1.335V28.26h3.519V28.952z M268.514 31.358l1.188-3.098h1.217 v4.37h-0.793v-3.413h-0.021l-1.305 3.413h-0.592l-1.303-3.413h-0.022v3.413h-0.795v-4.37h1.228L268.514 31.358z" class="style0"/></g><g><g><path d="M50.367 46.038c-1.5 0-2.785 1.129-2.785 2.834c0 1.6 1.2 2.8 2.8 2.8 c1.482 0 2.769-1.123 2.769-2.825C53.136 47.2 51.8 46 50.4 46.038z M50.367 51.419c-1.466 0-2.373-1.146-2.373-2.547 c0-1.501 1.039-2.548 2.373-2.548c1.32 0 2.4 1 2.4 2.548C52.723 50.4 51.7 51.4 50.4 51.419z" class="style0"/><path d="M51.682 48.156c0-0.678-0.416-0.963-1.222-0.963h-1.271v3.35h0.552V49.11h0.515l0.868 1.433h0.622 l-0.938-1.47C51.311 49 51.7 48.8 51.7 48.156z M49.701 48.638v-1.031h0.697c0.353 0 0.8 0.1 0.8 0.5 c0 0.512-0.385 0.552-0.822 0.552H49.701z" class="style0"/></g><g><path d="M31.236 20.511l-1.075-3.044l-9.123-12.19l1.638-0.408l15.73 13.596l9.255-2.649 c1.087-0.278 2.32-0.34 3.263-0.333c-2.909-6.274-8.232-11.424-15.26-13.927C21.771-3.396 6.5 3.9 1.6 17.8 c-1.53 4.302-1.89 8.735-1.249 12.955l22.171-7.701L31.236 20.511z" class="style0"/><path d="M51.899 17.885c-0.814 0.525-2.006 1.221-3.193 1.599l-9.276 2.649L33.242 42l-1.607 0.522l1.31-15.173 l-0.731-3.152l-8.69 2.482L0.546 32.088c1.822 8.8 8.1 16.5 17.2 19.791c13.896 5 29.165-2.309 34.109-16.199 C53.989 29.7 53.9 23.4 51.9 17.885z" class="style0"/><path d="M32.213 24.197l0.731 3.152l-1.31 15.173L33.242 42l6.188-19.867l9.276-2.649 c1.187-0.378 2.378-1.074 3.193-1.599c-0.287-0.816-0.612-1.618-0.975-2.402c-0.942-0.007-2.176 0.055-3.263 0.333l-9.255 2.6 L22.676 4.869l-1.638 0.408l9.123 12.19l1.075 3.044l-8.762 2.505L0.303 30.716c0.07 0.5 0.1 0.9 0.2 1.372l22.976-5.409 L32.213 24.197z" class="style1"/></g></g></svg>