<svg xmlns="http://www.w3.org/2000/svg" xmlns:xlink="http://www.w3.org/1999/xlink" version="1.1" x="0px" y="0px" width="228.164px" height="36.656px" viewBox="0 0 228.164 36.656" enable-background="new 0 0 228.164 36.656" xml:space="preserve"><style>.style0{fill:	none;}.style1{fill:	#00355F;}.style2{fill:	#FFC60B;}</style><g><rect x="-12.6" y="-12.6" width="253" height="62" class="style0"/><g><path d="M28.256 25.984c-0.848 0-1.572 0.637-1.572 1.6c0 0.9 0.7 1.6 1.6 1.6 c0.836 0 1.562-0.635 1.562-1.596C29.818 26.6 29.1 26 28.3 25.984z M28.256 29.02c-0.828 0-1.34-0.646-1.34-1.437 c0-0.848 0.588-1.438 1.34-1.438c0.744 0 1.3 0.6 1.3 1.438C29.585 28.4 29 29 28.3 29.02z" class="style1"/><g><g><path d="M56.678 21.878l4.79-5.75c0.014-0.018 0.016-0.039 0.008-0.059c-0.008-0.011-0.027-0.029-0.047-0.029 H58.15c-0.015 0-0.029 0.007-0.04 0.021l-3.093 3.769l-3.041-3.767c-0.008-0.015-0.026-0.023-0.038-0.023h-4.022 c-0.018 0-0.037 0.017-0.045 0.029c-0.008 0.02-0.008 0 0 0.059l5.047 6.208l-5.104 6.3 c-0.013 0.017-0.015 0.037-0.007 0.051c0.011 0 0 0 0 0.031h3.22c0.017 0 0.031-0.004 0.04-0.019l3.468-4.229 l3.466 4.229c0.01 0 0 0 0 0.019h4.021c0.018 0 0.035-0.011 0.041-0.03c0.01-0.014 0.006-0.035-0.006-0.051 L56.678 21.878z" class="style1"/><path d="M83.885 15.526c-3.963 0-6.838 2.887-6.838 6.864c0 4 2.9 6.9 6.8 6.9 c1.527 0 3.472-0.555 5.41-1.371c0.015-0.006 0.027-0.02 0.029-0.043l0.006-2.83c0-0.038-0.041-0.071-0.076-0.049 c-2.082 1.105-3.554 1.578-4.943 1.578c-2.252 0-3.645-1.22-3.836-3.361h9.205c0.018 0 0.035-0.012 0.045-0.024 c0.004-0.041 0.1-1.301 0.099-1.842C89.824 18 87.5 15.5 83.9 15.526z M86.6 21.227h-6.061 c0.348-1.878 1.567-2.958 3.346-2.958c1.608 0 2.7 1.3 2.7 2.837V21.227z" class="style1"/><path d="M106.758 16.04c-0.021 0.007-0.039 0.027-0.039 0.052v12.541c0 0 0 0.1 0.1 0.052h3.306 c0.028 0 0.049-0.021 0.049-0.052V16.092c0-0.026-0.016-0.045-0.041-0.052H106.758z" class="style1"/><path d="M108.426 9.341c-1.131 0-2.049 0.928-2.049 2.074c0 1.1 0.9 2 2 2 c1.127 0 2.047-0.905 2.047-2.016C110.473 10.3 109.6 9.3 108.4 9.341z" class="style1"/><path d="M69.1 15.528c-0.936 0-1.885 0.17-2.877 0.512h-3.308c-0.029 0-0.047 0.023-0.047 0.053v20.563 c0.998-0.137 2.221-0.49 3.412-1.339l-0.002-6.254c0.816 0.1 1.5 0.2 2.1 0.19c4.529 0 7.463-2.715 7.463-6.918 C75.881 18.3 73.1 15.5 69.1 15.528z M68.198 26.796c-0.6 0-1.213-0.086-1.92-0.272l0.008-8.046 c0.826-0.262 1.545-0.387 2.256-0.387c2.305 0 3.9 1.7 3.9 4.224C72.393 25 70.7 26.8 68.2 26.796z" class="style1"/><path d="M100.717 15.965c-0.971-0.277-1.826-0.406-2.689-0.406c-3.943 0-6.92 2.973-6.92 6.9 c0 3.9 2.6 6.8 6.2 6.776c1.25 0 2.424-0.314 3.801-1.022l-0.004 1.134c0.908-0.174 1.955-0.537 2.984-1.268V8.06 c-1.009 0.134-2.211 0.472-3.412 1.341V15.965z M100.717 25.753c-1.037 0.543-1.961 0.803-2.832 0.8 c-2.053 0-3.281-1.449-3.281-3.879c0-2.809 1.57-4.625 3.998-4.625c0.67 0 1.3 0.2 2.1 0.523V25.753z" class="style1"/><path d="M124.917 15.749l-2.686 0.006c-0.08 0-0.148 0.066-0.148 0.143v0.457h-0.065 c-1.24-0.543-2.302-0.795-3.343-0.795c-3.717 0-6.632 3.084-6.632 7.031c0 4 2.6 6.7 6.5 6.7 c1.037 0 2.369-0.07 3.613-1.504v1.613c0.881-0.188 1.922-0.562 2.908-1.271l0.005-12.203 C125.061 15.8 125 15.7 124.9 15.749z M119.016 26.585c-2.197 0-3.515-1.445-3.515-3.881 c0-2.768 1.552-4.625 3.855-4.625c0.619 0 1.4 0.2 2.3 0.722v6.927h0.001C120.643 26.3 119.8 26.6 119 26.585z" class="style1"/><path d="M38.674 19.225h7.074c0.032 0 0.053-0.022 0.053-0.05v-3.1c0-0.028-0.022-0.049-0.053-0.049h-7.074 v-4.471h7.147c0.723-1.107 1.036-2.223 1.163-3.152L37.27 8.405c-0.03 0-0.061-0.004-0.095-0.004 c-1.059 0-1.933 0.824-2.037 1.865c-0.004 0.01-0.011 0.027-0.013 0.04v7.893v8.528c0.002 0 0 0 0 0 c0.104 1 1 1.9 2 1.86c0.034 0 0.066-0.002 0.095-0.002l1.422 0.002h7.146c0.723-1.11 1.038-2.2 1.162-3.131 l-8.326 0.002V19.225z" class="style1"/><polygon points="224,16.4 224.6,16.4 224.6,18 225,18 225,16.4 225.6,16.4 225.6,16.4 225.6,16 224,16" class="style1"/><polygon points="227.6,16 227.1,17.4 226.5,16 226,16 226,18 226.3,18 226.3,16.5 226.4,16.5 226.9,18 227.2,18 227.8,16.5 227.8,16.5 227.8,18 228.2,18 228.2,16" class="style1"/><path d="M129.222 25.335c-0.969 0-1.797 0.826-1.797 1.822c0 1 0.8 1.8 1.8 1.8 c0.996 0 1.824-0.8 1.824-1.795C131.046 26.1 130.2 25.3 129.2 25.335z" class="style1"/><path d="M204.753 15.767c-1.852 0-3.475 0.855-4.672 2.453c-0.853-1.682-2.168-2.453-3.992-2.453 c-1.852 0-3.332 0.797-4.645 2.453v-2.109h-3.076v12.533h3.307V21.64c0-2.023 1.195-3.019 3.162-3.019 c1.367 0 2.1 0.8 2.1 2.335v7.687h3.305v-7.004c0-2.022 1.197-3.019 3.164-3.019c1.367 0 2.1 0.8 2.1 2.334v7.688 h3.311v-8.399C208.832 17.3 207.4 15.8 204.8 15.767z" class="style1"/><path d="M216.326 24.187l-2.871-8.154h-3.586l4.621 12.625l-0.852 1.865c-0.506 1.055-0.629 1.322-1.023 2 c-1.633 2.738-2.084 3.679-2.504 4.146h3.51l9.06-20.616h-2.851L216.326 24.187z" class="style1"/><path d="M151.89 15.472c-3.875 0-6.809 2.815-6.809 6.833c0 4 2.9 6.8 6.8 6.8 c3.896 0 6.771-2.82 6.771-6.832C158.662 18.3 155.8 15.5 151.9 15.472z M151.89 26.52c-1.967 0-3.422-1.627-3.422-4.188 c0-2.617 1.484-4.212 3.422-4.212c1.93 0 3.4 1.6 3.4 4.212C155.279 24.9 153.8 26.5 151.9 26.52z" class="style1"/><path d="M184.479 25.339c-0.97 0-1.797 0.828-1.797 1.822c0 1 0.8 1.8 1.8 1.8 c0.997 0 1.824-0.799 1.824-1.795C186.303 26.1 185.5 25.3 184.5 25.339z" class="style1"/><path d="M176.667 15.767c-1.853 0-3.476 0.855-4.672 2.453c-0.854-1.682-2.168-2.453-3.992-2.453 c-1.853 0-3.334 0.797-4.646 2.453v-2.109h-3.075v12.532v0.001h3.307v-0.001V21.64c0-2.023 1.195-3.019 3.162-3.019 c1.367 0 2.1 0.8 2.1 2.335v7.687h3.306v-7.004c0-2.022 1.196-3.019 3.164-3.019c1.366 0 2.1 0.8 2.1 2.334v7.688 h3.312v-8.399C180.746 17.3 179.3 15.8 176.7 15.767z" class="style1"/><path d="M143.88 25.019c-1.328 0.863-2.565 1.287-3.924 1.287c-2.65 0-4.408-1.611-4.408-4.064 c0-2.395 1.625-4.101 4.361-4.101c0.969 0 2.4 0.4 3.9 0.989l0.062-2.905c-1.541-0.566-2.892-0.877-4.259-0.877 c-4.358 0-7.494 3.135-7.494 6.866c0 4 2.9 6.9 7.1 6.904c1.594 0 3.342-0.427 4.707-1.302l0.006-2.774 C143.919 25 143.9 25 143.9 25.019z" class="style1"/><path d="M28.997 27.177c0-0.381-0.233-0.543-0.688-0.543H27.59v1.892h0.312v-0.81h0.289l0.49 0.81h0.352 l-0.529-0.829C28.788 27.7 29 27.5 29 27.177z M27.88 27.451v-0.582h0.393c0.198 0 0.4 0 0.4 0.3 c0 0.287-0.218 0.311-0.464 0.311H27.88z" class="style1"/><path d="M17.458 11.576l-0.607-1.717l-5.148-6.881l0.925-0.229l8.877 7.673l5.225-1.495 c0.613-0.157 1.309-0.192 1.842-0.188c-1.641-3.542-4.646-6.448-8.613-7.86C12.115-1.917 3.5 2.2 0.7 10 C-0.16 12.453-0.363 15 0 17.335l12.512-4.346L17.458 11.576z" class="style1"/><path d="M27.317 10.997l-5.235 1.494L18.59 23.705L17.683 24l0.739-8.563l-0.412-1.779l-4.905 1.4L0.137 18.1 c1.028 5 4.6 9.3 9.7 11.171c7.844 2.8 16.461-1.304 19.252-9.144c1.202-3.38 1.125-6.903 0.022-10.044 C28.66 10.4 28 10.8 27.3 10.997z" class="style1"/></g><path d="M18.01 13.656l0.412 1.779L17.683 24l0.907-0.295l3.492-11.212l5.235-1.494 c0.671-0.215 1.343-0.607 1.803-0.904c-0.162-0.46-0.347-0.912-0.55-1.354c-0.533-0.005-1.229 0.03-1.842 0.188l-5.225 1.5 L12.626 2.75l-0.925 0.229l5.148 6.881l0.607 1.717l-4.946 1.414L0 17.335c0.039 0.3 0.1 0.5 0.1 0.774l12.968-3.054 L18.01 13.656z" class="style2"/></g></g></g></svg>