<svg xmlns="http://www.w3.org/2000/svg" xmlns:xlink="http://www.w3.org/1999/xlink" version="1.1" x="0px" y="0px" width="162.34px" height="36.479px" viewBox="0 0 162.34 36.479" enable-background="new 0 0 162.34 36.479" xml:space="preserve">
<g id="logo">
	<g>
		<g>
			<path fill="#00355F" d="M61.945 28.542h-4.002c-0.018 0-0.029-0.003-0.04-0.017l-3.449-4.21l-3.451 4.2 c-0.008 0.013-0.022 0.017-0.038 0.017h-3.206c-0.02 0-0.035-0.01-0.048-0.031c-0.006-0.012-0.005-0.034 0.007-0.05l5.082-6.239 l-5.022-6.18c-0.015-0.02-0.015-0.039-0.008-0.059c0.008-0.012 0.027-0.029 0.043-0.029h4.005c0.011 0 0 0 0 0 l3.026 3.751l3.079-3.753c0.009-0.014 0.024-0.021 0.038-0.021h3.264c0.02 0 0 0 0 0 c0.008 0 0 0.041-0.008 0.059l-4.766 5.724l5.445 6.695c0.012 0 0 0 0 0.1 C61.98 28.5 62 28.5 61.9 28.542L61.945 28.542z"/>
			<path fill="#00355F" d="M89.419 23.036c-0.01 0.014-0.027 0.024-0.044 0.024h-9.162c0.192 2.1 1.6 3.3 3.8 3.3 c1.382 0 2.848-0.472 4.918-1.573c0.038-0.022 0.1 0 0.1 0.049l-0.006 2.818c-0.003 0.023-0.013 0.038-0.029 0 c-1.928 0.812-3.863 1.366-5.384 1.366l0 0c-3.944 0-6.805-2.875-6.805-6.835c0-3.958 2.86-6.833 6.805-6.833 c3.598 0 5.9 2.4 5.9 5.759C89.518 21.7 89.4 23 89.4 23.036z M83.608 18.173c-1.772 0-2.984 1.075-3.329 2.9 h6.031v-0.122C86.31 19.5 85.2 18.2 83.6 18.173L83.608 18.173z"/>
			<path fill="#00355F" d="M106.383 28.542c-0.032 0-0.052-0.02-0.052-0.051V16.007c0-0.026 0.018-0.045 0.04-0.052h3.309 c0.027 0 0 0 0 0.052v12.484c0 0.031-0.022 0.051-0.048 0.051H106.383z M108.029 13.4 c-1.124 0-2.038-0.9-2.038-2.007c0-1.141 0.914-2.065 2.038-2.065c1.123 0 2 0.9 2 2.1 C110.067 12.5 109.2 13.4 108 13.356L108.029 13.356z"/>
			<path fill="#00355F" d="M68.896 15.444c-0.934 0-1.877 0.17-2.865 0.51h-3.293c-0.028 0-0.045 0.023-0.045 0.053v20.472 c0.994-0.136 2.212-0.489 3.396-1.333l-0.001-6.228c0.811 0.1 1.5 0.2 2.1 0.192c4.508 0 7.426-2.703 7.426-6.889 C75.642 18.2 72.9 15.4 68.9 15.444z M67.996 26.663c-0.596 0-1.207-0.085-1.909-0.272l0.007-8.01 c0.822-0.261 1.539-0.385 2.246-0.385c2.293 0 3.8 1.7 3.8 4.205C72.171 24.9 70.5 26.7 68 26.663z"/>
			<path fill="#00355F" d="M100.358 9.345v6.535c-0.966-0.275-1.817-0.404-2.676-0.404c-3.925 0-6.887 2.96-6.887 6.9 c0 3.9 2.6 6.7 6.2 6.747c1.245 0 2.411-0.313 3.782-1.019l-0.003 1.128c0.905-0.172 1.945-0.534 2.97-1.261V8.008 C102.749 8.1 101.6 8.5 100.4 9.345z M100.358 25.625c-1.031 0.541-1.952 0.798-2.817 0.8 c-2.043 0-3.266-1.443-3.266-3.861c0-2.795 1.563-4.604 3.979-4.604c0.667 0 1.3 0.2 2.1 0.521V25.625z"/>
			<path fill="#00355F" d="M124.585 15.804c0-0.078-0.066-0.14-0.143-0.14l-2.673 0.005c-0.08 0-0.147 0.066-0.147 0.142v0.456 h-0.067c-1.235-0.541-2.289-0.792-3.325-0.792c-3.699 0-6.601 3.07-6.601 7c0 4 2.6 6.6 6.5 6.6 c1.033 0 2.357-0.07 3.597-1.497v1.606c0.877-0.187 1.912-0.559 2.893-1.265L124.585 15.804z M121.185 25.6 c-0.997 0.575-1.852 0.853-2.615 0.853c-2.187 0-3.497-1.439-3.497-3.864c0-2.754 1.543-4.603 3.837-4.603 c0.614 0 1.4 0.2 2.3 0.719V25.601z"/>
			<path fill="#00355F" d="M38.605 25.418l8.306-0.003c-0.124 0.929-0.438 2.015-1.159 3.123h-7.127l-1.419-0.001 c-0.029 0-0.061 0.001-0.094 0.001c-1.058 0-1.928-0.82-2.031-1.856c-0.005-0.015-0.012-0.031-0.013-0.045v-8.508v-7.874 c0.001-0.012 0.008-0.03 0.013-0.04c0.103-1.038 0.973-1.861 2.031-1.861c0.034 0 0.1 0 0.1 0.004l9.688-0.001 c-0.127 0.926-0.441 2.04-1.161 3.145h-7.127v4.46h7.055c0.03 0 0.1 0 0.1 0.049v3.093c0 0.026-0.021 0.049-0.051 0 h-7.055v6.263V25.418z"/>
		</g>
		<g>
			<path fill="#00355F" d="M17.494 11.487l-0.602-1.705l-5.109-6.827L12.7 2.727l8.81 7.615l5.184-1.483 c0.609-0.156 1.299-0.191 1.827-0.187c-1.629-3.514-4.61-6.398-8.546-7.8C12.193-1.901 3.6 2.2 0.9 9.9 c-0.857 2.409-1.059 4.892-0.699 7.255l12.417-4.312L17.494 11.487z"/>
			<path fill="#00355F" d="M29.066 10.017c-0.456 0.294-1.124 0.684-1.788 0.896l-5.195 1.483l-3.466 11.126l-0.9 0.292l0.733-8.498 l-0.409-1.765l-4.867 1.39L0.306 17.971c1.021 5 4.5 9.3 9.6 11.084c7.782 2.8 16.333-1.293 19.103-9.072 C30.236 16.6 30.2 13.1 29.1 10.017z"/>
			<path fill="#EEC218" d="M18.041 13.552l0.409 1.765l-0.733 8.498l0.9-0.292l3.466-11.126l5.195-1.483 c0.665-0.212 1.332-0.602 1.788-0.896C28.905 9.6 28.7 9.1 28.5 8.671c-0.528-0.004-1.218 0.031-1.827 0.187l-5.184 1.5 L12.7 2.727l-0.917 0.229l5.109 6.827l0.602 1.705l-4.907 1.403L0.17 17.203c0.04 0.3 0.1 0.5 0.1 0.768l12.868-3.029 L18.041 13.552z"/>
		</g>
	</g>
</g>
<g id="pos">
	<g>
		<path fill="#00355F" d="M128.711 25.435c1.028 0 1.8 0.8 1.8 1.822c0 0.996-0.828 1.795-1.825 1.8 c-0.969 0-1.797-0.826-1.797-1.795C126.914 26.3 127.7 25.4 128.7 25.435z"/>
		<g>
			<path fill="#00355F" d="M138.703 29.212c-4.247 0-7.136-2.859-7.136-6.904c0-3.73 3.135-6.866 7.495-6.866 c1.367 0 2.7 0.3 4.3 0.878l-0.062 2.906c-1.45-0.627-2.883-0.991-3.852-0.991c-2.737 0-4.362 1.706-4.362 4.1 c0 2.5 1.8 4.1 4.4 4.064c1.359 0 2.596-0.424 3.924-1.287c0.035-0.021 0 0 0 0.023l-0.006 2.8 C142.047 28.8 140.3 29.2 138.7 29.212z"/>
		</g>
	</g>
	<g>
		<g>
			<path fill="#00355F" d="M157.687 15.804c0-0.078-0.066-0.14-0.143-0.14l-2.673 0.005c-0.08 0-0.147 0.066-0.147 0.143v0.455 h-0.067c-1.234-0.541-2.288-0.791-3.324-0.791c-3.699 0-6.601 3.07-6.601 6.999c0 4 2.6 6.6 6.5 6.6 c1.033 0 2.357-0.07 3.598-1.497v1.606c0.877-0.188 1.911-0.559 2.893-1.266L157.687 15.804z M154.286 25.6 c-0.997 0.574-1.853 0.852-2.615 0.852c-2.187 0-3.497-1.438-3.497-3.863c0-2.754 1.543-4.604 3.838-4.604 c0.613 0 1.4 0.2 2.3 0.719V25.601z"/>
		</g>
	</g>
</g>
<g id="tm_r">
	<g>
		<path fill="#00355F" d="M160.791 14.832c-0.841 0-1.56 0.631-1.56 1.586c0 0.9 0.6 1.6 1.6 1.6 c0.828 0 1.549-0.629 1.549-1.582C162.34 15.5 161.6 14.8 160.8 14.832z M160.791 17.846c-0.822 0-1.33-0.643-1.33-1.428 c0-0.84 0.582-1.426 1.33-1.426c0.738 0 1.3 0.6 1.3 1.426C162.109 17.3 161.5 17.8 160.8 17.846z"/>
		<path fill="#00355F" d="M161.527 16.018c0-0.379-0.234-0.539-0.686-0.539h-0.712v1.875h0.308v-0.801h0.289l0.486 0.801h0.348 l-0.524-0.824C161.318 16.5 161.5 16.4 161.5 16.018z M160.416 16.287v-0.576h0.391c0.198 0 0.4 0 0.4 0.3 c0 0.287-0.217 0.309-0.459 0.309H160.416z"/>
	</g>
	<g>
		<path fill="#00355F" d="M27.303 27.004h-0.672v1.521h-0.374v-1.521h-0.672v-0.339h1.718V27.004z M29.224 26.665h0.483l0.18 1.9 H29.5l-0.097-1.424l-0.479 1.393h-0.453l-0.475-1.393l-0.092 1.424h-0.387l0.18-1.859h0.483l0.523 1.508L29.224 26.665z"/>
	</g>
</g>
<g id="clear_space">
	<rect x="-12.6" y="-12.6" fill="none" width="187" height="61.6"/>
</g>
</svg>
