<?xml version="1.0" encoding="utf-8"?>
<!-- Generator: Adobe Illustrator 16.0.0, SVG Export Plug-In . SVG Version: 6.00 Build 0)  -->
<!DOCTYPE svg PUBLIC "-//W3C//DTD SVG 1.1//EN" "http://www.w3.org/Graphics/SVG/1.1/DTD/svg11.dtd">
<svg version="1.1" id="Layer_1" xmlns="http://www.w3.org/2000/svg" xmlns:xlink="http://www.w3.org/1999/xlink" x="0px" y="0px"
	 width="54px" height="54px" viewBox="0 0 54 54" enable-background="new 0 0 54 54" xml:space="preserve">
<g>
	<path fill="#6B6B6B" d="M44.972,27L44.972,27c0,9.896-8.043,17.949-17.935,17.971v9.027C41.931,53.978,54,41.898,54,27l0,0H44.972z
		"/>
	<path fill="#C7C7C7" d="M27.038,44.97c-0.014,0-0.025,0.002-0.037,0.002C17.09,44.972,9.028,36.91,9.028,27
		C9.028,17.09,17.09,9.028,27,9.028c9.909,0,17.972,8.062,17.972,17.972H54C54,12.088,41.912,0,27,0C12.088,0,0,12.088,0,27
		c0,14.912,12.088,27,27,27c0.012,0,0.023-0.002,0.037-0.002V44.97z"/>
</g>
</svg>
