<?xml version="1.0" encoding="utf-8"?>
<!-- Generator: Adobe Illustrator 16.0.0, SVG Export Plug-In . SVG Version: 6.00 Build 0)  -->
<!DOCTYPE svg PUBLIC "-//W3C//DTD SVG 1.1//EN" "http://www.w3.org/Graphics/SVG/1.1/DTD/svg11.dtd">
<svg version="1.1" id="Layer_1" xmlns="http://www.w3.org/2000/svg" xmlns:xlink="http://www.w3.org/1999/xlink" x="0px" y="0px"
	 width="68.869px" height="44px" viewBox="0 0 68.869 44" enable-background="new 0 0 68.869 44" xml:space="preserve">
<g>
	<path fill="#B6B6B6" d="M54.964,31.306l-4.3-5.411l-7.914,2.334l-0.004-0.005l-0.005,0.008l-15.868,4.68l-4.947,1.461l-9.341,2.755
		l-3.221,0.95l-2.592,0.766v4.024C6.772,43.493,7.276,44,7.897,44h51.754c0.622,0,1.126-0.507,1.126-1.133V22.91l-5.813,1.715
		V31.306z"/>
	<path fill="#B6B6B6" d="M68.846,15.152l-1.417-4.873l-6.651,1.962V2.089c0-0.626-0.504-1.133-1.126-1.133H7.896
		c-0.621,0-1.125,0.507-1.125,1.133v26.083L0,30.17l1.418,4.873l0.023,0.08l5.33-1.572l4.843-1.429l0.971-0.286l26.759-7.894
		l15.62-4.609l5.812-1.714l8.093-2.387L68.846,15.152z M12.585,6.809h42.379v7.147l-3.753,1.107
		c-0.029-2.568-2.104-4.642-4.662-4.642c-2.574,0-4.664,2.104-4.664,4.695c0,0.915,0.266,1.766,0.715,2.487l-6.719,1.982
		l-5.395-6.789c-0.427-0.537-1.074-0.85-1.757-0.85c-0.684,0-1.33,0.313-1.757,0.85l-9.775,12.302l-4.612,1.36V6.809L12.585,6.809z"
		/>
</g>
</svg>
